<?xml version="1.0" standalone="no"?>
<!DOCTYPE svg PUBLIC "-//W3C//DTD SVG 1.1//EN" "http://www.w3.org/Graphics/SVG/1.1/DTD/svg11.dtd" >
<svg xmlns="http://www.w3.org/2000/svg">
<metadata>
This is a custom SVG webfont generated by Font Squirrel.
Designer    : Frederic W Goudy
Foundry URL : httpwwwadobecomtype
</metadata>
<defs>
<font id="webfontlKNGIALz" horiz-adv-x="556" >
<font-face units-per-em="1000" ascent="705" descent="-295" />
<missing-glyph horiz-adv-x="278" />
<glyph unicode=" "  horiz-adv-x="278" />
<glyph unicode="&#x09;" horiz-adv-x="278" />
<glyph unicode="&#xa0;" horiz-adv-x="278" />
<glyph unicode="!" horiz-adv-x="296" d="M148 -15q-31 0 -52 19t-21 50t21 50t52 19t52 -19t21 -50t-21 -50t-52 -19zM159 179h-36l-47 456q87 0 112 -8t25 -46t-19.5 -186t-34.5 -216z" />
<glyph unicode="&#x22;" horiz-adv-x="444" d="M158 573l-19 -204q-1 -10 -8 -20.5t-20 -10.5t-20 10.5t-8 20.5l-19 204q-6 81 47 81t47 -81zM381 573l-19 -204q-1 -10 -8 -20.5t-20 -10.5t-20 10.5t-8 20.5l-19 204q-6 81 47 81t47 -81z" />
<glyph unicode="#" d="M342 243l34 149h-162l-34 -149h162zM489 243l-39 -83h-77l-30 -133h-51l31 133h-162l-30 -133h-51l30 133h-97l39 83h77l34 149h-97l39 83h77l30 133h51l-30 -133h162l30 133h51l-30 -133h97l-39 -83h-77l-35 -149h97z" />
<glyph unicode="$" d="M291 600v-205q102 -29 153 -71.5t51 -124.5t-59.5 -133.5t-144.5 -62.5v-73h-35v70q-84 0 -139 29.5t-55 69.5q0 17 12.5 28.5t30.5 11.5q33 0 56.5 -28t30.5 -63q19 -13 64 -13v233q-88 27 -126 55q-65 48 -65 126q0 79 54.5 126.5t136.5 57.5v72h35v-70q84 0 130.5 -30 t46.5 -66q0 -15 -12 -26t-28 -11q-32 0 -55 26t-24 59q-22 13 -58 13zM256 406v190q-36 -6 -58.5 -31.5t-22.5 -62.5q0 -69 81 -96zM291 257v-217q41 9 64 39t23 73q0 42 -20.5 64.5t-66.5 40.5z" />
<glyph unicode="%" horiz-adv-x="907" d="M637 -13q-78 0 -119 42t-41 122q0 87 58 138.5t146 51.5q78 0 119 -42t41 -122q0 -87 -58 -138.5t-146 -51.5zM650 305q-68 0 -68 -108q0 -174 86 -174q68 0 68 109q0 173 -86 173zM227 295q-78 0 -119 42t-41 122q0 87 58 138.5t146 51.5q78 0 119 -42t41 -122 q0 -87 -58 -138.5t-146 -51.5zM240 613q-68 0 -68 -108q0 -174 86 -174q68 0 68 109q0 173 -86 173zM636 679h51q-225 -341 -328 -695l-77 -20q96 352 354 715z" />
<glyph unicode="&#x26;" horiz-adv-x="907" d="M229 361q-36 -26 -36 -107q0 -94 56 -155t150 -61q72 0 117 26q-148 113 -287 297zM482 367l-20 23q33 54 129 54q37 0 80 -8q46 -8 67 -8q81 0 96 55q4 16 17 16q11 0 14 -6.5t3 -20.5v-73q0 -12 -15 -27t-43 -15q-22 0 -106 29q-22 8 -35 12l-2 -2q69 -51 69 -130 q0 -78 -64 -140q55 -40 79 -48q17 -6 36 -6q28 0 59 23l18 -28l-10 -7q-34 -24 -54.5 -37t-55 -27.5t-61.5 -14.5q-52 0 -129 53q-106 -50 -217 -50q-54 0 -104 11.5t-93.5 36t-69.5 68.5t-26 102q0 70 47.5 122t118.5 66q-37 52 -37 96q0 76 60.5 122t138.5 46 q65 0 133 -30q-11 -71 -14 -78q-3 -10 -14 -10q-17 0 -19 23q-2 24 -30.5 37.5t-56.5 13.5q-32 0 -54.5 -16.5t-22.5 -46.5q0 -49 102.5 -163.5t239.5 -228.5q20 25 20 80q0 58 -39.5 102.5t-88.5 44.5q-23 0 -46 -15z" />
<glyph unicode="'" horiz-adv-x="222" d="M83 369l-19 204q-6 81 47 81t47 -81l-19 -204q-1 -10 -8 -20.5t-20 -10.5t-20 10.5t-8 20.5z" />
<glyph unicode="(" horiz-adv-x="389" d="M327 712l24 -33q-98 -68 -139.5 -159t-41.5 -217q0 -82 15 -154.5t58 -142.5t111 -106l-20 -30q-88 17 -150.5 85t-90 152.5t-27.5 174.5q0 144 67 258.5t194 171.5z" />
<glyph unicode=")" horiz-adv-x="389" d="M62 -130l-24 33q98 68 139.5 159t41.5 217q0 82 -15 154.5t-58 142.5t-111 106l20 30q88 -17 150.5 -85t90 -152.5t27.5 -174.5q0 -144 -67 -258.5t-194 -171.5z" />
<glyph unicode="*" horiz-adv-x="500" d="M99 582q14 -18 60 -52.5t62 -34.5q13 0 13 13q0 21 -16.5 67.5t-29.5 68.5q29 10 62 10t62 -10q-13 -22 -29.5 -68.5t-16.5 -67.5q0 -13 13 -13q16 0 62 34.5t60 52.5q40 -52 38 -118q-35 7 -78 7q-35 0 -52.5 -2.5t-20.5 -5.5t-3 -9q0 -15 51 -51t71 -43 q-38 -54 -100 -72q-1 25 -20 84t-37 59t-37 -59t-20 -84q-62 18 -100 72q20 7 71 43t51 51q0 6 -3 9t-20.5 5.5t-52.5 2.5q-43 0 -78 -7q-2 66 38 118z" />
<glyph unicode="+" d="M233 268v177h91v-177h176v-91h-176v-177h-91v177h-177v91h177z" />
<glyph unicode="," horiz-adv-x="278" d="M119 -177l-21 27q75 54 75 113q0 13 -6.5 20t-13.5 7q-1 0 -11 -2q-8 -3 -19 -3q-28 0 -45.5 18t-17.5 45q0 29 19.5 46.5t48.5 17.5q46 0 72 -37.5t26 -86.5q0 -106 -107 -165z" />
<glyph unicode="-" horiz-adv-x="333" d="M61 278h192q16 0 24.5 1.5t11.5 3t5 1.5q5 0 5 -5q0 -3 -4 -13l-14 -34l-19 -45h-192q-16 0 -24.5 -1.5t-11.5 -3t-5 -1.5q-5 0 -5 5q0 3 4 13l14 34z" />
<glyph unicode="." horiz-adv-x="278" d="M139 -15q-31 0 -52 19t-21 50t21 50t52 19t52 -19t21 -50t-21 -50t-52 -19z" />
<glyph unicode="/" horiz-adv-x="278" d="M59 -19h-88l248 673h88z" />
<glyph unicode="0" d="M45 292q0 157 71 259.5t181 102.5q74 0 124.5 -48.5t70 -116t19.5 -146.5q0 -157 -71 -259.5t-181 -102.5q-74 0 -124.5 48.5t-70 116t-19.5 146.5zM178 408q0 -167 35.5 -271.5t91.5 -104.5q73 0 73 195q0 167 -35.5 271.5t-91.5 104.5q-73 0 -73 -195z" />
<glyph unicode="1" d="M465 38v-38h-376v38h57q36 0 44.5 1.5t8.5 8.5v330q0 213 -29 213h-81v38l265 24v-519q0 -96 24 -96h87z" />
<glyph unicode="2" d="M50 545l-20 27q37 39 92 60.5t111 21.5q93 0 149.5 -56.5t56.5 -150.5q0 -43 -12 -78.5t-41 -68t-49 -50t-64 -51.5q-12 -9 -18 -14q-57 -44 -78 -63q26 1 106.5 4.5t124.5 3.5q61 0 78 25q9 12 18 12q13 0 13 -14q0 -24 -52 -153h-419q-24 0 -24 10q0 4 4.5 11 t13.5 16.5l17 17.5l19.5 19l16.5 16q49 49 74.5 77t59 73t48.5 88.5t15 91.5q0 71 -33.5 115t-101.5 44q-60 0 -105 -34z" />
<glyph unicode="3" d="M142 336v41q153 0 153 111q0 45 -32.5 68t-79.5 23q-67 0 -122 -43l-21 26q35 43 98.5 67.5t123.5 24.5q84 0 134 -39.5t50 -96.5q0 -106 -147 -149v-2q86 -5 144 -48t58 -127q0 -82 -75 -146.5t-205 -64.5q-122 0 -201 50l17 37q69 -36 132 -36q73 0 121.5 46t48.5 118 q0 64 -43.5 102t-126.5 38h-27z" />
<glyph unicode="4" d="M483 213h-80v-206q-109 -39 -118 -39q-15 0 -15 23q0 1 2.5 33.5t5.5 85.5t3 103h-264v29q17 28 50.5 69.5t80.5 93l82.5 90l86.5 92.5l64 67h22v-354q37 0 53 3t37 18q12 6 15 6q11 0 11 -11q0 -7 -36 -103zM281 300v189q-11 -10 -39 -42.5l-67 -77.5l-60 -69h166z" />
<glyph unicode="5" d="M146 551l-36 -139q25 1 71 5t51 4q69 0 125 -18t95 -65t39 -117q0 -71 -46.5 -127.5t-112 -84.5t-133.5 -28q-100 0 -166 33l11 34q58 -16 88 -16q83 0 142.5 56t59.5 138q0 63 -45 105t-138 42q-36 0 -59 -5l-24 -4q-8 0 -8 8l63 259q94 -28 175 -28q124 0 135 28 q6 16 18 16q18 0 18 -18q0 -4 -2.5 -19l-7 -40l-7.5 -41q-1 -6 -10.5 -13.5t-34 -14.5t-56.5 -7q-106 0 -205 57z" />
<glyph unicode="6" d="M512 219q0 -104 -68.5 -171t-172.5 -67q-116 0 -173.5 74t-57.5 197q0 180 120.5 291t313.5 111v-36q-115 -1 -197 -68.5t-86 -182.5q4 2 17 11l17.5 12t16 10t18 9.5t17.5 7.5t19 7t19 3.5t21 1.5q81 0 128.5 -63.5t47.5 -146.5zM189 322v-44q0 -18 4.5 -54t14 -84.5 t31.5 -83t51 -34.5q42 0 62.5 24.5t20.5 101.5q0 31 -5.5 63t-17.5 64.5t-36.5 53t-57.5 20.5t-67 -27z" />
<glyph unicode="7" d="M192 507q-54 0 -81 3.5t-34 9.5t-7 18q0 11 25 108q44 -17 89 -24q45 -6 91 -6q44 0 110 7t98 17q2 0 10.5 3.5t11.5 3.5q7 0 7 -7q0 -6 -9 -21q-89 -142 -149.5 -315t-60.5 -316q0 -20 -23 -20q-13 -1 -48 9t-58 20q-18 9 -18 24q0 70 81 240.5t183 278.5l-2 2 q-110 -35 -216 -35z" />
<glyph unicode="8" d="M213 291q-53 -19 -53 -112q0 -63 36.5 -110t97.5 -47q47 0 73.5 31.5t26.5 74.5q0 28 -5.5 47t-23.5 40t-55 39.5t-97 36.5zM334 392q42 38 42 104q0 50 -28.5 83.5t-78.5 33.5q-42 0 -71.5 -25.5t-29.5 -67.5q0 -43 31.5 -65.5t134.5 -62.5zM165 313q-50 22 -81 61.5 t-31 91.5q0 70 61.5 129t169.5 59q83 0 145 -38.5t62 -115.5q0 -103 -122 -129v-2q51 -19 85 -47t47 -58t16.5 -47.5t3.5 -35.5q0 -89 -78 -144.5t-187 -55.5q-93 0 -158 45.5t-65 135.5q0 111 132 151z" />
<glyph unicode="9" d="M77 -19v39q125 -1 204 70t80 172l-69 -45q-39 -22 -78 -22q-83 0 -130.5 62.5t-47.5 147.5q0 104 70.5 176.5t175.5 72.5q118 0 173.5 -76.5t55.5 -199.5q0 -96 -36.5 -174.5t-94.5 -125.5t-125.5 -72t-134.5 -25h-43zM362 302q0 42 -4 86t-14.5 99.5t-36 90.5t-61.5 35 q-21 0 -36 -13t-22 -33.5t-10 -40t-3 -39.5q0 -34 4.5 -66t16 -67.5t36.5 -57t60 -21.5q28 0 70 27z" />
<glyph unicode=":" horiz-adv-x="278" d="M139 -15q-31 0 -52 19t-21 50t21 50t52 19t52 -19t21 -50t-21 -50t-52 -19zM139 304q-31 0 -52 19t-21 50t21 50t52 19t52 -19t21 -50t-21 -50t-52 -19z" />
<glyph unicode=";" horiz-adv-x="278" d="M119 -177l-21 27q75 54 75 113q0 13 -6.5 20t-13.5 7q-1 0 -11 -2q-8 -3 -19 -3q-28 0 -45.5 18t-17.5 45q0 29 19.5 46.5t48.5 17.5q46 0 72 -37.5t26 -86.5q0 -106 -107 -165zM139 304q-31 0 -52 19t-21 50t21 50t52 19t52 -19t21 -50t-21 -50t-52 -19z" />
<glyph unicode="&#x3c;" d="M499 454v-92l-328 -140l328 -140v-92l-447 192v80z" />
<glyph unicode="=" d="M500 359v-91h-444v91h444zM500 176v-91h-444v91h444z" />
<glyph unicode="&#x3e;" d="M57 362v92l447 -192v-80l-447 -192v92l328 140z" />
<glyph unicode="?" horiz-adv-x="426" d="M107 289l58 35q1 0 13 7.5t16 10.5l15 11.5t15.5 16.5l11.5 20t9.5 27.5t2.5 33.5q0 72 -33.5 107t-73.5 35q-23 0 -36 -8t-16.5 -17t-9 -17t-15.5 -8q-14 0 -14 14q0 3 24 68q64 29 130 29q85 0 133.5 -46.5t48.5 -107.5q0 -30 -10.5 -54t-33.5 -43.5t-40 -30.5t-49 -29 q-34 -17 -34 -26q0 -10 18 -41t26 -35q8 -5 8 -11q0 -22 -98 -56q-24 19 -42.5 52t-23.5 63zM198 -15q-31 0 -52 19t-21 50t21 50t52 19t52 -19t21 -50t-21 -50t-52 -19z" />
<glyph unicode="@" horiz-adv-x="800" d="M691 120l14 -33q-80 -55 -153 -79t-161 -24q-93 0 -167.5 29.5t-119 78t-68 105t-23.5 114.5q0 173 126.5 287t310.5 114q88 0 155 -24.5t105.5 -66t57.5 -90.5t19 -104q0 -104 -73 -190t-189 -86q-57 0 -67.5 21.5t-9.5 116.5l-2 2q-23 -48 -63 -89.5t-93 -41.5 q-45 0 -66.5 34t-21.5 82q0 97 73.5 182.5t187.5 85.5q13 0 25.5 -0.5t20.5 -1t10 -0.5q24 0 34.5 9t23.5 9q10 0 10 -7q0 -1 -10 -44.5t-20 -103.5t-10 -101q0 -36 6 -59.5t14 -32t17 -8.5q40 0 75.5 58.5t35.5 163.5q0 33 -5.5 63t-22 63.5t-42.5 58t-71.5 40.5t-104.5 16 q-56 0 -115 -22.5t-111 -64t-85 -110t-33 -151.5q0 -29 4 -58t23 -72.5t51 -75t94.5 -55t147.5 -23.5q73 0 126 15.5t97 42.5zM316 295q0 -25 5 -49t14 -24q26 0 57 40.5t55.5 111t27.5 143.5q-42 0 -75 -25.5t-50 -63t-25.5 -72.5t-8.5 -61z" />
<glyph unicode="A" horiz-adv-x="648" d="M352 219h-192l-14 -37q-15 -37 -27.5 -74.5t-12.5 -52.5q0 -11 6 -14t20 -3h55v-38h-202v38h27q18 0 23.5 3t8.5 13q12 39 122 298.5t120 277.5q95 19 104 19q14 0 14 -17q0 -8 -11.5 -16t-11.5 -18q0 -7 11 -41t32.5 -91l40.5 -107l46.5 -122l39.5 -104q29 -75 39 -86 q9 -9 25 -9h29v-38h-292v38h41q18 0 18 10q0 5 -59 171zM335 263l-74 200l-84 -200h158z" />
<glyph unicode="B" horiz-adv-x="630" d="M268 337v-137q0 -62 1 -91t6.5 -45t12 -18t22.5 -2q55 0 90.5 40.5t35.5 96.5q0 22 -7.5 46t-25 50t-52.5 43t-83 17zM30 597v38h322q55 0 96.5 -13.5t62 -31t32.5 -39.5t14.5 -35t2.5 -22q0 -33 -13.5 -57.5t-38 -40t-45 -23.5t-49.5 -16v-2q177 -40 177 -176 q0 -56 -33 -95t-88 -60q-64 -24 -202 -24h-214v38q36 0 44.5 1.5t8.5 8.5v488q0 28 -5.5 42.5t-10.5 16.5t-15 2h-46zM268 580v-205q65 0 99 -7q27 5 40 32t13 59q0 56 -36.5 94t-92.5 38q-23 0 -23 -11z" />
<glyph unicode="C" horiz-adv-x="685" d="M636 617l-7 -67q0 -1 -0.5 -5t-0.5 -6t-0.5 -5.5t-1 -5t-2 -4t-3.5 -4t-5 -2.5t-6 -1q-14 0 -18 20q-3 18 -14 27q-52 46 -130 46q-85 0 -157 -80t-72 -211q0 -53 12.5 -103t37.5 -94t69 -70.5t100 -26.5q50 0 110 30t70 75q4 20 18 20q16 0 16 -17q0 -6 -1.5 -20.5 l-4 -37.5l-4.5 -43q-105 -51 -249 -51q-91 0 -159.5 26t-107 70.5t-57 97t-18.5 112.5q0 76 26.5 139.5t68 105t95.5 70t107.5 40.5t105.5 12q89 0 182 -37z" />
<glyph unicode="D" horiz-adv-x="741" d="M54 0v38q36 0 44.5 1.5t8.5 8.5v488q0 28 -5.5 42.5t-10.5 16.5t-15 2h-46v38h310q177 0 268.5 -88t91.5 -219q0 -39 -9 -80t-34.5 -86.5t-63.5 -80.5t-102.5 -58t-146.5 -23h-290zM268 578v-380q0 -51 1 -81t4.5 -46.5t8 -21.5t12.5 -5h32q105 0 155.5 67t50.5 175 q0 75 -21 133t-50 89.5t-65.5 51t-61.5 25.5t-44 6q-10 0 -13.5 -0.5t-6 -3.5t-2.5 -9z" />
<glyph unicode="E" horiz-adv-x="593" d="M107 48v488q0 28 -5.5 42.5t-10.5 16.5t-15 2h-46v38h510l-8 -72q0 -3 -0.5 -9.5t-1.5 -11.5t-2.5 -10t-5 -8t-9.5 -3q-17 0 -19 18q-2 26 -29 34q-52 18 -177 18q-8 0 -11.5 -0.5t-6 -4t-2.5 -11.5v-211h55q54 0 80 5.5t31 13t5 23.5v33h34v-178h-34v18q0 18 -3 25.5 t-21.5 13t-59.5 5.5h-87v-125q0 -51 1 -81t4.5 -46.5t8 -21.5t12.5 -5q61 0 102 3t86.5 17.5t59.5 41.5q6 14 18 14q15 0 15 -15t-28 -105h-493v38q36 0 44.5 1.5t8.5 8.5z" />
<glyph unicode="F" horiz-adv-x="574" d="M112 48v488q0 28 -5.5 42.5t-10.5 16.5t-15 2h-46v38h510l-8 -72q0 -3 -0.5 -9.5t-1.5 -11.5t-2.5 -10t-5 -8t-9.5 -3q-18 0 -19 18q-2 26 -29 34q-52 18 -177 18q-8 0 -11.5 -0.5t-6 -4t-2.5 -11.5v-211h55q54 0 80 5.5t31 13t5 23.5v33h34v-178h-34v18q0 18 -3 25.5 t-21.5 13t-59.5 5.5h-87v-59q0 -83 1 -127.5t5.5 -67t9.5 -27t16 -4.5h50v-38h-296v38q36 0 44.5 1.5t8.5 8.5z" />
<glyph unicode="G" horiz-adv-x="741" d="M655 619l-9 -61q-3 -25 -6.5 -33t-14.5 -8q-16 0 -19 18q-4 25 -46.5 50t-94.5 25q-124 0 -191 -80.5t-67 -194.5q0 -72 21.5 -140t73.5 -119t126 -51q32 0 72 18v121q0 63 -8 78t-33 15h-39v38h290v-38h-38q-11 0 -14.5 -2.5t-4.5 -16.5v-135q0 -20 9 -29t9 -17 q0 -14 -22 -24q-8 -4 -45 -15.5t-103 -24t-118 -12.5q-154 0 -245.5 84.5t-91.5 237.5q0 73 25.5 133.5t67 100t96 66.5t109.5 39t110 12q109 0 201 -35z" />
<glyph unicode="H" horiz-adv-x="741" d="M477 364v172q0 28 -5.5 42.5t-10.5 16.5t-15 2h-46v38h293v-38h-36q-11 0 -14.5 -2.5t-4.5 -16.5v-444q0 -96 24 -96h55v-38h-293v38q36 0 44.5 1.5t8.5 8.5v272h-214v-186q0 -96 24 -96h58v-38h-296v38q36 0 44.5 1.5t8.5 8.5v488q0 28 -5.5 42.5t-10.5 16.5t-15 2h-46 v38h296v-38h-39q-11 0 -14.5 -2.5t-4.5 -16.5v-214h214z" />
<glyph unicode="I" horiz-adv-x="370" d="M25 597v38h296v-38h-39q-11 0 -14.5 -2.5t-4.5 -16.5v-444q0 -96 24 -96h58v-38h-296v38q36 0 44.5 1.5t8.5 8.5v488q0 28 -5.5 42.5t-10.5 16.5t-15 2h-46z" />
<glyph unicode="J" horiz-adv-x="370" d="M328 635v-38h-39q-11 0 -14.5 -2.5t-4.5 -16.5v-552q0 -55 -20 -96.5t-48.5 -63.5t-65 -36t-62 -17.5t-48.5 -3.5q-68 0 -133 18q-10 77 -10 78q0 17 18 17q7 0 11 -3.5t5 -6.5t3 -11q6 -22 29 -35t44 -13q45 0 80.5 37.5t35.5 105.5v540q0 28 -5.5 42.5t-10.5 16.5 t-15 2h-46v38h296z" />
<glyph unicode="K" horiz-adv-x="685" d="M300 283l-37 -34v-115q0 -96 24 -96h58v-38h-296v38q36 0 44.5 1.5t8.5 8.5v488q0 28 -5.5 42.5t-10.5 16.5t-15 2h-46v38h295v-38h-38q-11 0 -14.5 -2.5t-4.5 -16.5v-268q156 163 202.5 215t46.5 65q0 7 -23 7h-61v38h227v-38h-37q-21 0 -37 -17l-179 -191l97 -130 l108.5 -143.5t57.5 -63.5q9 -7 18.5 -10t15 -3.5t23.5 -0.5v-38h-190q-18 0 -30 6t-35 34t-59.5 81.5l-100.5 150.5q-5 7 -7 11z" />
<glyph unicode="L" horiz-adv-x="574" d="M268 578v-380q0 -51 1 -81t4.5 -46.5t8 -21.5t12.5 -5q61 0 102 3t86.5 17.5t59.5 41.5q6 14 18 14q15 0 15 -15t-28 -105h-493v38q36 0 44.5 1.5t8.5 8.5v488q0 28 -5.5 42.5t-10.5 16.5t-15 2h-46v38h302v-38h-45q-11 0 -14.5 -2.5t-4.5 -16.5z" />
<glyph unicode="M" horiz-adv-x="852" d="M239 635l188 -392q64 151 178 392h203v-38h-35q-11 0 -14.5 -2.5t-4.5 -16.5v-444q0 -96 24 -96h54v-38h-296v38q39 0 48 1.5t9 8.5v451h-3l-207 -466q-1 -1 -3 -6t-3.5 -7.5t-4 -5t-6.5 -2.5q-7 0 -12 12l-208 453h-2v-374q0 -65 30 -65h49v-38h-186v38h36q21 0 21 10 v456q0 60 -20.5 76.5t-67.5 16.5v38h233z" />
<glyph unicode="N" horiz-adv-x="741" d="M223 635l370 -391v288q0 65 -31 65h-49v38h186v-38h-36q-20 0 -20 -10v-585q0 -13 -12 -13q-10 0 -36 26l-441 473v-385q0 -65 30 -65h49v-38h-186v38h36q21 0 21 10v424q0 35 -8.5 60.5t-19.5 37.5t-27.5 18.5t-24.5 7.5t-18 1v38h217z" />
<glyph unicode="O" horiz-adv-x="759" d="M367 -19q-146 0 -238.5 85t-92.5 234q0 44 10.5 90t37 94t66 85t102 61t139.5 24q146 0 239 -85t93 -234q0 -44 -11 -90t-37.5 -94t-65.5 -85t-102 -61t-140 -24zM197 389q0 -55 9.5 -112t31 -117.5t65.5 -99t104 -38.5q44 0 76 21t48.5 56t23.5 71t7 76q0 42 -5.5 87 t-20 96.5t-37 91t-61 66t-87.5 26.5q-44 0 -76 -21t-48 -56t-23 -71t-7 -76z" />
<glyph unicode="P" horiz-adv-x="593" d="M350 38v-38h-296v38q36 0 44.5 1.5t8.5 8.5v488q0 28 -5.5 42.5t-10.5 16.5t-15 2h-46v38h325q62 0 108 -17t69.5 -44.5t34 -56t10.5 -57.5q0 -65 -58 -119t-168 -54q-46 0 -83 12v-165q0 -96 24 -96h58zM268 580v-242q18 -7 40 -7q49 0 78.5 32t29.5 81 q0 58 -34.5 102.5t-90.5 44.5q-13 0 -18 -1.5t-5 -9.5z" />
<glyph unicode="Q" horiz-adv-x="759" d="M758 -98l14 -31q-112 -57 -199 -57q-16 0 -31 2.5t-30.5 10.5l-26.5 13.5t-28 20l-24.5 20.5t-25 25.5t-22 24t-23.5 27t-21 24.5q-141 11 -223 94.5t-82 223.5q0 44 10.5 90t37 94t66 85t102 61t139.5 24q146 0 239 -85t93 -234q0 -113 -54 -199t-153 -130l16 -14 q15 -15 19 -18t19 -16.5t22 -18.5l21.5 -15.5t23.5 -15l21.5 -10.5t23 -8.5t20.5 -2.5q19 0 56 15zM459 57l19 -16q84 51 84 205q0 42 -5.5 87t-20 96.5t-37 91t-61 66t-87.5 26.5q-44 0 -76 -21t-48 -56t-23 -71t-7 -76q0 -57 9.5 -112t29.5 -108.5t58 -92t90 -50.5 q35 6 75 31z" />
<glyph unicode="R" horiz-adv-x="648" d="M268 285v-151q0 -96 24 -96h58v-38h-296v38q36 0 44.5 1.5t8.5 8.5v488q0 28 -5.5 42.5t-10.5 16.5t-15 2h-46v38h322q12 0 24.5 -1t42 -5.5t54 -17.5t49.5 -32.5t39.5 -55t14.5 -80.5q0 -35 -31.5 -76.5t-98.5 -48.5q93 -173 170 -255q23 -25 52 -25v-38h-147 q-32 0 -42.5 2t-19.5 12q-30 32 -72 115.5t-70 155.5h-49zM268 580v-254h26q57 0 89 31.5t32 89.5q0 55 -35.5 99.5t-89.5 44.5q-22 0 -22 -11z" />
<glyph unicode="S" d="M446 635l7 -90q2 -19 -16 -19q-15 0 -20 19q-8 32 -40.5 48.5t-69.5 16.5q-48 0 -86 -26t-38 -72q0 -36 26.5 -58.5t62 -32.5t87 -31t86.5 -50q28 -23 45.5 -63t17.5 -80q0 -36 -14.5 -72t-44 -69.5t-83.5 -54t-124 -20.5q-94 0 -178 31q-20 90 -20 100q0 20 19 20 q7 0 11 -4t5.5 -7t4.5 -11q16 -43 65.5 -64t86.5 -21q58 0 99 32.5t41 89.5q0 40 -28 66t-64.5 37t-85.5 30t-77 42q-64 52 -64 136q0 64 39 110t94.5 66t118.5 20q81 0 137 -19z" />
<glyph unicode="T" horiz-adv-x="630" d="M502 38v-38h-357v38q64 0 77 1.5t13 8.5v540h-17q-144 0 -169 -54q-11 -25 -24 -25q-16 0 -16 14q0 5 32 112h549q32 -107 32 -112q0 -14 -16 -14q-13 0 -24 25q-25 54 -169 54h-17v-454q0 -96 24 -96h82z" />
<glyph unicode="U" horiz-adv-x="722" d="M690 635v-38h-36q-20 0 -20 -10v-350q0 -53 -14 -95t-34 -68t-50.5 -45t-55.5 -28t-57 -14t-46 -5.5t-32 -0.5q-14 0 -28 1t-47.5 6t-61 19t-55.5 35t-44.5 59t-16.5 87v348q0 28 -5.5 42.5t-10.5 16.5t-15 2h-49v38h295v-38h-31q-10 0 -13.5 -0.5t-6.5 -5t-3 -13.5v-355 q0 -189 150 -189q37 0 66.5 9t48 22t32 32.5t20 36t10 37t4 30.5t0.5 22v309q0 65 -31 65h-49v38h186z" />
<glyph unicode="V" horiz-adv-x="648" d="M668 635v-38h-42q-13 0 -19 -15l-249 -577q-1 -1 -2 -3.5t-1.5 -4t-1.5 -3.5t-2 -3t-2.5 -2t-3.5 -1.5t-4 -0.5q-5 0 -8 2.5t-7 10.5l-4 7l-214 467q-36 79 -50.5 101t-32.5 22h-33v38h293v-38h-29q-24 0 -24 -7q0 -3 4 -13t9.5 -21t5.5 -12l148 -325q145 313 145 365 q0 9 -5 11t-18 2h-47v38h194z" />
<glyph unicode="W" horiz-adv-x="981" d="M992 635v-38h-39q-13 0 -19 -15l-239 -575q-1 -1 -2.5 -5t-2.5 -6t-2.5 -4.5t-4.5 -3.5t-6 -1q-8 0 -13.5 7t-11 22t-5.5 16l-162 376l-154 -401q-7 -20 -18 -20q-8 0 -13.5 7t-11 22t-5.5 16l-200 474q-27 64 -37.5 77.5t-31.5 13.5h-25v38h284v-38h-46q-12 0 -12 -6 q0 -7 15 -41.5l56.5 -129l82.5 -191.5l90 238q-42 99 -57 117q-11 13 -22 13h-26v38h298v-38h-62q-12 0 -12 -6q0 -4 156 -369l103 250q34 85 34 112q0 9 -5 11t-18 2h-49v38h193z" />
<glyph unicode="X" horiz-adv-x="630" d="M606 635v-38q-33 0 -41.5 -1.5t-15.5 -10.5l-167 -211l133 -212q64 -102 79 -115q10 -9 19 -9h27v-38h-297v38h33q26 0 26 6q0 3 -134 222l-30 -43.5l-26 -38l-22 -31.5t-18.5 -27l-14 -21.5t-11.5 -18.5t-7.5 -14.5t-5 -12.5t-1.5 -10q0 -11 13 -11h59v-38h-202v38h39 q14 0 23 13l179 256l-135 215q-31 49 -42.5 62t-28.5 13h-28v38h304v-38h-49q-10 0 -10 -6q0 -10 104 -177l35.5 46.5l34 43.5t26 35t19 30t6.5 19q0 6 -4 7.5t-17 1.5h-47v38h195z" />
<glyph unicode="Y" horiz-adv-x="574" d="M595 635v-38h-28q-16 0 -21 -2.5t-10 -11.5l-165 -305v-144q0 -96 24 -96h54v-38h-295v38q38 0 47 1.5t9 8.5v218l-123 237q-35 66 -48 80t-38 14h-22v38h301v-38h-41q-16 0 -16 -6q0 -5 10.5 -26l46 -90.5l71.5 -141.5l44 86.5l35 68.5l23.5 46t15.5 34.5t4 17.5 q0 8 -5 9.5t-19 1.5h-49v38h195z" />
<glyph unicode="Z" horiz-adv-x="574" d="M518 587l-309 -543q213 0 302 41q13 6 22 25q9 21 18 24q3 1 7 1q16 0 16 -16q0 -19 -31 -119h-504q-11 0 -16 0.5t-9 3t-4 8.5q0 4 9.5 20t9.5 17l310 542h-21q-227 0 -248 -68q-6 -21 -14 -24q-3 -1 -8 -1q-17 0 -17 21q0 6 4.5 25l11 46.5t9.5 44.5h459q22 0 22 -8 q0 -2 -19 -40z" />
<glyph unicode="[" horiz-adv-x="389" d="M102 -123v828h206v-38h-59q-24 0 -30 -2.5t-6 -12.5v-645q0 -44 4.5 -64.5t9.5 -24t16 -3.5h65v-38h-206z" />
<glyph unicode="\" horiz-adv-x="278" d="M310 -19h-93l-248 673h93z" />
<glyph unicode="]" horiz-adv-x="389" d="M287 705v-828h-206v38h59q24 0 30 2.5t6 12.5v645q0 44 -4.5 64.5t-9.5 24t-16 3.5h-65v38h206z" />
<glyph unicode="^" d="M501 270h-104l-119 260l-119 -260h-104l177 365h92z" />
<glyph unicode="_" horiz-adv-x="500" d="M500 -125h-500v50h500v-50z" />
<glyph unicode="`" horiz-adv-x="333" d="M235 513l-30 -26q-60 45 -151 94q10 10 28 23t25 13q15 0 66 -43t62 -61z" />
<glyph unicode="a" horiz-adv-x="524" d="M286 94v136q-26 -12 -40.5 -19.5t-31 -20.5t-23.5 -30t-7 -39q0 -49 42 -49q29 0 60 22zM286 273v59q0 64 -60 64q-25 0 -45 -10v-17q0 -39 -27.5 -67t-60.5 -28q-17 0 -30 12t-13 29q0 53 78 90t174 37q45 0 72 -6.5t39 -23t15 -32.5t3 -46v-155q0 -77 9.5 -94t59.5 -28 l-40 -68q-14 -5 -33 -5q-91 0 -129 75q-30 -23 -48.5 -35t-50 -26t-56.5 -14q-46 0 -75 29t-29 75q0 25 11 46.5t26.5 36.5t40 29t43.5 22l44 18q9 3 13 5z" />
<glyph unicode="b" d="M217 345v-307q23 -13 51 -13q95 0 95 157q0 106 -23 145.5t-65 39.5q-28 0 -58 -22zM4 649v35l213 21v-318q79 55 136 55q77 0 118 -62t41 -143q0 -117 -67 -185t-183 -68q-55 0 -142 33l-17 -39h-35q4 37 4 401q0 129 -5 190t-11.5 70.5t-20.5 9.5h-31z" />
<glyph unicode="c" horiz-adv-x="460" d="M430 70l19 -25q-65 -61 -177 -61q-108 0 -169.5 58t-61.5 166q0 103 67 168.5t170 65.5q54 0 109.5 -24.5t55.5 -71.5q0 -22 -15 -34.5t-37 -12.5q-39 0 -64.5 30t-21.5 67q-10 5 -24 5q-27 0 -46.5 -17t-28.5 -44t-12.5 -52t-3.5 -51q0 -37 7 -70t22.5 -62.5t44.5 -46.5 t68 -17q54 0 98 29z" />
<glyph unicode="d" horiz-adv-x="574" d="M347 -16v54q-75 -54 -134 -54q-79 0 -121 64t-42 148q0 102 54 174t152 72q40 0 91 -23q0 110 -5 162t-11.5 60t-20.5 8h-31v35l213 21v-508q0 -75 3.5 -109t10.5 -43.5t22 -9.5h34v-35q-8 0 -29.5 -2t-27.5 -2q-29 0 -158 -12zM347 79v298q-29 19 -60 19q-88 0 -88 -159 q0 -178 92 -178q26 0 56 20z" />
<glyph unicode="e" horiz-adv-x="455" d="M431 86l17 -29q-39 -34 -95 -53.5t-110 -19.5q-56 0 -98.5 18.5t-64 43.5t-35 58.5t-16.5 56t-3 42.5q0 101 59.5 170t159.5 69q77 0 124.5 -37.5t78.5 -111.5l-271 -70q10 -175 135 -175q64 0 119 38zM175 259l130 38q-38 104 -77 104q-53 0 -53 -142z" />
<glyph unicode="f" horiz-adv-x="333" d="M306 426v-35h-83v-208q0 -72 4 -103.5t10 -38t22 -6.5h59v-35h-290v35q47 0 49 5q1 2 1 5v346h-61v35h61v126q0 43 17 75t39 47.5t52 24.5t47.5 11t33.5 2q43 0 89.5 -18.5t46.5 -57.5q0 -19 -12 -29.5t-32 -10.5q-29 0 -54 22t-26 50q-6 3 -9 3q-47 0 -47 -83v-162h83z " />
<glyph unicode="g" horiz-adv-x="477" d="M173 312q0 -31 6 -65t26 -67t51 -33q47 0 47 88q0 34 -5 67.5t-25.5 66t-53.5 32.5q-46 0 -46 -89zM143 -60q-27 -19 -27 -56q0 -11 4.5 -24t17 -30t43 -28t74.5 -11q28 0 53.5 5.5t48 24t22.5 46.5q0 13 -6 22.5t-12 14.5t-21.5 7.5t-20.5 3t-24 1.5q-66 3 -95 7.5 t-57 16.5zM254 54q7 -1 41 -2.5t53 -3.5t50 -10.5t48.5 -22t31 -39.5t13.5 -61q0 -46 -25 -80t-65.5 -51.5t-82 -25.5t-84.5 -8q-123 0 -174.5 38t-51.5 86q0 58 98 87q-44 27 -44 59q0 10 4 20.5t8 18.5t14 19.5l14.5 16.5t16.5 16.5l14 13.5q-96 39 -96 138q0 80 60 129.5 t142 49.5q25 0 91 -11q60 -12 91 -12q13 0 21 10q7 11 14 11q15 0 15 -17q0 -27 -6 -40t-15.5 -13h-19.5l-27 3q36 -47 36 -97q0 -64 -52 -117t-151 -53q-31 0 -66 8q-14 -19 -14 -27q0 -6 3 -11t10 -8.5t13.5 -5.5t17.5 -3.5t18 -2t19 -1.5t17 -1z" />
<glyph unicode="h" horiz-adv-x="574" d="M30 0v35q47 0 49 5q1 2 1 5v334q0 129 -5 190t-11.5 70.5t-20.5 9.5h-31v35l213 21v-332q3 2 26.5 19t30.5 20.5l26 13.5t34.5 13t33.5 3q48 0 86 -33t38 -107v-119q0 -72 4 -103.5t10 -38t22 -6.5h25v-35h-245v35q36 0 38 5q1 2 1 5v185q0 77 -10.5 105t-51.5 28 q-40 0 -68 -33v-147q0 -72 4 -103.5t10 -38t22 -6.5h17v-35h-248z" />
<glyph unicode="i" horiz-adv-x="301" d="M295 35v-35h-265v35q47 0 49 5q1 2 1 5v184q0 75 -3.5 109t-10.5 43.5t-22 9.5h-31v35h8q5 0 101 8q98 8 103 8v-259q0 -72 4 -103.5t10 -38t22 -6.5h34zM153 511q-31 0 -52 19t-21 49t21 49t52 19q30 0 51 -19t21 -49t-21 -49t-51 -19z" />
<glyph unicode="j" horiz-adv-x="301" d="M87 -119v348q0 75 -3.5 109t-10.5 43.5t-22 9.5h-31v35h8q5 0 101 8q98 8 103 8v-538q0 -45 -23 -78t-58 -48t-63.5 -21.5t-50.5 -6.5q-17 0 -37.5 3t-43.5 10t-38.5 20.5t-15.5 32.5t14 29.5t33 10.5q29 0 51 -19.5t32 -49.5q10 0 17 2t17 10t15.5 28.5t5.5 53.5z M160 511q-31 0 -52 19t-21 49t21 49t52 19q30 0 51 -19t21 -49t-21 -49t-51 -19z" />
<glyph unicode="k" horiz-adv-x="574" d="M233 231l117 104q33 33 33 45q0 11 -23 11h-42v35h191v-35q-27 0 -36 -3.5t-30 -22.5l-59 -53q70 -172 151 -259q16 -18 41 -18v-35h-153q-17 0 -24 7q-57 57 -117 214l-49 -38q0 -72 4 -103.5t10 -38t22 -6.5h34v-35h-265v35q47 0 49 5q1 2 1 5v334q0 129 -5 190 t-11.5 70.5t-20.5 9.5h-31v35l213 21v-474z" />
<glyph unicode="l" horiz-adv-x="301" d="M30 0v35q47 0 49 5q1 2 1 5v334q0 129 -5 190t-11.5 70.5t-20.5 9.5h-31v35l213 21v-522q0 -72 4 -103.5t10 -38t22 -6.5h34v-35h-265z" />
<glyph unicode="m" horiz-adv-x="838" d="M822 35v-35h-245v35q36 0 38 5q1 2 1 5v185q0 77 -10 105t-48 28t-66 -33v-147q0 -72 4 -103.5t10 -38t22 -6.5h15v-35h-235v35q36 0 38 5q1 2 1 5v185q0 77 -10 105t-48 28t-66 -33v-147q0 -72 4 -103.5t10 -38t22 -6.5h15v-35h-246v35q47 0 49 5q1 2 1 5v184 q0 75 -3.5 109t-10.5 43.5t-22 9.5h-31v35h8q5 0 101 8q98 8 103 8v-69q4 3 22.5 16l24.5 17t22.5 13t27 12.5t26 7t31.5 3.5q90 2 111 -69l26.5 19t30.5 20.5l26 14t33 12.5t33 3q48 0 86 -33t38 -107v-119q0 -72 4 -103.5t10 -38t22 -6.5h25z" />
<glyph unicode="n" horiz-adv-x="574" d="M561 35v-35h-245v35q36 0 38 5q1 2 1 5v185q0 77 -10.5 105t-51.5 28q-40 0 -68 -33v-147q0 -72 4 -103.5t10 -38t22 -6.5h17v-35h-248v35q47 0 49 5q1 2 1 5v184q0 75 -3.5 109t-10.5 43.5t-22 9.5h-31v35h8q5 0 101 8q98 8 103 8v-69q3 2 26.5 19t30.5 20.5l26 13.5 t34.5 13t33.5 3q48 0 86 -33t38 -107v-119q0 -72 4 -103.5t10 -38t22 -6.5h25z" />
<glyph unicode="o" horiz-adv-x="537" d="M277 442q106 0 167 -57.5t61 -164.5q0 -105 -70.5 -170.5t-175.5 -65.5q-106 0 -166.5 57.5t-60.5 164.5q0 105 70 170.5t175 65.5zM356 145q0 33 -4 69.5t-14 82.5t-33 75t-57 29q-24 0 -38.5 -10.5t-20 -32t-7 -36.5t-1.5 -41q1 -35 4.5 -70t13.5 -81.5t33 -75.5 t56 -29q16 0 28 5t19.5 15.5t12 20.5t6 26t2 26t0.5 27z" />
<glyph unicode="p" horiz-adv-x="574" d="M229 -2v-56q0 -72 4 -103.5t10 -38t22 -6.5h52v-35h-283v35q47 0 49 5q1 2 1 5v425q0 75 -3.5 109t-10.5 43.5t-22 9.5h-31v35h8q5 0 101 8q98 8 103 8v-59q85 59 138 59q41 0 72 -21t48.5 -55.5t26 -72.5t8.5 -77q0 -98 -56.5 -165t-152.5 -67q-42 0 -84 14zM229 346 v-305q29 -16 57 -16q30 0 49 15t26.5 43.5t9.5 49.5t2 53q0 181 -89 181q-31 0 -55 -21z" />
<glyph unicode="q" d="M559 -190v-35l-218 -21v269q-69 -32 -102 -37q-14 -2 -30 -2q-77 1 -118 62.5t-41 142.5q0 117 67 185t183 68q58 0 138 -33l17 39h35q-4 -37 -4 -401q0 -113 5 -166.5t11.5 -62t20.5 -8.5h36zM341 61v329q-26 11 -46 11q-96 0 -96 -169q0 -184 91 -184q25 0 51 13z" />
<glyph unicode="r" horiz-adv-x="407" d="M311 35v-35h-283v35q47 0 49 5q1 2 1 5v184q0 75 -3.5 109t-10.5 43.5t-22 9.5h-31v35h8q5 0 101 8q98 8 103 8v-94h2q49 64 69 79t58 15q27 0 49 -21l-15 -82q0 -1 -1 -6t-1 -7t-1.5 -6t-3 -5.5t-4 -3t-6.5 -1.5q-8 0 -12.5 6t-7 12.5t-12 12.5t-26.5 6q-47 0 -88 -38 v-126q0 -72 4 -103.5t10 -38t22 -6.5h52z" />
<glyph unicode="s" horiz-adv-x="441" d="M369 239q44 -39 44 -95q0 -55 -38.5 -93t-88.5 -52.5t-104 -14.5q-85 0 -145 21q-14 84 -14 88q0 16 19 16q10 0 14.5 -6t13.5 -27q20 -51 115 -51q9 0 22.5 2.5t33 8.5t32.5 20.5t13 35.5t-19.5 34.5t-48 20t-62.5 17t-62.5 23t-48 40.5t-19.5 68q0 64 58 105.5 t150 41.5q85 0 134 -24q1 -10 4 -37.5t3 -34.5q0 -16 -15 -16q-12 0 -19 18q-10 27 -40 40t-63 13q-32 0 -58.5 -12.5t-26.5 -41.5q0 -22 25 -36.5t57.5 -20t72 -19t61.5 -32.5z" />
<glyph unicode="t" horiz-adv-x="352" d="M78 391h-44q-16 0 -16 11q0 8 13 17l167 127h25v-120h94q-2 -22 -5.5 -28.5t-14.5 -6.5h-74v-235q0 -30 0.5 -43.5t3 -31t8.5 -24t16.5 -11.5t27.5 -5q26 0 53 12l14 -28q-59 -41 -146 -41q-43 0 -70 11t-37 32t-12.5 35.5t-2.5 37.5v291z" />
<glyph unicode="u" horiz-adv-x="574" d="M567 62l-41 -78q-72 2 -113 14.5t-51 50.5l-15 -10t-15.5 -10t-14 -9t-15 -9t-14.5 -7t-15.5 -7l-14.5 -5.5t-16 -4.5t-16 -2t-18 -1q-37 0 -63 12t-39 26.5t-19.5 41t-7.5 41.5t-1 41v83q0 75 -3.5 109t-10.5 43.5t-22 9.5h-31v35h8q5 0 101 8q98 8 103 8v-259 q0 -32 0.5 -48.5t3.5 -35t8.5 -26.5t15.5 -13.5t25 -5.5q36 0 77 27q-7 27 -7 72v76q0 75 -3.5 109t-10.5 43.5t-22 9.5h-31v35h8q5 0 101 8q98 8 103 8v-273q0 -26 1.5 -39t8 -31.5t23 -27t43.5 -9.5z" />
<glyph unicode="v" horiz-adv-x="481" d="M-12 391v35h261v-35h-33q-13 0 -13 -8q0 -6 8.5 -26.5t34 -75l47.5 -105.5q2 5 14.5 30.5l22 45.5t20.5 45.5t17.5 45t6.5 29.5q0 13 -7 16t-25 3h-27v35h169v-35h-20q-14 0 -19 -2.5t-11 -15.5l-41.5 -89.5l-62 -131.5l-72.5 -154q-7 -14 -19 -14q-5 0 -9 2.5t-7.5 8 t-5 8.5t-4.5 10.5t-3 8.5q-24 57 -90 194t-85 162q-7 9 -15 11t-32 2z" />
<glyph unicode="w" horiz-adv-x="759" d="M760 426v-35h-22q-21 0 -25 -12q-48 -109 -178 -370q0 -1 -2 -6t-3.5 -7t-3.5 -5.5t-5 -5t-7 -1.5q-5 0 -9.5 4.5t-7 10t-4.5 12t-3 7.5l-113 239l-113 -238q0 -1 -3.5 -9.5t-6 -12.5t-7 -8.5t-10.5 -4.5q-9 0 -22 30l-151 324q-16 33 -25 43t-21 10h-20v35h244v-35h-27 q-13 0 -13 -8q0 -18 93 -202q36 72 58 126l-14 30q-16 35 -25.5 44.5t-35.5 9.5v35h252v-35h-37q-13 0 -13 -8q0 -9 90 -202l69 149q12 36 12 42q0 13 -6.5 16t-25.5 3h-25v35h166z" />
<glyph unicode="x" horiz-adv-x="519" d="M262 0v35h22q18 0 18 4q0 3 -21 35l-69 94q-88 -96 -88 -126q0 -7 20 -7h43v-35h-187v35q30 0 39 4t26 24l122 140q-112 151 -139 174q-17 14 -43 14v35h268v-35h-22q-24 0 -24 -9q0 -10 75 -104q80 84 80 103q0 10 -22 10h-34v35h173v-35h-17q-4 0 -7 -0.5t-5.5 -0.5 t-5 -1t-4 -1.5t-3.5 -2t-3.5 -2.5t-3.5 -3.5t-3.5 -3.5t-4.5 -4t-4 -5l-112 -119q141 -189 157 -203q11 -10 37 -10v-35h-258z" />
<glyph unicode="y" horiz-adv-x="500" d="M-19 391v35h260v-35h-39q-7 0 -8.5 -1t-1.5 -7q0 -4 18 -41.5l46.5 -95.5t43.5 -91q89 199 89 217q0 14 -5.5 16.5t-26.5 2.5h-40v35h186v-35h-29q-15 0 -24 -18l-274 -599q-82 -24 -120 -24q-17 0 -17 15q0 10 16 18q49 23 94.5 85.5t71.5 131.5l-65 128.5l-50 100 l-34 68t-28 51.5t-20 30q-7 9 -14.5 11t-28.5 2z" />
<glyph unicode="z" horiz-adv-x="463" d="M393 0h-360q-20 0 -20 7q0 3 8.5 13.5l19.5 23.5l11 12q20 25 116.5 127.5l128.5 138.5q-194 -8 -208 -13q-15 -6 -23.5 -19.5t-17.5 -13.5q-15 0 -15 14q0 2 4.5 18l14.5 49.5t19 68.5h357q10 0 10 -6q0 -7 -23 -30l-251 -279q31 4 183 4q16 0 37.5 6.5t29.5 20.5t17 14 q16 0 16 -15q0 -10 -54 -141z" />
<glyph unicode="{" horiz-adv-x="389" d="M141 29v138q0 55 -15.5 82.5t-60.5 41.5q45 14 60.5 41.5t15.5 82.5v138q0 93 40.5 122.5t143.5 29.5v-32q-40 0 -56.5 -28t-16.5 -86v-128q0 -63 -16 -94.5t-65 -44.5v-2q49 -13 65 -44.5t16 -94.5v-128q0 -58 16.5 -86t56.5 -28v-32q-103 0 -143.5 29.5t-40.5 122.5z " />
<glyph unicode="|" horiz-adv-x="222" d="M66 -100v805h91v-805h-91z" />
<glyph unicode="}" horiz-adv-x="389" d="M248 167v-138q0 -93 -40.5 -122.5t-143.5 -29.5v32q40 0 56.5 28t16.5 86v128q0 63 16 94.5t65 44.5v2q-49 13 -65 44.5t-16 94.5v128q0 58 -16.5 86t-56.5 28v32q103 0 143.5 -29.5t40.5 -122.5v-138q0 -55 15.5 -82t60.5 -41v-2q-45 -14 -60.5 -41t-15.5 -82z" />
<glyph unicode="~" d="M468 308l36 -82q-45 -86 -125 -86q-39 0 -111 32l-21.5 9.5t-23 10l-20 8t-20.5 6.5t-17 2q-19 0 -36.5 -12t-27 -24.5t-24.5 -35.5l-36 82q45 86 125 86q39 0 111 -32l21.5 -9.5t23 -10l20 -8t20.5 -6.5t17 -2q19 0 36.5 12t27 24.5t24.5 35.5z" />
<glyph unicode="&#xa1;" horiz-adv-x="296" d="M148 442q31 0 52 -19t21 -50t-21 -50t-52 -19t-52 19t-21 50t21 50t52 19zM137 248h36l47 -456q-87 0 -112 8t-25 46t19.5 186t34.5 216z" />
<glyph unicode="&#xa2;" d="M283 173v331q-36 -17 -52.5 -64.5t-16.5 -97.5t17 -97t52 -72zM318 654v-106q31 0 66.5 -10.5t64 -34.5t28.5 -55q0 -20 -15.5 -32.5t-36.5 -12.5q-39 0 -64.5 30.5t-21.5 69.5q-12 7 -21 7v-356q22 -9 48 -9q54 0 98 30l19 -26q-62 -56 -165 -61v-107h-35v107 q-85 4 -146.5 58t-61.5 168q0 93 57 156.5t151 77.5v106h35z" />
<glyph unicode="&#xa3;" d="M15 -11l-19 35q80 37 105 86t25 132q0 35 -3 89h-85v38h82v29q0 94 41 158q65 98 188 98q49 0 84 -23t35 -50q0 -17 -12.5 -27.5t-29.5 -10.5q-27 0 -51.5 22.5t-28.5 49.5q-9 3 -18 3q-3 0 -10 -2t-19 -10t-22 -20.5t-17.5 -37t-7.5 -55.5q0 -1 7 -124h98v-38h-94 q0 -11 3 -41.5t3 -40.5q0 -59 -30 -100.5t-94 -83.5l2 -2q70 39 135 39q38 0 84 -11q44 -8 56 -8q25 0 43 12t18 32q0 17 -8 24t-16 8t-8 5q0 6 20 15t32 9q19 0 46.5 -20.5t27.5 -63.5q0 -56 -44.5 -89.5t-102.5 -33.5q-17 0 -34.5 2.5t-34 7t-26.5 7.5t-24 8t-15 6 q-77 27 -121 27q-18 0 -34 -2t-35 -9l-27.5 -10t-33.5 -15t-30 -14z" />
<glyph unicode="&#xa4;" d="M99 89l-50 50l51 49q-46 48 -46 129t46 129l-51 49l50 50l51 -49q46 40 128 40t128 -40l51 49l50 -50l-51 -49q46 -48 46 -129t-46 -129l51 -49l-50 -50l-51 49q-46 -40 -128 -40t-128 40zM406 316q0 56 -36.5 95t-91.5 39t-91.5 -39t-36.5 -95q0 -55 37 -93.5t91 -38.5 t91 38.5t37 93.5z" />
<glyph unicode="&#xa5;" d="M155 0v38q39 0 47.5 1.5t8.5 8.5v162h-164v38h164v83h-164v38h144l-86 134q-42 66 -57.5 80t-40.5 14h-22v38h265v-38h-41q-16 0 -16 -6q0 -19 128 -210q128 194 128 205q0 8 -5 9.5t-19 1.5h-49v38h185v-38h-28q-5 0 -9 -0.5t-6.5 -0.5t-5 -1.5t-4 -2t-3 -4t-2.5 -4.5 t-4 -6.5t-4 -8.5l-133 -200h149v-38h-169v-83h169v-38h-169v-76q0 -96 24 -96h54v-38h-265z" />
<glyph unicode="&#xa6;" horiz-adv-x="222" d="M66 -100v322h91v-322h-91zM66 383v322h91v-322h-91z" />
<glyph unicode="&#xa7;" horiz-adv-x="500" d="M236 381q-32 -11 -55 -34t-23 -54q0 -37 26.5 -56t82.5 -37q75 23 75 84q0 40 -21.5 57.5t-84.5 39.5zM406 514h-50q8 16 8 32q0 35 -29 52.5t-66 17.5q-35 0 -64 -17t-29 -49q0 -30 23 -45.5t85 -37.5q8 -3 12 -4q28 -10 37.5 -14t38 -19t42 -29t26 -39.5t12.5 -55.5 q0 -109 -143 -126v-2q33 -12 52 -20t42 -24t34 -39.5t11 -54.5q0 -52 -54.5 -95.5t-161.5 -43.5q-51 0 -88.5 12t-55.5 30.5t-26 35t-8 31.5q0 43 37 50h52q-13 -20 -13 -38q0 -38 30 -60.5t69 -22.5q41 0 73 21.5t32 62.5q0 30 -29.5 50t-71.5 33.5t-84 30t-71.5 51 t-29.5 85.5q0 48 41.5 81.5t100.5 46.5v2q-128 36 -128 120q0 36 19.5 63t51 41t64 20.5t65.5 6.5q89 0 132 -30t43 -67q0 -31 -31 -43z" />
<glyph unicode="&#xa8;" horiz-adv-x="333" d="M98 506q-21 0 -36 15t-15 36t15 36t36 15t36 -15t15 -36t-15 -36t-36 -15zM236 506q-21 0 -36 15t-15 36t15 36t36 15t36 -15t15 -36t-15 -36t-36 -15z" />
<glyph unicode="&#xa9;" horiz-adv-x="800" d="M545 410h-25q-24 78 -88 78q-48 0 -73.5 -42t-25.5 -113q0 -170 99 -170q66 0 103 82h26l-16 -75q-3 -12 -49 -24t-74 -12q-100 0 -155 49t-55 145q0 33 10.5 64t34 60t67 46.5t102.5 17.5q39 0 79 -11t40 -25v-70zM667 317q0 114 -77 193.5t-190 79.5t-190 -79.5 t-77 -193.5t77 -193.5t190 -79.5t190 79.5t77 193.5zM746 317q0 -141 -99.5 -238.5t-246.5 -97.5t-246.5 97.5t-99.5 238.5t99.5 238.5t246.5 97.5t246.5 -97.5t99.5 -238.5z" />
<glyph unicode="&#xaa;" horiz-adv-x="350" d="M184 438v81q-23 -11 -33.5 -17t-19.5 -18.5t-9 -29.5q0 -29 25 -29q16 0 37 13zM286 557v-106q0 -18 15 -27.5t29 -9.5l-29 -48q-49 0 -72 10.5t-36 33.5q-6 -3 -21 -12.5l-25 -15.5t-26.5 -11t-33.5 -5q-29 0 -48 19t-19 48q0 11 3.5 21t8.5 17t16 15t19 13t25 13t27 12 t32 12t33 13v34q0 10 -1 16.5t-9.5 13.5t-25.5 7q-18 0 -28 -6q0 -31 -16.5 -49t-43.5 -18q-11 0 -20 8t-9 18q0 40 57 60.5t112 20.5q32 0 49.5 -4t25.5 -18.5t9.5 -28t1.5 -46.5z" />
<glyph unicode="&#xab;" horiz-adv-x="519" d="M400 427l34 -16q3 -12 3 -23q0 -40 -20.5 -85.5t-49.5 -70.5q29 -25 49.5 -70.5t20.5 -85.5q0 -11 -3 -23l-34 -16q-51 114 -161 195q110 81 161 195zM214 427l34 -16q3 -12 3 -23q0 -40 -20.5 -85.5t-49.5 -70.5q29 -25 49.5 -70.5t20.5 -85.5q0 -11 -3 -23l-34 -16 q-51 114 -161 195q110 81 161 195z" />
<glyph unicode="&#xac;" d="M409 95v173h-353v91h444v-264h-91z" />
<glyph unicode="&#xad;" horiz-adv-x="333" d="M61 278h192q16 0 24.5 1.5t11.5 3t5 1.5q5 0 5 -5q0 -3 -4 -13l-14 -34l-19 -45h-192q-16 0 -24.5 -1.5t-11.5 -3t-5 -1.5q-5 0 -5 5q0 3 4 13l14 34z" />
<glyph unicode="&#xae;" horiz-adv-x="800" d="M581 145h-95q-13 0 -28 23t-36.5 67.5t-36.5 67.5h-26v-102q0 -23 6 -29.5t35 -8.5v-18h-168v21q24 0 28.5 6t4.5 29v247q0 24 -4.5 30t-28.5 6v21h202q47 0 76.5 -23.5t29.5 -70.5q0 -32 -20 -59t-54 -37l25.5 -37l34 -49.5t30.5 -41t25 -29.5v-13zM359 478v-148h27 q53 0 53 78q0 39 -12.5 54.5t-37.5 15.5h-30zM667 317q0 114 -77 193.5t-190 79.5t-190 -79.5t-77 -193.5t77 -193.5t190 -79.5t190 79.5t77 193.5zM746 317q0 -141 -99.5 -238.5t-246.5 -97.5t-246.5 97.5t-99.5 238.5t99.5 238.5t246.5 97.5t246.5 -97.5t99.5 -238.5z" />
<glyph unicode="&#xaf;" horiz-adv-x="333" d="M293 585v-62h-252v62h252z" />
<glyph unicode="&#xb0;" horiz-adv-x="375" d="M188 602q-44 0 -72 -30t-28 -75t28 -75t72 -30t72 30t28 75t-28 75t-72 30zM188 340q-66 0 -111.5 45.5t-45.5 111.5t45.5 111.5t111.5 45.5t111.5 -45.5t45.5 -111.5t-45.5 -111.5t-111.5 -45.5z" />
<glyph unicode="&#xb1;" d="M233 330v115h91v-115h176v-91h-176v-115h-91v115h-177v91h177zM56 0v91h444v-91h-444z" />
<glyph unicode="&#xb2;" horiz-adv-x="328" d="M18 585l-13 21q49 48 136 48q62 0 101 -32.5t39 -100.5q0 -39 -37.5 -77.5t-126.5 -100.5l2 -2l154 6q13 1 25 11t17 10q13 0 13 -8q0 -5 -5.5 -21t-15 -40t-13.5 -37h-273q-21 0 -21 6q0 3 2.5 6t10 9.5t12.5 11.5q98 94 123.5 135.5t25.5 84.5q0 90 -88 90 q-39 0 -68 -20z" />
<glyph unicode="&#xb3;" horiz-adv-x="328" d="M26 578l-13 21q23 26 64 40.5t80 14.5q58 0 92 -23t34 -59q0 -60 -96 -85v-2q56 -3 93.5 -28.5t37.5 -76.5q0 -18 -9.5 -38t-29 -40.5t-58.5 -34t-91 -13.5q-80 0 -130 30l11 27q42 -21 86 -21q43 0 73.5 27t30.5 66q0 31 -28.5 55t-93.5 24v29q93 6 93 64q0 23 -20 36.5 t-46 13.5q-42 0 -80 -27z" />
<glyph unicode="&#xb4;" horiz-adv-x="333" d="M128 487l-30 26q11 18 62 61t66 43q7 0 25 -13t28 -23q-91 -49 -151 -94z" />
<glyph unicode="&#xb5;" horiz-adv-x="574" d="M567 62l-41 -78q-72 2 -113 14.5t-51 50.5q-85 -65 -120 -65q-25 0 -49 6v-45q0 -13 25.5 -50.5t25.5 -54.5q0 -31 -19.5 -53.5t-63.5 -22.5q-28 0 -46 11t-25 32t-9.5 39t-2.5 44v256v83q0 75 -3.5 109t-10.5 43.5t-22 9.5h-31v35h8q5 0 101 8q98 8 103 8v-259 q0 -32 0.5 -48.5t3.5 -35t8.5 -26.5t15.5 -13.5t25 -5.5q36 0 77 27q-7 27 -7 72v76q0 75 -3.5 109t-10.5 43.5t-22 9.5h-31v35h8q5 0 101 8q98 8 103 8v-273q0 -26 1.5 -39t8 -31.5t23 -27t43.5 -9.5z" />
<glyph unicode="&#xb6;" horiz-adv-x="600" d="M186 635h385v-38h-39q-11 0 -14.5 -2.5t-4.5 -16.5v-516q0 -96 24 -96h58v-38h-182v669h-52v-669h-153v38q36 0 44.5 1.5t8.5 8.5v364q-31 -30 -98 -30q-66 0 -112 45.5t-46 111.5q0 78 51 123t130 45zM261 384v213h-21q-116 0 -116 -138q0 -37 16.5 -71t51.5 -34 q39 0 69 30z" />
<glyph unicode="&#xb7;" horiz-adv-x="278" d="M66 222q0 31 21 50t52 19t52 -19t21 -50t-21 -50t-52 -19t-52 19t-21 50z" />
<glyph unicode="&#xb8;" horiz-adv-x="333" d="M167 0h47l-47 -55q0 -2 24 -9q19 -5 30.5 -10t23 -17.5t11.5 -29.5q0 -12 -7.5 -25.5t-34 -27.5t-67.5 -14q-70 0 -70 35q0 21 28 21q23 0 40 -26q1 0 4.5 -0.5t5.5 -0.5q16 0 32 6.5t16 20.5q0 12 -12 18.5t-44 14.5l-18 4l-13.5 3t-8.5 2t-5.5 3t-1.5 6q0 8 11.5 22.5 t31 33.5t24.5 25z" />
<glyph unicode="&#xb9;" horiz-adv-x="328" d="M292 290v-28h-256v28h56q15 0 15 6v197q0 56 -4 83.5t-8 31.5t-12 4h-47v28l184 14v-298q0 -31 3.5 -46.5t7 -17.5t9.5 -2h52z" />
<glyph unicode="&#xba;" horiz-adv-x="350" d="M334 513q0 -65 -47 -105.5t-119 -40.5q-73 0 -112.5 37t-39.5 104q0 65 47 105.5t119 40.5q73 0 112.5 -37t39.5 -104zM163 624q-19 0 -29 -13t-11.5 -25t-1.5 -33q0 -20 2.5 -42t8.5 -50t20 -46t35 -18q19 0 29 13t11.5 25t1.5 33q0 20 -2.5 42t-8.5 50t-20 46t-35 18z " />
<glyph unicode="&#xbb;" horiz-adv-x="519" d="M119 37l-34 16q-3 12 -3 23q0 40 20.5 85.5t49.5 70.5q-29 25 -49.5 70.5t-20.5 85.5q0 11 3 23l34 16q51 -114 161 -195q-110 -81 -161 -195zM305 37l-34 16q-3 12 -3 23q0 40 20.5 85.5t49.5 70.5q-29 25 -49.5 70.5t-20.5 85.5q0 11 3 23l34 16q51 -114 161 -195 q-110 -81 -161 -195z" />
<glyph unicode="&#xbc;" horiz-adv-x="822" d="M672 381v-214q39 0 58 12q6 4 10 4q7 0 7 -7q0 -6 -23 -67h-52v-117q-14 -3 -50.5 -13.5t-43.5 -10.5q-10 0 -10 13q0 2 2.5 29.5t4.5 57.5t1 41h-166v23q29 39 59 71.5t87 87l93 90.5h23zM576 167v103l-90 -103h90zM580 679h51q-225 -341 -328 -695l-77 -20 q96 352 354 715zM292 290v-28h-256v28h56q15 0 15 6v197q0 56 -4 83.5t-8 31.5t-12 4h-47v28l184 14v-298q0 -31 3.5 -46.5t7 -17.5t9.5 -2h52z" />
<glyph unicode="&#xbd;" horiz-adv-x="822" d="M555 679h51q-225 -341 -328 -695l-77 -20q96 352 354 715zM267 290v-28h-256v28h56q15 0 15 6v197q0 56 -4 83.5t-8 31.5t-12 4h-47v28l184 14v-298q0 -31 3.5 -46.5t7 -17.5t9.5 -2h52zM458 323l-13 21q49 48 136 48q62 0 101 -32.5t39 -100.5q0 -39 -37.5 -77.5 t-126.5 -100.5l2 -2l154 6q13 1 25 11t17 10q13 0 13 -8q0 -5 -5.5 -21t-15 -40t-13.5 -37h-273q-21 0 -21 6q0 3 2.5 6t10 9.5t12.5 11.5q98 94 123.5 135.5t25.5 84.5q0 90 -88 90q-39 0 -68 -20z" />
<glyph unicode="&#xbe;" horiz-adv-x="822" d="M682 381v-214q39 0 58 12q6 4 10 4q7 0 7 -7q0 -6 -23 -67h-52v-117q-14 -3 -50.5 -13.5t-43.5 -10.5q-10 0 -10 13q0 2 2.5 29.5t4.5 57.5t1 41h-166v23q29 39 59 71.5t87 87l93 90.5h23zM586 167v103l-90 -103h90zM590 679h51q-225 -341 -328 -695l-77 -20 q96 352 354 715zM36 578l-13 21q23 26 64 40.5t80 14.5q58 0 92 -23t34 -59q0 -60 -96 -85v-2q56 -3 93.5 -28.5t37.5 -76.5q0 -18 -9.5 -38t-29 -40.5t-58.5 -34t-91 -13.5q-80 0 -130 30l11 27q42 -21 86 -21q43 0 73.5 27t30.5 66q0 31 -28.5 55t-93.5 24v29q93 6 93 64 q0 23 -20 36.5t-46 13.5q-42 0 -80 -27z" />
<glyph unicode="&#xbf;" horiz-adv-x="426" d="M319 138l-58 -35q-1 0 -13 -7.5t-16 -10.5l-15 -11.5t-15.5 -16.5l-11.5 -20t-9.5 -27.5t-2.5 -33.5q0 -72 33.5 -107t73.5 -35q23 0 36 8t16.5 17t9 17t15.5 8q14 0 14 -14q0 -3 -24 -68q-64 -29 -130 -29q-85 0 -133.5 46.5t-48.5 107.5q0 30 10.5 54t33.5 43.5 t40 30.5t49 29q34 17 34 26q0 10 -18 41t-26 35q-8 5 -8 11q0 22 98 56q24 -19 42.5 -52t23.5 -63zM228 442q31 0 52 -19t21 -50t-21 -50t-52 -19t-52 19t-21 50t21 50t52 19z" />
<glyph unicode="&#xc0;" horiz-adv-x="648" d="M352 219h-192l-14 -37q-15 -37 -27.5 -74.5t-12.5 -52.5q0 -11 6 -14t20 -3h55v-38h-202v38h27q18 0 23.5 3t8.5 13q12 39 122 298.5t120 277.5q95 19 104 19q14 0 14 -17q0 -8 -11.5 -16t-11.5 -18q0 -7 11 -41t32.5 -91l40.5 -107l46.5 -122l39.5 -104q29 -75 39 -86 q9 -9 25 -9h29v-38h-292v38h41q18 0 18 10q0 5 -59 171zM335 263l-74 200l-84 -200h158zM363 712l-30 -26q-60 45 -151 94q10 10 28 23t25 13q15 0 66 -43t62 -61z" />
<glyph unicode="&#xc1;" horiz-adv-x="648" d="M352 219h-192l-14 -37q-15 -37 -27.5 -74.5t-12.5 -52.5q0 -11 6 -14t20 -3h55v-38h-202v38h27q18 0 23.5 3t8.5 13q12 39 122 298.5t120 277.5q95 19 104 19q14 0 14 -17q0 -8 -11.5 -16t-11.5 -18q0 -7 11 -41t32.5 -91l40.5 -107l46.5 -122l39.5 -104q29 -75 39 -86 q9 -9 25 -9h29v-38h-292v38h41q18 0 18 10q0 5 -59 171zM335 263l-74 200l-84 -200h158zM316 686l-30 26q11 18 62 61t66 43q7 0 25 -13t28 -23q-91 -49 -151 -94z" />
<glyph unicode="&#xc2;" horiz-adv-x="648" d="M352 219h-192l-14 -37q-15 -37 -27.5 -74.5t-12.5 -52.5q0 -11 6 -14t20 -3h55v-38h-202v38h27q18 0 23.5 3t8.5 13q12 39 122 298.5t120 277.5q95 19 104 19q14 0 14 -17q0 -8 -11.5 -16t-11.5 -18q0 -7 11 -41t32.5 -91l40.5 -107l46.5 -122l39.5 -104q29 -75 39 -86 q9 -9 25 -9h29v-38h-292v38h41q18 0 18 10q0 5 -59 171zM335 263l-74 200l-84 -200h158zM163 720q82 14 162 93q80 -79 162 -93q-20 -22 -28 -27.5t-21 -5.5q-55 0 -113 51q-58 -51 -113 -51q-13 0 -21 5.5t-28 27.5z" />
<glyph unicode="&#xc3;" horiz-adv-x="648" d="M352 219h-192l-14 -37q-15 -37 -27.5 -74.5t-12.5 -52.5q0 -11 6 -14t20 -3h55v-38h-202v38h27q18 0 23.5 3t8.5 13q12 39 122 298.5t120 277.5q95 19 104 19q14 0 14 -17q0 -8 -11.5 -16t-11.5 -18q0 -7 11 -41t32.5 -91l40.5 -107l46.5 -122l39.5 -104q29 -75 39 -86 q9 -9 25 -9h29v-38h-292v38h41q18 0 18 10q0 5 -59 171zM335 263l-74 200l-84 -200h158zM444 803l30 -20q-28 -79 -92 -79q-27 0 -60 14q-8 3 -21 9.5t-21 9t-14 2.5q-5 0 -9 -1t-8 -3.5l-6.5 -4t-5.5 -6.5t-4 -6.5t-4.5 -7.5t-4.5 -7l-29 21q8 32 30 54t54 22q19 0 66 -19 q36 -15 55 -15q28 0 44 37z" />
<glyph unicode="&#xc4;" horiz-adv-x="648" d="M352 219h-192l-14 -37q-15 -37 -27.5 -74.5t-12.5 -52.5q0 -11 6 -14t20 -3h55v-38h-202v38h27q18 0 23.5 3t8.5 13q12 39 122 298.5t120 277.5q95 19 104 19q14 0 14 -17q0 -8 -11.5 -16t-11.5 -18q0 -7 11 -41t32.5 -91l40.5 -107l46.5 -122l39.5 -104q29 -75 39 -86 q9 -9 25 -9h29v-38h-292v38h41q18 0 18 10q0 5 -59 171zM335 263l-74 200l-84 -200h158zM256 690q-21 0 -36 15t-15 36t15 36t36 15t36 -15t15 -36t-15 -36t-36 -15zM394 690q-21 0 -36 15t-15 36t15 36t36 15t36 -15t15 -36t-15 -36t-36 -15z" />
<glyph unicode="&#xc5;" horiz-adv-x="648" d="M352 219h-192l-14 -37q-15 -37 -27.5 -74.5t-12.5 -52.5q0 -11 6 -14t20 -3h55v-38h-202v38h27q18 0 23.5 3t8.5 13q12 39 122 298.5t120 277.5q95 19 104 19q14 0 14 -17q0 -8 -11.5 -16t-11.5 -18q0 -7 11 -41t32.5 -91l40.5 -107l46.5 -122l39.5 -104q29 -75 39 -86 q9 -9 25 -9h29v-38h-292v38h41q18 0 18 10q0 5 -59 171zM335 263l-74 200l-84 -200h158zM277 752q0 -20 14 -34t34 -14t34 14t14 34t-14 34t-34 14t-34 -14t-14 -34zM233 752q0 38 27 65t65 27t65 -27t27 -65t-27 -65t-65 -27t-65 27t-27 65z" />
<glyph unicode="&#xc6;" horiz-adv-x="907" d="M254 353h167v128q0 41 -4 67.5t-8.5 34.5t-8.5 8h-2zM43 72l305 519h-82v44h588l-8 -72q0 -3 -0.5 -9.5t-1.5 -11.5t-2.5 -10t-5 -8t-9.5 -3q-17 0 -19 18q-2 26 -29 34q-52 18 -177 18q-8 0 -11.5 -0.5t-6 -4t-2.5 -11.5v-211h55q54 0 80 5.5t31 13t5 23.5v33h34v-178 h-34v18q0 18 -3 25.5t-21.5 13t-59.5 5.5h-87v-125q0 -51 1 -81t4.5 -46.5t8 -21.5t12.5 -5q61 0 102 3t86.5 17.5t59.5 41.5q6 14 18 14q15 0 15 -15t-28 -105h-493v38q36 0 44.5 1.5t8.5 8.5v264h-190q-134 -241 -134 -259q0 -10 7.5 -12.5t41.5 -2.5h30v-38h-208v38h45 q4 0 6.5 1t8.5 9t15 24z" />
<glyph unicode="&#xc7;" horiz-adv-x="685" d="M636 617l-7 -67q0 -1 -0.5 -5t-0.5 -6t-0.5 -5.5t-1 -5t-2 -4t-3.5 -4t-5 -2.5t-6 -1q-14 0 -18 20q-3 18 -14 27q-52 46 -130 46q-85 0 -157 -80t-72 -211q0 -53 12.5 -103t37.5 -94t69 -70.5t100 -26.5q50 0 110 30t70 75q4 20 18 20q16 0 16 -17q0 -6 -1.5 -20.5 l-4 -37.5l-4.5 -43q-94 -46 -228 -51q-31 -35 -31 -36q0 -2 24 -9q19 -5 30.5 -10t23 -17.5t11.5 -29.5q0 -12 -7.5 -25.5t-34 -27.5t-67.5 -14q-70 0 -70 35q0 21 28 21q23 0 40 -26q1 0 4.5 -0.5t5.5 -0.5q16 0 32 6.5t16 20.5q0 12 -12 18.5t-44 14.5l-18 4l-13.5 3 t-8.5 2t-5.5 3t-1.5 6q0 13 50 63q-162 8 -238.5 94.5t-76.5 210.5q0 76 26.5 139.5t68 105t95.5 70t107.5 40.5t105.5 12q89 0 182 -37z" />
<glyph unicode="&#xc8;" horiz-adv-x="593" d="M107 48v488q0 28 -5.5 42.5t-10.5 16.5t-15 2h-46v38h510l-8 -72q0 -3 -0.5 -9.5t-1.5 -11.5t-2.5 -10t-5 -8t-9.5 -3q-17 0 -19 18q-2 26 -29 34q-52 18 -177 18q-8 0 -11.5 -0.5t-6 -4t-2.5 -11.5v-211h55q54 0 80 5.5t31 13t5 23.5v33h34v-178h-34v18q0 18 -3 25.5 t-21.5 13t-59.5 5.5h-87v-125q0 -51 1 -81t4.5 -46.5t8 -21.5t12.5 -5q61 0 102 3t86.5 17.5t59.5 41.5q6 14 18 14q15 0 15 -15t-28 -105h-493v38q36 0 44.5 1.5t8.5 8.5zM380 712l-30 -26q-60 45 -151 94q10 10 28 23t25 13q15 0 66 -43t62 -61z" />
<glyph unicode="&#xc9;" horiz-adv-x="593" d="M107 48v488q0 28 -5.5 42.5t-10.5 16.5t-15 2h-46v38h510l-8 -72q0 -3 -0.5 -9.5t-1.5 -11.5t-2.5 -10t-5 -8t-9.5 -3q-17 0 -19 18q-2 26 -29 34q-52 18 -177 18q-8 0 -11.5 -0.5t-6 -4t-2.5 -11.5v-211h55q54 0 80 5.5t31 13t5 23.5v33h34v-178h-34v18q0 18 -3 25.5 t-21.5 13t-59.5 5.5h-87v-125q0 -51 1 -81t4.5 -46.5t8 -21.5t12.5 -5q61 0 102 3t86.5 17.5t59.5 41.5q6 14 18 14q15 0 15 -15t-28 -105h-493v38q36 0 44.5 1.5t8.5 8.5zM308 686l-30 26q11 18 62 61t66 43q7 0 25 -13t28 -23q-91 -49 -151 -94z" />
<glyph unicode="&#xca;" horiz-adv-x="593" d="M107 48v488q0 28 -5.5 42.5t-10.5 16.5t-15 2h-46v38h510l-8 -72q0 -3 -0.5 -9.5t-1.5 -11.5t-2.5 -10t-5 -8t-9.5 -3q-17 0 -19 18q-2 26 -29 34q-52 18 -177 18q-8 0 -11.5 -0.5t-6 -4t-2.5 -11.5v-211h55q54 0 80 5.5t31 13t5 23.5v33h34v-178h-34v18q0 18 -3 25.5 t-21.5 13t-59.5 5.5h-87v-125q0 -51 1 -81t4.5 -46.5t8 -21.5t12.5 -5q61 0 102 3t86.5 17.5t59.5 41.5q6 14 18 14q15 0 15 -15t-28 -105h-493v38q36 0 44.5 1.5t8.5 8.5zM150 720q82 14 162 93q80 -79 162 -93q-20 -22 -28 -27.5t-21 -5.5q-55 0 -113 51q-58 -51 -113 -51 q-13 0 -21 5.5t-28 27.5z" />
<glyph unicode="&#xcb;" horiz-adv-x="593" d="M107 48v488q0 28 -5.5 42.5t-10.5 16.5t-15 2h-46v38h510l-8 -72q0 -3 -0.5 -9.5t-1.5 -11.5t-2.5 -10t-5 -8t-9.5 -3q-17 0 -19 18q-2 26 -29 34q-52 18 -177 18q-8 0 -11.5 -0.5t-6 -4t-2.5 -11.5v-211h55q54 0 80 5.5t31 13t5 23.5v33h34v-178h-34v18q0 18 -3 25.5 t-21.5 13t-59.5 5.5h-87v-125q0 -51 1 -81t4.5 -46.5t8 -21.5t12.5 -5q61 0 102 3t86.5 17.5t59.5 41.5q6 14 18 14q15 0 15 -15t-28 -105h-493v38q36 0 44.5 1.5t8.5 8.5zM228 690q-21 0 -36 15t-15 36t15 36t36 15t36 -15t15 -36t-15 -36t-36 -15zM366 690q-21 0 -36 15 t-15 36t15 36t36 15t36 -15t15 -36t-15 -36t-36 -15z" />
<glyph unicode="&#xcc;" horiz-adv-x="370" d="M25 597v38h296v-38h-39q-11 0 -14.5 -2.5t-4.5 -16.5v-444q0 -96 24 -96h58v-38h-296v38q36 0 44.5 1.5t8.5 8.5v488q0 28 -5.5 42.5t-10.5 16.5t-15 2h-46zM233 712l-30 -26q-60 45 -151 94q10 10 28 23t25 13q15 0 66 -43t62 -61z" />
<glyph unicode="&#xcd;" horiz-adv-x="370" d="M25 597v38h296v-38h-39q-11 0 -14.5 -2.5t-4.5 -16.5v-444q0 -96 24 -96h58v-38h-296v38q36 0 44.5 1.5t8.5 8.5v488q0 28 -5.5 42.5t-10.5 16.5t-15 2h-46zM167 686l-30 26q11 18 62 61t66 43q7 0 25 -13t28 -23q-91 -49 -151 -94z" />
<glyph unicode="&#xce;" horiz-adv-x="370" d="M25 597v38h296v-38h-39q-11 0 -14.5 -2.5t-4.5 -16.5v-444q0 -96 24 -96h58v-38h-296v38q36 0 44.5 1.5t8.5 8.5v488q0 28 -5.5 42.5t-10.5 16.5t-15 2h-46zM9 720q82 14 162 93q80 -79 162 -93q-20 -22 -28 -27.5t-21 -5.5q-55 0 -113 51q-58 -51 -113 -51 q-13 0 -21 5.5t-28 27.5z" />
<glyph unicode="&#xcf;" horiz-adv-x="370" d="M25 597v38h296v-38h-39q-11 0 -14.5 -2.5t-4.5 -16.5v-444q0 -96 24 -96h58v-38h-296v38q36 0 44.5 1.5t8.5 8.5v488q0 28 -5.5 42.5t-10.5 16.5t-15 2h-46zM107 690q-21 0 -36 15t-15 36t15 36t36 15t36 -15t15 -36t-15 -36t-36 -15zM245 690q-21 0 -36 15t-15 36t15 36 t36 15t36 -15t15 -36t-15 -36t-36 -15z" />
<glyph unicode="&#xd0;" horiz-adv-x="741" d="M107 48v272h-92v44h92v172q0 28 -5.5 42.5t-10.5 16.5t-15 2h-46v38h310q177 0 268.5 -88t91.5 -219q0 -39 -9 -80t-34.5 -86.5t-63.5 -80.5t-102.5 -58t-146.5 -23h-290v38q36 0 44.5 1.5t8.5 8.5zM268 578v-214h133v-44h-133v-122q0 -51 1 -81t4.5 -46.5t8 -21.5 t12.5 -5h32q105 0 155.5 67t50.5 175q0 75 -21 133t-50 89.5t-65.5 51t-61.5 25.5t-44 6q-10 0 -13.5 -0.5t-6 -3.5t-2.5 -9z" />
<glyph unicode="&#xd1;" horiz-adv-x="741" d="M223 635l370 -391v288q0 65 -31 65h-49v38h186v-38h-36q-20 0 -20 -10v-585q0 -13 -12 -13q-10 0 -36 26l-441 473v-385q0 -65 30 -65h49v-38h-186v38h36q21 0 21 10v424q0 35 -8.5 60.5t-19.5 37.5t-27.5 18.5t-24.5 7.5t-18 1v38h217zM500 803l30 -20q-28 -79 -92 -79 q-27 0 -60 14q-8 3 -21 9.5t-21 9t-14 2.5q-5 0 -9 -1t-8 -3.5l-6.5 -4t-5.5 -6.5t-4 -6.5t-4.5 -7.5t-4.5 -7l-29 21q8 32 30 54t54 22q19 0 66 -19q36 -15 55 -15q28 0 44 37z" />
<glyph unicode="&#xd2;" horiz-adv-x="759" d="M367 -19q-146 0 -238.5 85t-92.5 234q0 44 10.5 90t37 94t66 85t102 61t139.5 24q146 0 239 -85t93 -234q0 -44 -11 -90t-37.5 -94t-65.5 -85t-102 -61t-140 -24zM197 389q0 -55 9.5 -112t31 -117.5t65.5 -99t104 -38.5q44 0 76 21t48.5 56t23.5 71t7 76q0 42 -5.5 87 t-20 96.5t-37 91t-61 66t-87.5 26.5q-44 0 -76 -21t-48 -56t-23 -71t-7 -76zM418 712l-30 -26q-60 45 -151 94q10 10 28 23t25 13q15 0 66 -43t62 -61z" />
<glyph unicode="&#xd3;" horiz-adv-x="759" d="M367 -19q-146 0 -238.5 85t-92.5 234q0 44 10.5 90t37 94t66 85t102 61t139.5 24q146 0 239 -85t93 -234q0 -44 -11 -90t-37.5 -94t-65.5 -85t-102 -61t-140 -24zM197 389q0 -55 9.5 -112t31 -117.5t65.5 -99t104 -38.5q44 0 76 21t48.5 56t23.5 71t7 76q0 42 -5.5 87 t-20 96.5t-37 91t-61 66t-87.5 26.5q-44 0 -76 -21t-48 -56t-23 -71t-7 -76zM361 686l-30 26q11 18 62 61t66 43q7 0 25 -13t28 -23q-91 -49 -151 -94z" />
<glyph unicode="&#xd4;" horiz-adv-x="759" d="M367 -19q-146 0 -238.5 85t-92.5 234q0 44 10.5 90t37 94t66 85t102 61t139.5 24q146 0 239 -85t93 -234q0 -44 -11 -90t-37.5 -94t-65.5 -85t-102 -61t-140 -24zM197 389q0 -55 9.5 -112t31 -117.5t65.5 -99t104 -38.5q44 0 76 21t48.5 56t23.5 71t7 76q0 42 -5.5 87 t-20 96.5t-37 91t-61 66t-87.5 26.5q-44 0 -76 -21t-48 -56t-23 -71t-7 -76zM208 720q82 14 162 93q80 -79 162 -93q-20 -22 -28 -27.5t-21 -5.5q-55 0 -113 51q-58 -51 -113 -51q-13 0 -21 5.5t-28 27.5z" />
<glyph unicode="&#xd5;" horiz-adv-x="759" d="M367 -19q-146 0 -238.5 85t-92.5 234q0 44 10.5 90t37 94t66 85t102 61t139.5 24q146 0 239 -85t93 -234q0 -44 -11 -90t-37.5 -94t-65.5 -85t-102 -61t-140 -24zM197 389q0 -55 9.5 -112t31 -117.5t65.5 -99t104 -38.5q44 0 76 21t48.5 56t23.5 71t7 76q0 42 -5.5 87 t-20 96.5t-37 91t-61 66t-87.5 26.5q-44 0 -76 -21t-48 -56t-23 -71t-7 -76zM499 803l30 -20q-28 -79 -92 -79q-27 0 -60 14q-8 3 -21 9.5t-21 9t-14 2.5q-5 0 -9 -1t-8 -3.5l-6.5 -4t-5.5 -6.5t-4 -6.5t-4.5 -7.5t-4.5 -7l-29 21q8 32 30 54t54 22q18 0 66 -19 q36 -15 55 -15q28 0 44 37z" />
<glyph unicode="&#xd6;" horiz-adv-x="759" d="M367 -19q-146 0 -238.5 85t-92.5 234q0 44 10.5 90t37 94t66 85t102 61t139.5 24q146 0 239 -85t93 -234q0 -44 -11 -90t-37.5 -94t-65.5 -85t-102 -61t-140 -24zM197 389q0 -55 9.5 -112t31 -117.5t65.5 -99t104 -38.5q44 0 76 21t48.5 56t23.5 71t7 76q0 42 -5.5 87 t-20 96.5t-37 91t-61 66t-87.5 26.5q-44 0 -76 -21t-48 -56t-23 -71t-7 -76zM311 690q-21 0 -36 15t-15 36t15 36t36 15t36 -15t15 -36t-15 -36t-36 -15zM449 690q-21 0 -36 15t-15 36t15 36t36 15t36 -15t15 -36t-15 -36t-36 -15z" />
<glyph unicode="&#xd7;" d="M279 286l157 158l65 -64l-158 -158l158 -158l-65 -64l-157 158l-158 -158l-65 65l158 158l-158 157l65 64z" />
<glyph unicode="&#xd8;" horiz-adv-x="759" d="M527 631l42 74h48l-51 -91q73 -38 115 -109.5t42 -169.5q0 -44 -11 -90t-37.5 -94t-65.5 -85t-102 -61t-140 -24q-76 0 -142 26l-43 -77h-48l53 95q-71 38 -111 108.5t-40 166.5q0 44 10.5 90t37 94t66 85t102 61t139.5 24q75 0 136 -23zM506 506l-232 -412 q51 -72 133 -72q44 0 76 21t48.5 56t23.5 71t7 76q0 152 -56 260zM249 135l231 412q-51 66 -129 66q-44 0 -76 -21t-48 -56t-23 -71t-7 -76q0 -150 52 -254z" />
<glyph unicode="&#xd9;" horiz-adv-x="722" d="M690 635v-38h-36q-20 0 -20 -10v-350q0 -53 -14 -95t-34 -68t-50.5 -45t-55.5 -28t-57 -14t-46 -5.5t-32 -0.5q-14 0 -28 1t-47.5 6t-61 19t-55.5 35t-44.5 59t-16.5 87v348q0 28 -5.5 42.5t-10.5 16.5t-15 2h-49v38h295v-38h-31q-10 0 -13.5 -0.5t-6.5 -5t-3 -13.5v-355 q0 -189 150 -189q37 0 66.5 9t48 22t32 32.5t20 36t10 37t4 30.5t0.5 22v309q0 65 -31 65h-49v38h186zM430 712l-30 -26q-60 45 -151 94q10 10 28 23t25 13q15 0 66 -43t62 -61z" />
<glyph unicode="&#xda;" horiz-adv-x="722" d="M690 635v-38h-36q-20 0 -20 -10v-350q0 -53 -14 -95t-34 -68t-50.5 -45t-55.5 -28t-57 -14t-46 -5.5t-32 -0.5q-14 0 -28 1t-47.5 6t-61 19t-55.5 35t-44.5 59t-16.5 87v348q0 28 -5.5 42.5t-10.5 16.5t-15 2h-49v38h295v-38h-31q-10 0 -13.5 -0.5t-6.5 -5t-3 -13.5v-355 q0 -189 150 -189q37 0 66.5 9t48 22t32 32.5t20 36t10 37t4 30.5t0.5 22v309q0 65 -31 65h-49v38h186zM363 686l-30 26q11 18 62 61t66 43q7 0 25 -13t28 -23q-91 -49 -151 -94z" />
<glyph unicode="&#xdb;" horiz-adv-x="722" d="M690 635v-38h-36q-20 0 -20 -10v-350q0 -53 -14 -95t-34 -68t-50.5 -45t-55.5 -28t-57 -14t-46 -5.5t-32 -0.5q-14 0 -28 1t-47.5 6t-61 19t-55.5 35t-44.5 59t-16.5 87v348q0 28 -5.5 42.5t-10.5 16.5t-15 2h-49v38h295v-38h-31q-10 0 -13.5 -0.5t-6.5 -5t-3 -13.5v-355 q0 -189 150 -189q37 0 66.5 9t48 22t32 32.5t20 36t10 37t4 30.5t0.5 22v309q0 65 -31 65h-49v38h186zM215 720q82 14 162 93q80 -79 162 -93q-20 -22 -28 -27.5t-21 -5.5q-55 0 -113 51q-58 -51 -113 -51q-13 0 -21 5.5t-28 27.5z" />
<glyph unicode="&#xdc;" horiz-adv-x="722" d="M690 635v-38h-36q-20 0 -20 -10v-350q0 -53 -14 -95t-34 -68t-50.5 -45t-55.5 -28t-57 -14t-46 -5.5t-32 -0.5q-14 0 -28 1t-47.5 6t-61 19t-55.5 35t-44.5 59t-16.5 87v348q0 28 -5.5 42.5t-10.5 16.5t-15 2h-49v38h295v-38h-31q-10 0 -13.5 -0.5t-6.5 -5t-3 -13.5v-355 q0 -189 150 -189q37 0 66.5 9t48 22t32 32.5t20 36t10 37t4 30.5t0.5 22v309q0 65 -31 65h-49v38h186zM303 690q-21 0 -36 15t-15 36t15 36t36 15t36 -15t15 -36t-15 -36t-36 -15zM441 690q-21 0 -36 15t-15 36t15 36t36 15t36 -15t15 -36t-15 -36t-36 -15z" />
<glyph unicode="&#xdd;" horiz-adv-x="574" d="M595 635v-38h-28q-16 0 -21 -2.5t-10 -11.5l-165 -305v-144q0 -96 24 -96h54v-38h-295v38q38 0 47 1.5t9 8.5v218l-123 237q-35 66 -48 80t-38 14h-22v38h301v-38h-41q-16 0 -16 -6q0 -5 10.5 -26l46 -90.5l71.5 -141.5l44 86.5l35 68.5l23.5 46t15.5 34.5t4 17.5 q0 8 -5 9.5t-19 1.5h-49v38h195zM329 686l-30 26q11 18 62 61t66 43q7 0 25 -13t28 -23q-91 -49 -151 -94z" />
<glyph unicode="&#xde;" horiz-adv-x="593" d="M350 38v-38h-296v38q36 0 44.5 1.5t8.5 8.5v488q0 28 -5.5 42.5t-10.5 16.5t-15 2h-46v38h296v-38h-39q-11 0 -14.5 -10.5t-4.5 -61.5h87q62 0 108 -17t69.5 -44.5t34 -56t10.5 -57.5q0 -65 -58 -119t-168 -54q-46 0 -83 12v-55q0 -96 24 -96h58zM268 470v-242 q18 -7 40 -7q49 0 78.5 32t29.5 81q0 58 -34.5 102.5t-90.5 44.5q-13 0 -18 -1.5t-5 -9.5z" />
<glyph unicode="&#xdf;" horiz-adv-x="648" d="M98 45v346h-61v35h61v78q0 98 64 153t173 55q42 0 79.5 -9t70 -28.5t52 -53.5t19.5 -80v-22q-49 2 -88 -20q-44 -25 -44 -71q0 -31 20 -59t48.5 -51.5l57 -48.5t48.5 -59t20 -73q0 -70 -55.5 -111.5t-128.5 -41.5q-92 0 -130 43v-27h-256v35q47 0 49 5q1 2 1 5zM243 577 v-394q0 -72 4 -103.5t10 -38t22 -6.5h18q-14 21 -14 40t12 31t32 12q32 0 50 -28t17 -61q8 -4 23 -4q30 0 48 22.5t18 52.5q0 28 -19.5 54.5t-47.5 49.5t-55.5 48t-47 61t-19.5 78q0 56 32 91.5t88 36.5q7 14 7 40q0 47 -23.5 80t-70.5 32q-84 -1 -84 -94z" />
<glyph unicode="&#xe0;" horiz-adv-x="524" d="M286 94v136q-26 -12 -40.5 -19.5t-31 -20.5t-23.5 -30t-7 -39q0 -49 42 -49q29 0 60 22zM286 273v59q0 64 -60 64q-25 0 -45 -10v-17q0 -39 -27.5 -67t-60.5 -28q-17 0 -30 12t-13 29q0 53 78 90t174 37q45 0 72 -6.5t39 -23t15 -32.5t3 -46v-155q0 -77 9.5 -94t59.5 -28 l-40 -68q-14 -5 -33 -5q-91 0 -129 75q-30 -23 -48.5 -35t-50 -26t-56.5 -14q-46 0 -75 29t-29 75q0 25 11 46.5t26.5 36.5t40 29t43.5 22l44 18q9 3 13 5zM331 513l-30 -26q-60 45 -151 94q10 10 28 23t25 13q15 0 66 -43t62 -61z" />
<glyph unicode="&#xe1;" horiz-adv-x="524" d="M286 94v136q-26 -12 -40.5 -19.5t-31 -20.5t-23.5 -30t-7 -39q0 -49 42 -49q29 0 60 22zM286 273v59q0 64 -60 64q-25 0 -45 -10v-17q0 -39 -27.5 -67t-60.5 -28q-17 0 -30 12t-13 29q0 53 78 90t174 37q45 0 72 -6.5t39 -23t15 -32.5t3 -46v-155q0 -77 9.5 -94t59.5 -28 l-40 -68q-14 -5 -33 -5q-91 0 -129 75q-30 -23 -48.5 -35t-50 -26t-56.5 -14q-46 0 -75 29t-29 75q0 25 11 46.5t26.5 36.5t40 29t43.5 22l44 18q9 3 13 5zM234 487l-30 26q11 18 62 61t66 43q7 0 25 -13t28 -23q-91 -49 -151 -94z" />
<glyph unicode="&#xe2;" horiz-adv-x="524" d="M286 94v136q-26 -12 -40.5 -19.5t-31 -20.5t-23.5 -30t-7 -39q0 -49 42 -49q29 0 60 22zM286 273v59q0 64 -60 64q-25 0 -45 -10v-17q0 -39 -27.5 -67t-60.5 -28q-17 0 -30 12t-13 29q0 53 78 90t174 37q45 0 72 -6.5t39 -23t15 -32.5t3 -46v-155q0 -77 9.5 -94t59.5 -28 l-40 -68q-14 -5 -33 -5q-91 0 -129 75q-30 -23 -48.5 -35t-50 -26t-56.5 -14q-46 0 -75 29t-29 75q0 25 11 46.5t26.5 36.5t40 29t43.5 22l44 18q9 3 13 5zM101 521q82 14 162 93q80 -79 162 -93q-20 -22 -28 -27.5t-21 -5.5q-55 0 -113 51q-58 -51 -113 -51q-13 0 -21 5.5 t-28 27.5z" />
<glyph unicode="&#xe3;" horiz-adv-x="524" d="M286 94v136q-26 -12 -40.5 -19.5t-31 -20.5t-23.5 -30t-7 -39q0 -49 42 -49q29 0 60 22zM286 273v59q0 64 -60 64q-25 0 -45 -10v-17q0 -39 -27.5 -67t-60.5 -28q-17 0 -30 12t-13 29q0 53 78 90t174 37q45 0 72 -6.5t39 -23t15 -32.5t3 -46v-155q0 -77 9.5 -94t59.5 -28 l-40 -68q-14 -5 -33 -5q-91 0 -129 75q-30 -23 -48.5 -35t-50 -26t-56.5 -14q-46 0 -75 29t-29 75q0 25 11 46.5t26.5 36.5t40 29t43.5 22l44 18q9 3 13 5zM362 604l30 -20q-28 -79 -92 -79q-27 0 -60 14q-8 3 -21 9.5t-21 9t-14 2.5q-5 0 -9 -1t-8 -3.5l-6.5 -4t-5.5 -6.5 t-4 -6.5t-4.5 -7.5t-4.5 -7l-29 21q8 32 30 54t54 22q19 0 66 -19q36 -15 55 -15q28 0 44 37z" />
<glyph unicode="&#xe4;" horiz-adv-x="524" d="M286 94v136q-26 -12 -40.5 -19.5t-31 -20.5t-23.5 -30t-7 -39q0 -49 42 -49q29 0 60 22zM286 273v59q0 64 -60 64q-25 0 -45 -10v-17q0 -39 -27.5 -67t-60.5 -28q-17 0 -30 12t-13 29q0 53 78 90t174 37q45 0 72 -6.5t39 -23t15 -32.5t3 -46v-155q0 -77 9.5 -94t59.5 -28 l-40 -68q-14 -5 -33 -5q-91 0 -129 75q-30 -23 -48.5 -35t-50 -26t-56.5 -14q-46 0 -75 29t-29 75q0 25 11 46.5t26.5 36.5t40 29t43.5 22l44 18q9 3 13 5zM184 496q-21 0 -36 15t-15 36t15 36t36 15t36 -15t15 -36t-15 -36t-36 -15zM322 496q-21 0 -36 15t-15 36t15 36 t36 15t36 -15t15 -36t-15 -36t-36 -15z" />
<glyph unicode="&#xe5;" horiz-adv-x="524" d="M286 94v136q-26 -12 -40.5 -19.5t-31 -20.5t-23.5 -30t-7 -39q0 -49 42 -49q29 0 60 22zM286 273v59q0 64 -60 64q-25 0 -45 -10v-17q0 -39 -27.5 -67t-60.5 -28q-17 0 -30 12t-13 29q0 53 78 90t174 37q45 0 72 -6.5t39 -23t15 -32.5t3 -46v-155q0 -77 9.5 -94t59.5 -28 l-40 -68q-14 -5 -33 -5q-91 0 -129 75q-30 -23 -48.5 -35t-50 -26t-56.5 -14q-46 0 -75 29t-29 75q0 25 11 46.5t26.5 36.5t40 29t43.5 22l44 18q9 3 13 5zM225 573q0 -20 14 -34t34 -14t34 14t14 34t-14 34t-34 14t-34 -14t-14 -34zM181 573q0 38 27 65t65 27t65 -27 t27 -65t-27 -65t-65 -27t-65 27t-27 65z" />
<glyph unicode="&#xe6;" horiz-adv-x="724" d="M431 259l130 38q-38 104 -77 104q-53 0 -53 -142zM687 86l17 -29q-39 -34 -95 -53.5t-110 -19.5q-122 0 -175 91q-126 -91 -181 -91q-46 0 -75 29t-29 75q0 25 11 46.5t26.5 36.5t40 29t43.5 22l44 18q9 3 13 5l69 28v59q0 64 -60 64q-25 0 -45 -10v-17q0 -39 -27.5 -67 t-60.5 -28q-17 0 -30 12t-13 29q0 53 78 90t174 37q30 0 57.5 -9t29.5 -33q45 42 112 42q77 0 124.5 -37.5t78.5 -111.5l-271 -70q10 -175 135 -175q64 0 119 38zM286 94v136q-26 -12 -40.5 -19.5t-31 -20.5t-23.5 -30t-7 -39q0 -49 42 -49q29 0 60 22z" />
<glyph unicode="&#xe7;" horiz-adv-x="460" d="M430 70l18 -25q-55 -52 -153 -61l-34 -39q0 -2 24 -9q19 -5 30.5 -10t23 -17.5t11.5 -29.5q0 -12 -7.5 -25.5t-34 -27.5t-67.5 -14q-70 0 -70 35q0 21 28 21q23 0 40 -26q1 0 4.5 -0.5t5.5 -0.5q16 0 32 6.5t16 20.5q0 12 -12 18.5t-44 14.5q-8 2 -17.5 4l-14 3t-8.5 2.5 t-5.5 3.5t-1.5 6q0 12 53 65q-97 7 -151.5 64.5t-54.5 158.5q0 103 67 168.5t170 65.5q54 0 109.5 -24.5t55.5 -71.5q0 -22 -15 -34.5t-37 -12.5q-39 0 -64.5 30t-21.5 67q-10 5 -24 5q-27 0 -46.5 -17t-28.5 -44t-12.5 -52t-3.5 -51q0 -37 7 -70t22.5 -62.5t44.5 -46.5 t68 -17q54 0 98 29z" />
<glyph unicode="&#xe8;" horiz-adv-x="455" d="M431 86l17 -29q-39 -34 -95 -53.5t-110 -19.5q-56 0 -98.5 18.5t-64 43.5t-35 58.5t-16.5 56t-3 42.5q0 101 59.5 170t159.5 69q77 0 124.5 -37.5t78.5 -111.5l-271 -70q10 -175 135 -175q64 0 119 38zM175 259l130 38q-38 104 -77 104q-53 0 -53 -142zM286 513l-30 -26 q-60 45 -151 94q10 10 28 23t25 13q15 0 66 -43t62 -61z" />
<glyph unicode="&#xe9;" horiz-adv-x="455" d="M431 86l17 -29q-39 -34 -95 -53.5t-110 -19.5q-56 0 -98.5 18.5t-64 43.5t-35 58.5t-16.5 56t-3 42.5q0 101 59.5 170t159.5 69q77 0 124.5 -37.5t78.5 -111.5l-271 -70q10 -175 135 -175q64 0 119 38zM175 259l130 38q-38 104 -77 104q-53 0 -53 -142zM219 487l-30 26 q11 18 62 61t66 43q7 0 25 -13t28 -23q-91 -49 -151 -94z" />
<glyph unicode="&#xea;" horiz-adv-x="455" d="M431 86l17 -29q-39 -34 -95 -53.5t-110 -19.5q-56 0 -98.5 18.5t-64 43.5t-35 58.5t-16.5 56t-3 42.5q0 101 59.5 170t159.5 69q77 0 124.5 -37.5t78.5 -111.5l-271 -70q10 -175 135 -175q64 0 119 38zM175 259l130 38q-38 104 -77 104q-53 0 -53 -142zM76 521 q82 14 162 93q80 -79 162 -93q-20 -22 -28 -27.5t-21 -5.5q-55 0 -113 51q-58 -51 -113 -51q-13 0 -21 5.5t-28 27.5z" />
<glyph unicode="&#xeb;" horiz-adv-x="455" d="M431 86l17 -29q-39 -34 -95 -53.5t-110 -19.5q-56 0 -98.5 18.5t-64 43.5t-35 58.5t-16.5 56t-3 42.5q0 101 59.5 170t159.5 69q77 0 124.5 -37.5t78.5 -111.5l-271 -70q10 -175 135 -175q64 0 119 38zM175 259l130 38q-38 104 -77 104q-53 0 -53 -142zM169 496 q-21 0 -36 15t-15 36t15 36t36 15t36 -15t15 -36t-15 -36t-36 -15zM307 496q-21 0 -36 15t-15 36t15 36t36 15t36 -15t15 -36t-15 -36t-36 -15z" />
<glyph unicode="&#xec;" horiz-adv-x="301" d="M295 35v-35h-265v35q47 0 49 5q1 2 1 5v184q0 75 -3.5 109t-10.5 43.5t-22 9.5h-31v35h8q5 0 101 8q98 8 103 8v-259q0 -72 4 -103.5t10 -38t22 -6.5h34zM189 513l-30 -26q-60 45 -151 94q10 10 28 23t25 13q15 0 66 -43t62 -61z" />
<glyph unicode="&#xed;" horiz-adv-x="301" d="M295 35v-35h-265v35q47 0 49 5q1 2 1 5v184q0 75 -3.5 109t-10.5 43.5t-22 9.5h-31v35h8q5 0 101 8q98 8 103 8v-259q0 -72 4 -103.5t10 -38t22 -6.5h34zM112 487l-30 26q11 18 62 61t66 43q7 0 25 -13t28 -23q-91 -49 -151 -94z" />
<glyph unicode="&#xee;" horiz-adv-x="301" d="M295 35v-35h-265v35q47 0 49 5q1 2 1 5v184q0 75 -3.5 109t-10.5 43.5t-22 9.5h-31v35h8q5 0 101 8q98 8 103 8v-259q0 -72 4 -103.5t10 -38t22 -6.5h34zM-41 521q82 14 162 93q80 -79 162 -93q-20 -22 -28 -27.5t-21 -5.5q-55 0 -113 51q-58 -51 -113 -51q-13 0 -21 5.5 t-28 27.5z" />
<glyph unicode="&#xef;" horiz-adv-x="301" d="M295 35v-35h-265v35q47 0 49 5q1 2 1 5v184q0 75 -3.5 109t-10.5 43.5t-22 9.5h-31v35h8q5 0 101 8q98 8 103 8v-259q0 -72 4 -103.5t10 -38t22 -6.5h34zM52 496q-21 0 -36 15t-15 36t15 36t36 15t36 -15t15 -36t-15 -36t-36 -15zM190 496q-21 0 -36 15t-15 36t15 36 t36 15t36 -15t15 -36t-15 -36t-36 -15z" />
<glyph unicode="&#xf0;" horiz-adv-x="537" d="M181 281q1 -35 4.5 -70t14 -81.5t35.5 -75.5t61 -29q29 0 48.5 35.5t19.5 84.5q0 33 -4 69.5t-14 82.5t-33 75t-57 29q-21 0 -36.5 -8.5t-22.5 -19t-11 -29.5t-4.5 -30.5t-0.5 -32.5zM134 516l124 79q-29 39 -68 74l69 43q45 -33 79 -67l106 67l55 -37l-119 -73 q125 -143 125 -318q0 -148 -68.5 -224t-177.5 -76q-106 0 -166.5 57.5t-60.5 164.5q0 105 70 170.5t175 65.5q31 0 62 -15q-2 41 -49 120l-106 -65z" />
<glyph unicode="&#xf1;" horiz-adv-x="574" d="M561 35v-35h-245v35q36 0 38 5q1 2 1 5v185q0 77 -10.5 105t-51.5 28q-40 0 -68 -33v-147q0 -72 4 -103.5t10 -38t22 -6.5h17v-35h-248v35q47 0 49 5q1 2 1 5v184q0 75 -3.5 109t-10.5 43.5t-22 9.5h-31v35h8q5 0 101 8q98 8 103 8v-69q3 2 26.5 19t30.5 20.5l26 13.5 t34.5 13t33.5 3q48 0 86 -33t38 -107v-119q0 -72 4 -103.5t10 -38t22 -6.5h25zM387 604l30 -20q-28 -79 -92 -79q-27 0 -60 14q-8 3 -21 9.5t-21 9t-14 2.5q-5 0 -9 -1t-8 -3.5l-6.5 -4t-5.5 -6.5t-4 -6.5t-4.5 -7.5t-4.5 -7l-29 21q8 32 30 54t54 22q18 0 66 -19 q36 -15 55 -15q28 0 44 37z" />
<glyph unicode="&#xf2;" horiz-adv-x="537" d="M277 442q106 0 167 -57.5t61 -164.5q0 -105 -70.5 -170.5t-175.5 -65.5q-106 0 -166.5 57.5t-60.5 164.5q0 105 70 170.5t175 65.5zM356 145q0 33 -4 69.5t-14 82.5t-33 75t-57 29q-24 0 -38.5 -10.5t-20 -32t-7 -36.5t-1.5 -41q1 -35 4.5 -70t13.5 -81.5t33 -75.5 t56 -29q16 0 28 5t19.5 15.5t12 20.5t6 26t2 26t0.5 27zM317 513l-30 -26q-60 45 -151 94q10 10 28 23t25 13q15 0 66 -43t62 -61z" />
<glyph unicode="&#xf3;" horiz-adv-x="537" d="M277 442q106 0 167 -57.5t61 -164.5q0 -105 -70.5 -170.5t-175.5 -65.5q-106 0 -166.5 57.5t-60.5 164.5q0 105 70 170.5t175 65.5zM356 145q0 33 -4 69.5t-14 82.5t-33 75t-57 29q-24 0 -38.5 -10.5t-20 -32t-7 -36.5t-1.5 -41q1 -35 4.5 -70t13.5 -81.5t33 -75.5 t56 -29q16 0 28 5t19.5 15.5t12 20.5t6 26t2 26t0.5 27zM240 487l-30 26q11 18 62 61t66 43q7 0 25 -13t28 -23q-91 -49 -151 -94z" />
<glyph unicode="&#xf4;" horiz-adv-x="537" d="M277 442q106 0 167 -57.5t61 -164.5q0 -105 -70.5 -170.5t-175.5 -65.5q-106 0 -166.5 57.5t-60.5 164.5q0 105 70 170.5t175 65.5zM356 145q0 33 -4 69.5t-14 82.5t-33 75t-57 29q-24 0 -38.5 -10.5t-20 -32t-7 -36.5t-1.5 -41q1 -35 4.5 -70t13.5 -81.5t33 -75.5 t56 -29q16 0 28 5t19.5 15.5t12 20.5t6 26t2 26t0.5 27zM107 521q82 14 162 93q80 -79 162 -93q-20 -22 -28 -27.5t-21 -5.5q-55 0 -113 51q-58 -51 -113 -51q-13 0 -21 5.5t-28 27.5z" />
<glyph unicode="&#xf5;" horiz-adv-x="537" d="M277 442q106 0 167 -57.5t61 -164.5q0 -105 -70.5 -170.5t-175.5 -65.5q-106 0 -166.5 57.5t-60.5 164.5q0 105 70 170.5t175 65.5zM356 145q0 33 -4 69.5t-14 82.5t-33 75t-57 29q-24 0 -38.5 -10.5t-20 -32t-7 -36.5t-1.5 -41q1 -35 4.5 -70t13.5 -81.5t33 -75.5 t56 -29q16 0 28 5t19.5 15.5t12 20.5t6 26t2 26t0.5 27zM378 604l30 -20q-28 -79 -92 -79q-27 0 -60 14q-8 3 -21 9.5t-21 9t-14 2.5q-5 0 -9 -1t-8 -3.5l-6.5 -4t-5.5 -6.5t-4 -6.5t-4.5 -7.5t-4.5 -7l-29 21q8 32 30 54t54 22q19 0 66 -19q36 -15 55 -15q28 0 44 37z" />
<glyph unicode="&#xf6;" horiz-adv-x="537" d="M277 442q106 0 167 -57.5t61 -164.5q0 -105 -70.5 -170.5t-175.5 -65.5q-106 0 -166.5 57.5t-60.5 164.5q0 105 70 170.5t175 65.5zM356 145q0 33 -4 69.5t-14 82.5t-33 75t-57 29q-24 0 -38.5 -10.5t-20 -32t-7 -36.5t-1.5 -41q1 -35 4.5 -70t13.5 -81.5t33 -75.5 t56 -29q16 0 28 5t19.5 15.5t12 20.5t6 26t2 26t0.5 27zM200 496q-21 0 -36 15t-15 36t15 36t36 15t36 -15t15 -36t-15 -36t-36 -15zM338 496q-21 0 -36 15t-15 36t15 36t36 15t36 -15t15 -36t-15 -36t-36 -15z" />
<glyph unicode="&#xf7;" d="M500 177h-444v91h444v-91zM279 331q-31 0 -52 19t-21 50t21 50t52 19t52 -19t21 -50t-21 -50t-52 -19zM278 114q31 0 52 -19t21 -50t-21 -50t-52 -19t-52 19t-21 50t21 50t52 19z" />
<glyph unicode="&#xf8;" horiz-adv-x="531" d="M197 136l128 199q-27 66 -77 66q-19 0 -32.5 -8t-20.5 -19t-10 -29.5t-3.5 -31.5t-0.5 -32q0 -81 16 -145zM340 290l-129 -198q29 -67 77 -67q16 0 28 5t19.5 15.5t12 20.5t6 26t2 26t0.5 27q0 79 -16 145zM154 4l-36 -55h-42l46 71q-90 55 -90 186q0 105 70 170.5 t175 65.5q61 0 105 -19l35 54h44l-46 -71q90 -56 90 -186q0 -105 -70.5 -170.5t-175.5 -65.5q-64 0 -105 20z" />
<glyph unicode="&#xf9;" horiz-adv-x="574" d="M567 62l-41 -78q-72 2 -113 14.5t-51 50.5l-15 -10t-15.5 -10t-14 -9t-15 -9t-14.5 -7t-15.5 -7l-14.5 -5.5t-16 -4.5t-16 -2t-18 -1q-37 0 -63 12t-39 26.5t-19.5 41t-7.5 41.5t-1 41v83q0 75 -3.5 109t-10.5 43.5t-22 9.5h-31v35h8q5 0 101 8q98 8 103 8v-259 q0 -32 0.5 -48.5t3.5 -35t8.5 -26.5t15.5 -13.5t25 -5.5q36 0 77 27q-7 27 -7 72v76q0 75 -3.5 109t-10.5 43.5t-22 9.5h-31v35h8q5 0 101 8q98 8 103 8v-273q0 -26 1.5 -39t8 -31.5t23 -27t43.5 -9.5zM336 513l-30 -26q-60 45 -151 94q10 10 28 23t25 13q15 0 66 -43 t62 -61z" />
<glyph unicode="&#xfa;" horiz-adv-x="574" d="M567 62l-41 -78q-72 2 -113 14.5t-51 50.5l-15 -10t-15.5 -10t-14 -9t-15 -9t-14.5 -7t-15.5 -7l-14.5 -5.5t-16 -4.5t-16 -2t-18 -1q-37 0 -63 12t-39 26.5t-19.5 41t-7.5 41.5t-1 41v83q0 75 -3.5 109t-10.5 43.5t-22 9.5h-31v35h8q5 0 101 8q98 8 103 8v-259 q0 -32 0.5 -48.5t3.5 -35t8.5 -26.5t15.5 -13.5t25 -5.5q36 0 77 27q-7 27 -7 72v76q0 75 -3.5 109t-10.5 43.5t-22 9.5h-31v35h8q5 0 101 8q98 8 103 8v-273q0 -26 1.5 -39t8 -31.5t23 -27t43.5 -9.5zM249 487l-30 26q11 18 62 61t66 43q7 0 25 -13t28 -23 q-91 -49 -151 -94z" />
<glyph unicode="&#xfb;" horiz-adv-x="574" d="M567 62l-41 -78q-72 2 -113 14.5t-51 50.5l-15 -10t-15.5 -10t-14 -9t-15 -9t-14.5 -7t-15.5 -7l-14.5 -5.5t-16 -4.5t-16 -2t-18 -1q-37 0 -63 12t-39 26.5t-19.5 41t-7.5 41.5t-1 41v83q0 75 -3.5 109t-10.5 43.5t-22 9.5h-31v35h8q5 0 101 8q98 8 103 8v-259 q0 -32 0.5 -48.5t3.5 -35t8.5 -26.5t15.5 -13.5t25 -5.5q36 0 77 27q-7 27 -7 72v76q0 75 -3.5 109t-10.5 43.5t-22 9.5h-31v35h8q5 0 101 8q98 8 103 8v-273q0 -26 1.5 -39t8 -31.5t23 -27t43.5 -9.5zM106 521q82 14 162 93q80 -79 162 -93q-20 -22 -28 -27.5t-21 -5.5 q-55 0 -113 51q-58 -51 -113 -51q-13 0 -21 5.5t-28 27.5z" />
<glyph unicode="&#xfc;" horiz-adv-x="574" d="M567 62l-41 -78q-72 2 -113 14.5t-51 50.5l-15 -10t-15.5 -10t-14 -9t-15 -9t-14.5 -7t-15.5 -7l-14.5 -5.5t-16 -4.5t-16 -2t-18 -1q-37 0 -63 12t-39 26.5t-19.5 41t-7.5 41.5t-1 41v83q0 75 -3.5 109t-10.5 43.5t-22 9.5h-31v35h8q5 0 101 8q98 8 103 8v-259 q0 -32 0.5 -48.5t3.5 -35t8.5 -26.5t15.5 -13.5t25 -5.5q36 0 77 27q-7 27 -7 72v76q0 75 -3.5 109t-10.5 43.5t-22 9.5h-31v35h8q5 0 101 8q98 8 103 8v-273q0 -26 1.5 -39t8 -31.5t23 -27t43.5 -9.5zM209 496q-21 0 -36 15t-15 36t15 36t36 15t36 -15t15 -36t-15 -36 t-36 -15zM347 496q-21 0 -36 15t-15 36t15 36t36 15t36 -15t15 -36t-15 -36t-36 -15z" />
<glyph unicode="&#xfd;" horiz-adv-x="500" d="M-19 391v35h260v-35h-39q-7 0 -8.5 -1t-1.5 -7q0 -4 18 -41.5l46.5 -95.5t43.5 -91q89 199 89 217q0 14 -5.5 16.5t-26.5 2.5h-40v35h186v-35h-29q-15 0 -24 -18l-274 -599q-82 -24 -120 -24q-17 0 -17 15q0 10 16 18q49 23 94.5 85.5t71.5 131.5l-65 128.5l-50 100 l-34 68t-28 51.5t-20 30q-7 9 -14.5 11t-28.5 2zM262 487l-30 26q11 18 62 61t66 43q7 0 25 -13t28 -23q-91 -49 -151 -94z" />
<glyph unicode="&#xfe;" horiz-adv-x="574" d="M229 -2v-56q0 -72 4 -103.5t10 -38t22 -6.5h52v-35h-283v35q47 0 49 5q1 2 1 5v689q0 76 -3.5 109.5t-10 43t-22.5 9.5h-31v35q6 0 25.5 2t28.5 2q15 1 66.5 5t91.5 6v-322q85 59 138 59q41 0 72 -21t48.5 -55.5t26 -72.5t8.5 -77q0 -98 -56.5 -165t-152.5 -67 q-42 0 -84 14zM229 346v-305q29 -16 57 -16q30 0 49 15t26.5 43.5t9.5 49.5t2 53q0 181 -89 181q-31 0 -55 -21z" />
<glyph unicode="&#xff;" horiz-adv-x="500" d="M-19 391v35h260v-35h-39q-7 0 -8.5 -1t-1.5 -7q0 -4 18 -41.5l46.5 -95.5t43.5 -91q89 199 89 217q0 14 -5.5 16.5t-26.5 2.5h-40v35h186v-35h-29q-15 0 -24 -18l-274 -599q-82 -24 -120 -24q-17 0 -17 15q0 10 16 18q49 23 94.5 85.5t71.5 131.5l-65 128.5l-50 100 l-34 68t-28 51.5t-20 30q-7 9 -14.5 11t-28.5 2zM197 496q-21 0 -36 15t-15 36t15 36t36 15t36 -15t15 -36t-15 -36t-36 -15zM335 496q-21 0 -36 15t-15 36t15 36t36 15t36 -15t15 -36t-15 -36t-36 -15z" />
<glyph unicode="&#x152;" horiz-adv-x="1000" d="M649 575v-211h55q54 0 80 5.5t31 13t5 23.5v33h34v-178h-34v18q0 18 -3 25.5t-21.5 13t-59.5 5.5h-87v-125q0 -51 1 -81t4.5 -46.5t8 -21.5t12.5 -5q61 0 102 3t86.5 17.5t59.5 41.5q6 14 18 14q15 0 15 -15t-28 -105h-379q-40 0 -115 -3q-39 -3 -62 -3q-82 0 -144.5 23 t-97 55.5t-55.5 76t-27.5 77t-6.5 65.5q0 108 61.5 187.5t161.5 118t224 38.5h433l-8 -72q0 -3 -0.5 -9.5t-1.5 -11.5t-2.5 -10t-5 -8t-9.5 -3q-18 0 -19 18q-2 26 -29 34q-52 18 -177 18q-8 0 -11.5 -0.5t-6 -4t-2.5 -11.5zM202 320q0 -36 9 -78t30 -90t65 -79.5t105 -31.5 q77 0 77 24v292q0 159 -6 196q-3 20 -10.5 24.5t-28.5 4.5q-111 0 -176 -72t-65 -190z" />
<glyph unicode="&#x153;" horiz-adv-x="778" d="M288 25q16 0 28 5t19.5 15.5t12 20.5t6 26t2 26t0.5 27q0 33 -4 69.5t-14 82.5t-33 75t-57 29q-24 0 -38.5 -10.5t-20 -32t-7 -36.5t-1.5 -41q1 -35 4.5 -70t13.5 -81.5t33 -75.5t56 -29zM501 259l130 38q-38 104 -77 104q-53 0 -53 -142zM759 86l17 -29 q-39 -34 -95 -53.5t-110 -19.5q-100 0 -152 53q-63 -53 -160 -53q-106 0 -166.5 57.5t-60.5 164.5q0 105 70 170.5t175 65.5q104 0 157 -50q27 25 66.5 38t72.5 12q77 -1 124.5 -38.5t78.5 -110.5l-273 -70q4 -75 36 -125t101 -50q64 0 119 38z" />
<glyph unicode="&#x178;" horiz-adv-x="574" d="M595 635v-38h-28q-16 0 -21 -2.5t-10 -11.5l-165 -305v-144q0 -96 24 -96h54v-38h-295v38q38 0 47 1.5t9 8.5v218l-123 237q-35 66 -48 80t-38 14h-22v38h301v-38h-41q-16 0 -16 -6q0 -5 10.5 -26l46 -90.5l71.5 -141.5l44 86.5l35 68.5l23.5 46t15.5 34.5t4 17.5 q0 8 -5 9.5t-19 1.5h-49v38h195zM234 690q-21 0 -36 15t-15 36t15 36t36 15t36 -15t15 -36t-15 -36t-36 -15zM372 690q-21 0 -36 15t-15 36t15 36t36 15t36 -15t15 -36t-15 -36t-36 -15z" />
<glyph unicode="&#x2c6;" horiz-adv-x="333" d="M5 521q82 14 162 93q80 -79 162 -93q-20 -22 -28 -27.5t-21 -5.5q-55 0 -113 51q-58 -51 -113 -51q-13 0 -21 5.5t-28 27.5z" />
<glyph unicode="&#x2dc;" horiz-adv-x="333" d="M256 604l30 -20q-28 -79 -92 -79q-27 0 -60 14q-8 3 -21 9.5t-21 9t-14 2.5q-5 0 -9 -1t-8 -3.5l-6.5 -4t-5.5 -6.5t-4 -6.5t-4.5 -7.5t-4.5 -7l-29 21q8 32 30 54t54 22q19 0 66 -19q36 -15 55 -15q28 0 44 37z" />
<glyph unicode="&#x2000;" horiz-adv-x="422" />
<glyph unicode="&#x2001;" horiz-adv-x="844" />
<glyph unicode="&#x2002;" horiz-adv-x="422" />
<glyph unicode="&#x2003;" horiz-adv-x="844" />
<glyph unicode="&#x2004;" horiz-adv-x="281" />
<glyph unicode="&#x2005;" horiz-adv-x="211" />
<glyph unicode="&#x2006;" horiz-adv-x="140" />
<glyph unicode="&#x2007;" horiz-adv-x="140" />
<glyph unicode="&#x2008;" horiz-adv-x="105" />
<glyph unicode="&#x2009;" horiz-adv-x="168" />
<glyph unicode="&#x200a;" horiz-adv-x="46" />
<glyph unicode="&#x2010;" horiz-adv-x="333" d="M61 278h192q16 0 24.5 1.5t11.5 3t5 1.5q5 0 5 -5q0 -3 -4 -13l-14 -34l-19 -45h-192q-16 0 -24.5 -1.5t-11.5 -3t-5 -1.5q-5 0 -5 5q0 3 4 13l14 34z" />
<glyph unicode="&#x2011;" horiz-adv-x="333" d="M61 278h192q16 0 24.5 1.5t11.5 3t5 1.5q5 0 5 -5q0 -3 -4 -13l-14 -34l-19 -45h-192q-16 0 -24.5 -1.5t-11.5 -3t-5 -1.5q-5 0 -5 5q0 3 4 13l14 34z" />
<glyph unicode="&#x2013;" horiz-adv-x="500" d="M500 187h-500v91h500v-91z" />
<glyph unicode="&#x2014;" horiz-adv-x="1000" d="M1000 187h-1000v91h1000v-91z" />
<glyph unicode="&#x2018;" horiz-adv-x="222" d="M133 654l21 -27q-72 -51 -72 -110q0 -25 19 -28h2q17 5 27 5q27 0 43.5 -17.5t16.5 -44.5q0 -28 -19 -45.5t-47 -17.5q-45 0 -69 37.5t-24 84.5q0 104 102 163z" />
<glyph unicode="&#x2019;" horiz-adv-x="222" d="M89 369l-21 27q72 51 72 110q0 25 -19 28h-2q-17 -5 -27 -5q-27 0 -43.5 17.5t-16.5 44.5q0 28 19 45.5t47 17.5q45 0 69 -37.5t24 -84.5q0 -104 -102 -163z" />
<glyph unicode="&#x201a;" horiz-adv-x="222" d="M89 -175l-21 27q72 51 72 110q0 25 -19 28h-2q-3 -1 -7 -2.5t-6 -1.5t-7 -0.5t-7 -0.5q-27 0 -43.5 17.5t-16.5 44.5q0 28 19 45.5t47 17.5q45 0 69 -37.5t24 -84.5q0 -104 -102 -163z" />
<glyph unicode="&#x201c;" horiz-adv-x="444" d="M345 654l21 -27q-72 -51 -72 -110q0 -25 19 -28h2q17 5 27 5q27 0 43.5 -17.5t16.5 -44.5q0 -28 -19 -45.5t-47 -17.5q-45 0 -69 37.5t-24 84.5q0 104 102 163zM143 654l21 -27q-72 -51 -72 -110q0 -25 19 -28h2q17 5 27 5q27 0 43.5 -17.5t16.5 -44.5q0 -28 -19 -45.5 t-47 -17.5q-45 0 -69 37.5t-24 84.5q0 104 102 163z" />
<glyph unicode="&#x201d;" horiz-adv-x="444" d="M99 369l-21 27q72 51 72 110q0 25 -19 28h-2q-17 -5 -27 -5q-27 0 -43.5 17.5t-16.5 44.5q0 28 19 45.5t47 17.5q45 0 69 -37.5t24 -84.5q0 -104 -102 -163zM301 369l-21 27q72 51 72 110q0 25 -19 28h-2q-17 -5 -27 -5q-27 0 -43.5 17.5t-16.5 44.5q0 28 19 45.5 t47 17.5q45 0 69 -37.5t24 -84.5q0 -104 -102 -163z" />
<glyph unicode="&#x201e;" horiz-adv-x="444" d="M89 -175l-21 27q72 51 72 110q0 25 -19 28h-2q-3 -1 -7 -2.5t-6 -1.5t-7 -0.5t-7 -0.5q-27 0 -43.5 17.5t-16.5 44.5q0 28 19 45.5t47 17.5q45 0 69 -37.5t24 -84.5q0 -104 -102 -163zM311 -175l-21 27q72 51 72 110q0 25 -19 28h-2q-3 -1 -7 -2.5t-6 -1.5t-7 -0.5 t-7 -0.5q-27 0 -43.5 17.5t-16.5 44.5q0 28 19 45.5t47 17.5q45 0 69 -37.5t24 -84.5q0 -104 -102 -163z" />
<glyph unicode="&#x2022;" horiz-adv-x="500" d="M425 318q0 -73 -51 -124t-124 -51t-123.5 50.5t-51.5 124.5q0 73 51 124t124 51t124 -51t51 -124z" />
<glyph unicode="&#x2026;" horiz-adv-x="1000" d="M167 -15q-31 0 -52 19t-21 50t21 50t52 19t52 -19t21 -50t-21 -50t-52 -19zM500 -15q-31 0 -52 19t-21 50t21 50t52 19t52 -19t21 -50t-21 -50t-52 -19zM833 -15q-31 0 -52 19t-21 50t21 50t52 19t52 -19t21 -50t-21 -50t-52 -19z" />
<glyph unicode="&#x202f;" horiz-adv-x="168" />
<glyph unicode="&#x2039;" horiz-adv-x="333" d="M214 427l34 -16q3 -12 3 -23q0 -40 -20.5 -85.5t-49.5 -70.5q29 -25 49.5 -70.5t20.5 -85.5q0 -11 -3 -23l-34 -16q-51 114 -161 195q110 81 161 195z" />
<glyph unicode="&#x203a;" horiz-adv-x="333" d="M85 411l34 16q51 -114 161 -195q-110 -81 -161 -195l-34 16q-3 12 -3 23q0 40 20.5 85.5t49.5 70.5q-29 25 -49.5 70.5t-20.5 85.5q0 11 3 23z" />
<glyph unicode="&#x205f;" horiz-adv-x="211" />
<glyph unicode="&#x20ac;" d="M527 57q-78 -76 -180 -76q-114 0 -178.5 77.5t-70.5 204.5h-66l7 40h58q2 30 6 58h-66l7 40h67q28 110 101 181.5t174 71.5q86 0 135 -39l-5 -68q-2 -34 -21 -34q-9 0 -13 5.5t-6.5 19t-2.5 14.5q-6 19 -36.5 36t-70.5 17q-107 0 -125 -204h206l-7 -40h-201 q-1 -15 -1 -46v-12h191l-7 -40h-182q8 -106 45.5 -166.5t99.5 -60.5q54 0 120 49z" />
<glyph unicode="&#x2122;" horiz-adv-x="1000" d="M252 608v-277q0 -28 7 -35t44 -9v-25h-209v25q37 2 44 9t7 35v277h-45q-50 0 -63 -61h-25v88h373v-88h-25q-13 61 -64 61h-44zM663 262l-134 283h-2v-186q0 -43 8 -56.5t43 -15.5v-25h-134v25q35 2 43 15.5t8 56.5v198q0 19 -24 36t-47 17v25h170l116 -245l124 245h149 v-25q-34 0 -43.5 -9.5t-9.5 -34.5v-235q0 -28 7 -35t44 -9v-25h-209v25q37 2 44 9t7 35v215h-2l-144 -284h-14z" />
</font>
</defs>
</svg>
