<?xml version="1.0" standalone="no"?>
<!DOCTYPE svg PUBLIC "-//W3C//DTD SVG 1.1//EN" "http://www.w3.org/Graphics/SVG/1.1/DTD/svg11.dtd" >
<svg xmlns="http://www.w3.org/2000/svg">
<metadata>
This is a custom SVG webfont generated by Font Squirrel.
Designer    : Frederic W Goudy
Foundry URL : httpwwwadobecomtype
</metadata>
<defs>
<font id="webfontrNte0huw" horiz-adv-x="537" >
<font-face units-per-em="1000" ascent="705" descent="-295" />
<missing-glyph horiz-adv-x="268" />
<glyph unicode=" "  horiz-adv-x="268" />
<glyph unicode="&#x09;" horiz-adv-x="268" />
<glyph unicode="&#xa0;" horiz-adv-x="268" />
<glyph unicode="!" horiz-adv-x="315" d="M166 -13q-26 0 -42 15.5t-16 40.5t16 40.5t42 15.5t42 -15.5t16 -40.5t-16 -40.5t-42 -15.5zM177 170h-32q-4 71 -41 465q76 0 95 -8q15 -7 15 -50q0 -106 -37 -407z" />
<glyph unicode="&#x22;" horiz-adv-x="444" d="M146 654q21 0 30 -18.5t7 -38.5l-19 -228q-4 -31 -18 -31t-18 31l-19 228q-2 20 7 38.5t30 18.5zM298 654q21 0 30 -18.5t7 -38.5l-19 -228q-4 -31 -18 -31t-18 31l-19 228q-2 20 7 38.5t30 18.5z" />
<glyph unicode="#" d="M333 243l34 149h-162l-34 -149h162zM58 392l34 73h82l32 143h48l-32 -143h162l32 143h48l-32 -143h99l-34 -73h-82l-34 -149h99l-34 -73h-82l-33 -143h-48l33 143h-162l-32 -143h-48l32 143h-99l34 73h82l34 149h-99z" />
<glyph unicode="$" d="M276 605v-229l26.5 -9t30 -10.5l27.5 -11t29 -15t24.5 -17.5t23.5 -22.5l16 -26.5t12.5 -34t3.5 -40q0 -74 -55.5 -123.5t-137.5 -63.5v-73h-31v70q-83 0 -134.5 28t-51.5 64q0 13 10 21.5t23 8.5q29 0 49 -23.5t31 -55.5q19 -13 73 -13v254q-89 27 -135 65t-46 111 q0 72 53 118t128 55v72h31v-70q63 2 114.5 -24.5t51.5 -63.5q0 -12 -9 -19.5t-22 -7.5q-27 0 -48.5 22.5t-27.5 50.5q-23 12 -57 12h-2zM245 386v216q-43 -6 -71.5 -34t-28.5 -70q0 -81 98 -111zM276 274v-240q48 9 78 43.5t30 82.5q0 82 -108 114z" />
<glyph unicode="%" horiz-adv-x="778" d="M172 305q-75 0 -114 42.5t-39 118.5q0 89 57.5 138.5t129.5 49.5q75 0 114 -42.5t39 -118.5q0 -89 -57.5 -138.5t-129.5 -49.5zM197 338q44 0 62.5 37t18.5 86q0 27 -4 52t-14 51t-30.5 41.5t-48.5 15.5q-44 0 -62.5 -37t-18.5 -86q0 -27 4 -52t14 -51t30.5 -41.5 t48.5 -15.5zM573 -19q-75 0 -114 42.5t-39 118.5q0 89 57.5 138.5t129.5 49.5q75 0 114 -42.5t39 -118.5q0 -89 -57.5 -138.5t-129.5 -49.5zM598 14q44 0 62.5 37t18.5 86q0 27 -4 52t-14 51t-30.5 41.5t-48.5 15.5q-44 0 -62.5 -37t-18.5 -86q0 -27 4 -52t14 -51 t30.5 -41.5t48.5 -15.5zM578 679h45q-236 -333 -334 -704l-66 -20q26 122 123.5 331t231.5 393z" />
<glyph unicode="&#x26;" horiz-adv-x="889" d="M523 61q-154 127 -291 304q-25 -3 -48.5 -33t-23.5 -89q0 -38 12 -74.5t37.5 -69.5t72.5 -53t109 -20q73 0 132 35zM845 475v-59q0 -19 -17.5 -34t-45.5 -15q-13 0 -30 2.5t-32.5 7t-28 8.5t-22.5 7.5t-11 3.5l-2 -2q56 -51 56 -124q0 -91 -71 -162q65 -52 111 -52 q28 0 65 25l15 -23q-104 -77 -149 -77q-43 0 -128 56q-93 -56 -212 -56q-55 0 -104.5 12t-93 37t-69 69.5t-25.5 103.5q0 71 46 123t116 67q-42 62 -42 107q0 68 56 111t126 43q69 0 112 -27l-12 -67q-3 -16 -15 -16q-11 0 -14 23q-2 17 -27.5 30.5t-58.5 13.5t-57.5 -17 t-24.5 -49q0 -39 52 -110.5t117.5 -136.5t120.5 -114t65 -53q38 38 38 111q0 60 -37 109t-95 49q-25 0 -52 -19l-17 21q34 48 117 48q18 0 79 -10.5t103 -6.5t61 33q4 6 8 15.5t7 14t9 4.5q9 0 11 -5t2 -20z" />
<glyph unicode="'" horiz-adv-x="204" d="M84 369l-19 228q-2 20 7 38.5t30 18.5t30 -18.5t7 -38.5l-19 -228q-4 -31 -18 -31t-18 31z" />
<glyph unicode="(" horiz-adv-x="370" d="M306 712l17 -31q-52 -32 -90.5 -81.5t-57.5 -100.5t-27 -92.5t-8 -74.5q0 -61 9 -122t29.5 -123t60 -112.5t92.5 -75.5l-15 -29q-66 17 -117.5 64t-81 109.5t-44 130t-14.5 134.5q0 104 65.5 224.5t181.5 179.5z" />
<glyph unicode=")" horiz-adv-x="370" d="M64 -130l-17 31q52 32 90.5 81.5t57.5 100.5t27 92.5t8 74.5q0 61 -9 122t-29.5 123t-60 112.5t-92.5 75.5l15 29q66 -17 117.5 -64t81 -109.5t44 -130t14.5 -134.5q0 -104 -65.5 -224.5t-181.5 -179.5z" />
<glyph unicode="*" horiz-adv-x="481" d="M103 581q14 -16 60 -47t60 -31q6 0 6 13q0 53 -38 131q21 7 50 7t50 -7q-38 -78 -38 -131q0 -13 6 -13q14 0 60 31t60 47q30 -41 30 -94q-20 2 -59 2q-86 0 -86 -16q0 -11 46.5 -47.5t63.5 -42.5q-28 -41 -80 -59q-1 18 -21.5 76.5t-31.5 58.5t-31.5 -58.5t-21.5 -76.5 q-52 18 -80 59q17 6 63.5 42.5t46.5 47.5q0 16 -86 16q-39 0 -59 -2q0 53 30 94z" />
<glyph unicode="+" d="M58 177v73h175v176h73v-176h174v-73h-174v-177h-73v177h-175z" />
<glyph unicode="," horiz-adv-x="268" d="M121 -167l-18 20q67 51 67 108q0 27 -20 31q-2 0 -6 -2t-6 -2t-6 -0.5t-7 -0.5q-22 0 -36 13.5t-14 35.5q0 24 15.5 38.5t39.5 14.5q40 0 62.5 -33.5t22.5 -76.5q0 -91 -94 -146z" />
<glyph unicode="-" horiz-adv-x="276" d="M40 260h111q81 0 105 4q8 3 13 3q4 0 4 -4q0 -3 -3 -9l-31 -67h-113q-93 0 -107 -6q-7 -3 -12 -3q-4 0 -4 4q0 2 1 5.5t3 7t2 4.5z" />
<glyph unicode="." horiz-adv-x="268" d="M134 -13q-26 0 -42 15.5t-16 40.5t16 40.5t42 15.5t42 -15.5t16 -40.5t-16 -40.5t-42 -15.5z" />
<glyph unicode="/" horiz-adv-x="278" d="M311 654l-266 -673h-78l266 673h78z" />
<glyph unicode="0" d="M251 -19q-99 1 -153 91t-54 222q0 152 71.5 256t171.5 104q99 0 153 -90t54 -223q0 -169 -69.5 -265t-173.5 -95zM249 608q-32 0 -54 -24t-32.5 -62t-14.5 -70.5t-4 -63.5q0 -45 6 -99.5t20 -118.5t45 -106t73 -42q32 0 54.5 24t32.5 62t14.5 70.5t4.5 63.5q0 45 -6 99.5 t-20.5 118.5t-45.5 106t-73 42z" />
<glyph unicode="1" d="M102 601l-2 32q87 5 225 21v-485q0 -67 3.5 -95t10.5 -34.5t25 -6.5h79v-33h-344v33h99q15 0 15 16v384q0 147 -18 161q-9 7 -47 7h-46z" />
<glyph unicode="2" d="M447 0h-403q-16 0 -16 7q0 9 22 31l62 62q112 112 156 186.5t44 154.5q0 68 -35.5 110.5t-101.5 42.5q-70 0 -121 -39l-17 23q78 76 189 76q88 0 141.5 -51t53.5 -139q0 -25 -5 -49t-10 -41.5t-20.5 -40.5t-22 -34t-30 -35t-29 -30t-34.5 -32.5t-33 -30.5l-86 -80l180 5 q73 2 98 6t31 14q11 16 19 16q11 0 11 -12q0 -10 -23 -70z" />
<glyph unicode="3" d="M172 343v33q64 0 108 30.5t44 88.5q0 47 -33 73t-82 26q-77 0 -138 -53l-18 23q35 42 92.5 66t114.5 24q69 0 121 -34t52 -99q0 -100 -129 -148v-3q80 -6 131 -48.5t51 -120.5q0 -92 -79.5 -156t-193.5 -64q-109 0 -179 46l14 33q76 -38 132 -38q78 0 134 50t56 128 q0 39 -15 67.5t-34 42.5t-44.5 22t-39 9.5t-24.5 1.5h-41z" />
<glyph unicode="4" d="M389 654v-354q38 0 61 4t29 9l10.5 9t10.5 4q9 0 9 -10q0 -6 -31 -86h-89v-225q-75 -34 -87 -34q-13 0 -13 16q0 3 2.5 36.5t4.5 90t2 116.5h-278v19q99 135 352 405h17zM298 300v226q-124 -127 -192 -226h192z" />
<glyph unicode="5" d="M155 570l-36 -146q79 9 104 9q48 0 91.5 -11t81 -33t59.5 -61.5t22 -91.5q0 -114 -89.5 -184.5t-206.5 -70.5q-74 0 -135 29l10 30q58 -18 95 -18q88 0 149 59.5t61 146.5q0 82 -53.5 120t-138.5 38q-19 0 -39 -2t-33 -4t-15 -2q-7 0 -7 8q0 6 59 249q49 -12 91 -20 q39 -6 77 -6q115 0 129 26q5 10 14 10q12 0 12 -13q0 -18 -15 -78q-26 -30 -103 -30q-92 0 -184 46z" />
<glyph unicode="6" d="M461 654v-32q-121 0 -203 -70.5t-94 -186.5q90 72 153 72q83 0 131.5 -65t48.5 -151q0 -99 -64 -169.5t-162 -70.5q-76 0 -127.5 39t-72.5 98t-21 135q0 179 115 290t296 111zM159 324v-46q0 -39 5.5 -78.5t18.5 -84.5t41 -73t68 -28q39 0 64 27t33 60.5t8 71.5 q0 47 -11.5 89t-44 75t-80.5 33q-49 0 -102 -46z" />
<glyph unicode="7" d="M175 537q-61 0 -82.5 5.5t-21.5 19.5q0 23 17 87q42 -15 86 -21q45 -6 89 -6q141 0 219 28q12 4 14 4q6 0 6 -6q0 -4 -9 -16q-88 -128 -157.5 -312.5t-68.5 -321.5q0 -10 -0.5 -14.5t-4 -8.5t-11.5 -4q-19 0 -89 32q53 278 251 566q-119 -32 -238 -32z" />
<glyph unicode="8" d="M258 290l-53 17q-76 -24 -76 -130q0 -67 40.5 -115t106.5 -48q56 0 90.5 35.5t34.5 92.5q0 25 -3.5 41t-16.5 36.5t-43.5 37.5t-79.5 33zM262 394l52 -16q66 39 66 108q0 58 -34.5 96.5t-91.5 38.5q-47 0 -79.5 -31t-32.5 -78q0 -81 120 -118zM34 165q0 113 130 160 q-50 21 -80 59.5t-30 89.5q0 68 60 124t160 56q78 0 136 -40t58 -115q0 -100 -117 -138v-2q70 -28 107.5 -69t37.5 -107q0 -93 -74.5 -147.5t-169.5 -54.5q-91 0 -154.5 47.5t-63.5 136.5z" />
<glyph unicode="9" d="M76 -19v32q121 0 203 70.5t94 186.5q-90 -72 -153 -72q-83 0 -131.5 65t-48.5 151q0 99 64 169.5t162 70.5q76 0 127.5 -39t72.5 -98t21 -135q0 -179 -115 -290t-296 -111zM378 311v46q0 39 -5.5 78.5t-18.5 84.5t-41 73t-68 28q-39 0 -64 -27t-33 -60.5t-8 -71.5 q0 -47 11.5 -89t44 -75t80.5 -33q49 0 102 46z" />
<glyph unicode=":" horiz-adv-x="268" d="M134 330q-26 0 -42 15.5t-16 40.5t16 40.5t42 15.5t42 -15.5t16 -40.5t-16 -40.5t-42 -15.5zM134 -13q-26 0 -42 15.5t-16 40.5t16 40.5t42 15.5t42 -15.5t16 -40.5t-16 -40.5t-42 -15.5z" />
<glyph unicode=";" horiz-adv-x="268" d="M121 -167l-18 20q67 51 67 108q0 27 -20 31q-2 0 -6 -2t-6 -2t-6 -0.5t-7 -0.5q-22 0 -36 13.5t-14 35.5q0 24 15.5 38.5t39.5 14.5q40 0 62.5 -33.5t22.5 -76.5q0 -91 -94 -146zM134 330q-26 0 -42 15.5t-16 40.5t16 40.5t42 15.5t42 -15.5t16 -40.5t-16 -40.5 t-42 -15.5z" />
<glyph unicode="&#x3c;" d="M470 430v-74l-327 -143l327 -143v-74l-422 185v64z" />
<glyph unicode="=" d="M58 262v73h422v-73h-422zM58 92v73h422v-73h-422z" />
<glyph unicode="&#x3e;" d="M68 356v74l422 -185v-64l-422 -185v74l327 143z" />
<glyph unicode="?" horiz-adv-x="407" d="M99 279q11 10 40.5 30.5t49.5 37t37 48.5t17 72q0 56 -34 91.5t-90 35.5q-46 0 -59 -26q-6 -13 -15 -13q-13 0 -13 10q0 5 27 66q51 23 105 23q81 0 130 -45t49 -107q0 -53 -26 -86.5t-85 -76.5q-4 -3 -13 -9t-13.5 -9.5l-10 -8t-8 -8t-2.5 -6.5q0 -13 33 -61 q6 -10 14 -13t8 -8q0 -6 -26 -22.5t-51 -27.5q-47 43 -64 113zM174 -13q-26 0 -42 15.5t-16 40.5t16 40.5t42 15.5t42 -15.5t16 -40.5t-16 -40.5t-42 -15.5z" />
<glyph unicode="@" horiz-adv-x="800" d="M208 276q0 97 73.5 182.5t187.5 85.5q6 0 23 -1t23 -1q22 -1 31.5 8t16.5 10q10 0 10 -7q0 -3 -10.5 -47.5t-20.5 -104t-10 -99.5q0 -58 10.5 -78t31.5 -20q45 0 86 59t41 163q0 32 -5 61.5t-21 63.5t-41.5 58.5t-71.5 41t-106 16.5q-45 0 -92 -13.5t-92.5 -42.5 t-81 -69.5t-57.5 -98t-22 -124.5q0 -29 4 -58t23 -72.5t51 -75t94.5 -55t147.5 -23.5q73 0 126 15.5t97 42.5l43 27l14 -33q-149 -103 -294 -103q-93 0 -167.5 29.5t-119 78t-68 105t-23.5 114.5q0 171 123.5 286t293.5 115q81 0 143.5 -24.5t99.5 -66t55.5 -91t18.5 -103.5 q0 -104 -73 -190t-189 -86q-42 0 -51.5 27.5t-9.5 120.5l-2 2q-69 -141 -152 -141q-45 0 -66.5 34t-21.5 82zM481 517h-18q-49 0 -87 -37.5t-56 -87.5t-18 -97q0 -73 39 -73q26 0 57 40.5t55.5 111t27.5 143.5z" />
<glyph unicode="A" horiz-adv-x="667" d="M401 230h-213q-56 -147 -56 -175q0 -22 28 -22h57v-33h-203v33h32q19 0 26 18q13 34 248 587q68 16 80 16q10 0 10 -13q0 -5 -10 -14t-10 -20q0 -10 11.5 -47t32.5 -96l40 -111l45.5 -123.5l37.5 -102.5q23 -62 35 -78t37 -16h24v-33h-252v33h45q14 0 17 4.5t-2 19.5z M385 269l-82 238q-35 -74 -99 -238h181z" />
<glyph unicode="B" horiz-adv-x="593" d="M234 340v-139q0 -125 8 -144q14 -17 42 -18q78 0 116.5 37.5t38.5 100.5q0 28 -9.5 55t-30 52t-58 40.5t-88.5 15.5h-19zM35 602v33h294q31 0 60 -5.5t60.5 -20t51 -45.5t19.5 -75q0 -50 -38 -82.5t-94 -49.5v-2q70 -14 118.5 -58.5t48.5 -111.5q0 -48 -22 -84.5t-52 -55 t-70 -29.5t-66 -13.5t-50 -2.5h-237v33h45q15 0 15 16v417q0 67 -3.5 94.5t-10 34.5t-24.5 7h-45zM234 373q78 0 114 -7q32 12 49.5 40.5t17.5 63.5q0 52 -34 89t-107 37q-29 0 -34.5 -1.5t-5.5 -11.5v-210z" />
<glyph unicode="C" horiz-adv-x="704" d="M622 619l-4.5 -52t-4.5 -26t-5 -10.5t-8 -1.5q-4 0 -6.5 2.5t-4 6.5t-4.5 16q-5 22 -50 40.5t-91 18.5q-122 0 -195 -86.5t-73 -214.5q0 -119 66.5 -204.5t180.5 -85.5q32 0 71 10t74.5 34t41.5 55q4 18 15 18q13 0 13 -11q0 -3 -1 -12t-3 -32.5t-4 -51.5 q-105 -51 -237 -51q-155 0 -247 80t-92 232q0 107 56 190.5t146 127t196 43.5q80 0 170 -35z" />
<glyph unicode="D" horiz-adv-x="722" d="M58 0v33h45q15 0 15 16v417q0 67 -3.5 94.5t-10 34.5t-24.5 7h-45v33h307q161 0 248 -88.5t87 -214.5q0 -43 -9.5 -86t-34.5 -88t-63 -79.5t-99.5 -56.5t-138.5 -22h-274zM552 290q0 144 -76.5 225t-189.5 81q-36 0 -44 -2t-8 -12v-327q0 -179 11 -203q7 -13 27 -13 q124 -2 202 65t78 186z" />
<glyph unicode="E" horiz-adv-x="593" d="M58 0v33h45q15 0 15 16v417q0 67 -3.5 94.5t-10 34.5t-24.5 7h-45v33h490q-8 -73 -11.5 -87.5t-10.5 -14.5q-9 0 -12 5t-4 17q-1 9 -18 18t-57 16t-93 7h-72q-13 0 -13 -13v-219h93q52 0 76 5t29 12t5 24v35h30v-176h-30v36q0 10 -5 15t-29.5 9t-75.5 4h-93v-73 q0 -179 11 -203q7 -13 27 -13h35q190 0 221 55q7 13 15 13q11 0 11 -12q0 -7 -26 -95h-470z" />
<glyph unicode="F" horiz-adv-x="574" d="M317 0h-259v33h45q15 0 15 16v417q0 67 -3.5 94.5t-10 34.5t-24.5 7h-45v33h490q-8 -73 -11.5 -87.5t-10.5 -14.5q-9 0 -12 5t-4 17q-1 9 -18 18t-57 16t-93 7h-72q-13 0 -13 -13v-219h93q52 0 76 5t29 12t5 24v35h30v-176h-30v36q0 10 -5 15t-29.5 9t-75.5 4h-93v-159 q0 -67 3.5 -94.5t10 -34.5t24.5 -7h45v-33z" />
<glyph unicode="G" horiz-adv-x="741" d="M432 261v33h264v-33h-44q-9 0 -13 -3t-3 -11v-140q0 -28 7 -39.5t7 -14.5q0 -7 -4.5 -12t-37 -17t-95.5 -26q-73 -17 -134 -17q-150 0 -237.5 86.5t-87.5 235.5q0 109 57.5 190.5t147 121t196.5 39.5q111 0 187 -36q-8 -57 -13 -74.5t-13 -17.5q-15 0 -15 22 q0 11 -17 25.5t-56 27t-88 12.5q-13 0 -30 -2t-44 -9.5t-52 -19.5t-52 -34.5t-47 -52.5t-32.5 -76t-12.5 -101q0 -118 64 -207t182 -89q61 0 108 23v80q0 67 -3.5 94.5t-10 34.5t-24.5 7h-54z" />
<glyph unicode="H" horiz-adv-x="722" d="M502 325h-282v-156q0 -67 3.5 -94.5t10 -34.5t24.5 -7h45v-33h-259v33h45q15 0 15 16v417q0 67 -3.5 94.5t-10 34.5t-24.5 7h-45v33h259v-33h-45q-15 0 -15 -16v-222h282v102q0 67 -3.5 94.5t-10 34.5t-24.5 7h-45v33h259v-33h-45q-15 0 -15 -16v-417q0 -67 3.5 -94.5 t10 -34.5t24.5 -7h45v-33h-259v33h45q15 0 15 16v276z" />
<glyph unicode="I" horiz-adv-x="352" d="M234 586v-417q0 -67 3.5 -94.5t10 -34.5t24.5 -7h45v-33h-259v33h45q15 0 15 16v417q0 67 -3.5 94.5t-10 34.5t-24.5 7h-45v33h259v-33h-45q-15 0 -15 -16z" />
<glyph unicode="J" horiz-adv-x="352" d="M42 635h259v-33h-45q-15 0 -15 -16v-569q0 -99 -67.5 -152.5t-170.5 -53.5q-54 0 -94 12l-4 23l-5 28.5t-2 14.5q0 19 13 19q11 0 17 -17q6 -19 28.5 -29t44.5 -10q12 0 24 2t31.5 12t33.5 27.5t24.5 53t10.5 83.5v436q0 67 -3.5 94.5t-10 34.5t-24.5 7h-45v33z" />
<glyph unicode="K" horiz-adv-x="667" d="M234 244v-75q0 -67 3.5 -94.5t10 -34.5t24.5 -7h45v-33h-259v33h45q15 0 15 16v417q0 67 -3.5 94.5t-10 34.5t-24.5 7h-45v33h259v-33h-45q-15 0 -15 -16v-290q127 122 232 236q11 11 28.5 32.5t17.5 27.5q0 10 -19 10h-65v33h216v-33q-30 0 -41 -4.5t-35 -29.5 q-73 -76 -204 -200l94 -119l104.5 -132.5t49.5 -58.5q16 -16 28.5 -20.5t43.5 -4.5v-33h-134q-30 0 -42.5 8.5t-44.5 50.5l-174 234z" />
<glyph unicode="L" horiz-adv-x="574" d="M234 586v-331q0 -179 11 -203q7 -13 27 -13h35q190 0 221 55q7 13 15 13q11 0 11 -12q0 -7 -26 -95h-470v33h45q15 0 15 16v417q0 67 -3.5 94.5t-10 34.5t-24.5 7h-45v33h258v-33h-45q-16 0 -14 -16z" />
<glyph unicode="M" horiz-adv-x="852" d="M216 635l213 -454l195 454h170v-33h-45q-15 0 -15 -16v-417q0 -67 3.5 -94.5t10 -34.5t24.5 -7h45v-33h-259v33h45q15 0 15 16v474h-2l-216 -500q-7 -17 -12 -17t-12 17l-219 482h-2v-264q0 -127 7 -175q4 -22 11 -27.5t28 -5.5h40v-33h-187v33h28h16.5t8.5 1.5t5 4 t1 7.5v422q0 74 -11 104t-50 30h-27v33h191z" />
<glyph unicode="N" horiz-adv-x="741" d="M198 635l399 -453v212q0 127 -7 175q-4 22 -11 27.5t-28 5.5h-40v33h187v-33h-28h-16.5t-8.5 -1.5t-5 -4t-1 -7.5v-587q0 -12 -10 -12q-7 0 -30 26l-442 502v-277q0 -127 7 -175q4 -22 11 -27.5t28 -5.5h40v-33h-187v33h28h16.5t8.5 1.5t5 4t1 7.5v455q0 44 -16.5 72.5 t-44.5 28.5h-29v33h173z" />
<glyph unicode="O" horiz-adv-x="741" d="M361 -19q-146 0 -234 87.5t-88 232.5q0 151 95 252t247 101q146 0 234 -87.5t88 -232.5q0 -151 -95 -252t-247 -101zM390 17q16 0 33 2.5t49 17t55.5 40t41.5 78.5t18 125q0 92 -23 161t-60.5 105.5t-75.5 54t-76 17.5q-16 0 -33 -2.5t-49 -17t-55.5 -40t-41.5 -78.5 t-18 -125q0 -92 23 -161t60.5 -105.5t75.5 -54t76 -17.5z" />
<glyph unicode="P" horiz-adv-x="556" d="M234 300v-131q0 -67 3.5 -94.5t10 -34.5t24.5 -7h45v-33h-259v33h45q15 0 15 16v417q0 67 -3.5 94.5t-10 34.5t-24.5 7h-45v33h288q64 0 110 -16.5t68.5 -44.5t32 -55.5t9.5 -56.5q0 -76 -65 -125.5t-156 -49.5q-46 0 -88 13zM234 583v-249q24 -11 61 -11q58 0 95 34 t37 92q0 23 -7.5 46.5t-24 47t-48 38.5t-73.5 15h-27q-13 0 -13 -13z" />
<glyph unicode="Q" horiz-adv-x="741" d="M430 47l22 -21q135 52 135 254q0 92 -23 161t-60.5 105.5t-75.5 54t-76 17.5q-16 0 -33 -2.5t-49 -17t-55.5 -40t-41.5 -78.5t-18 -125q0 -77 18 -143.5t67 -122t123 -69.5q37 5 67 27zM736 -110l12 -26q-104 -51 -170 -51q-25 0 -52.5 13t-61 43t-48.5 45.5t-49 53.5 q-8 9 -12 13h-1q-143 0 -229 87.5t-86 232.5q0 151 95 252t247 101q146 0 234 -87.5t88 -232.5q0 -118 -59 -206.5t-164 -128.5q37 -36 62 -58t64.5 -45t70.5 -23q21 0 59 17z" />
<glyph unicode="R" horiz-adv-x="630" d="M234 583v-261h36q66 0 109 31t43 94q0 33 -10.5 60.5t-26.5 43.5t-35 26.5t-33.5 14.5t-25.5 4h-44q-13 0 -13 -13zM317 0h-259v33h45q15 0 15 16v417q0 67 -3.5 94.5t-10 34.5t-24.5 7h-45v33h293q100 0 155 -52t55 -120q0 -64 -39.5 -104.5t-103.5 -49.5l34.5 -53 l31 -47l24 -36l22 -33t18.5 -25.5l19 -24.5t17 -20q22 -24 34 -30.5t39 -6.5v-33h-114q-40 0 -50 8q-22 18 -72 98t-102 183h-62v-120q0 -67 3.5 -94.5t10 -34.5t24.5 -7h45v-33z" />
<glyph unicode="S" d="M390 148q0 34 -18 59t-46.5 39.5t-63.5 27t-70 27.5t-63.5 34.5t-46.5 54t-18 80.5q0 58 37 101t90 63t111 20q74 0 123 -19q0 -12 2.5 -43t2.5 -39q0 -14 -14 -14q-10 0 -14 17q-6 29 -42.5 43t-71.5 14q-53 0 -93 -28t-40 -79q0 -32 18 -55t46.5 -36.5t63.5 -26t70 -28 t63.5 -36.5t46.5 -57.5t18 -85.5q0 -14 -4.5 -34t-20.5 -50.5t-41.5 -55t-74.5 -42.5t-112 -18q-85 0 -164 29q-4 23 -8.5 45.5l-6.5 33t-2 15.5q0 17 15 17q11 0 17 -20q13 -38 61 -58.5t94 -20.5q63 0 109.5 33t46.5 93z" />
<glyph unicode="T" horiz-adv-x="630" d="M478 33v-33h-311v33h75q15 0 15 16v547h-19q-154 0 -180 -52q-10 -19 -19 -19q-13 0 -13 12q0 2 2.5 9.5l11 32.5t17.5 56h516q9 -31 17.5 -56l11 -32.5t2.5 -9.5q0 -12 -13 -12q-9 0 -19 19q-26 52 -180 52h-19v-427q0 -67 3.5 -94.5t10 -34.5t24.5 -7h67z" />
<glyph unicode="U" horiz-adv-x="722" d="M290 635v-33h-45q-15 0 -15 -16v-336q0 -31 1.5 -54t11 -57.5t26.5 -56.5t50.5 -38.5t79.5 -16.5q19 0 37.5 2.5t48.5 14.5t51.5 32.5t38 62.5t16.5 99v156q0 127 -7 175q-4 22 -11 27.5t-28 5.5h-40v33h187v-33h-28h-16.5t-8.5 -1.5t-5 -4t-1 -7.5v-354 q0 -66 -22.5 -116.5t-60.5 -79.5t-83 -43.5t-95 -14.5q-73 0 -125.5 18.5t-80.5 51t-40 69t-12 80.5v266q0 67 -3.5 94.5t-10 34.5t-24.5 7h-45v33h259z" />
<glyph unicode="V" horiz-adv-x="667" d="M653 635v-33h-46q-5 0 -7.5 -3.5t-9.5 -21.5l-238 -583q-8 -17 -15 -17t-12 11l-209 495q-33 78 -47 98.5t-33 20.5h-32v33h247v-33h-42q-17 0 -17 -7l39 -91l145 -341l119 284q44 106 44 140q0 15 -24 15h-53v33h191z" />
<glyph unicode="W" horiz-adv-x="981" d="M982 635v-33h-30q-12 0 -17 -5.5t-13 -25.5l-219 -570q-8 -20 -17 -20q-8 0 -18 25l-171 421l-154 -414q-1 -3 -3 -8l-3 -7.5t-2 -5.5t-2.5 -4.5t-2.5 -3.5t-3 -2.5t-4 -0.5q-6 0 -9.5 5t-8.5 18l-198 495q-29 72 -40 87.5t-29 15.5h-32v33h245v-33h-52q-12 0 -12 -7 q0 -3 40 -99l135 -321l114 303l-31.5 72t-20 36t-14 14.5t-16.5 1.5h-30v33h257v-33h-59q-12 0 -12 -6t57 -139l117 -289l69 173q81 202 81 246q0 10 -5 12.5t-22 2.5h-50v33h185z" />
<glyph unicode="X" horiz-adv-x="648" d="M639 0h-257v33h52q14 0 14 7q0 9 -24 41l-133 205q-38 -46 -92.5 -131.5t-54.5 -108.5q0 -13 13 -13h60v-33h-196v33h22q20 0 30.5 9t31.5 42q77 120 164 236l-130 198q-42 63 -53.5 73.5t-38.5 10.5h-18v33h259v-33h-53q-11 0 -11 -6q0 -3 6.5 -13.5l14.5 -22.5t9 -14 l97 -148q139 162 139 192q0 12 -21 12h-50v33h189v-33h-34q-15 0 -34 -26q-132 -169 -169 -210l211 -318q10 -15 27 -15h30v-33z" />
<glyph unicode="Y" horiz-adv-x="593" d="M355 277v-108q0 -67 3.5 -94.5t10 -34.5t24.5 -7h45v-33h-259v33h45q15 0 15 16v222l-132 239q-24 44 -39 64.5t-21 24t-16 3.5h-36v33h256v-33h-53q-7 0 -7 -6q0 -2 5 -11l4 -9l139 -254q129 235 129 267q0 13 -22 13h-52v33h186v-33h-25q-16 0 -22 -5t-17 -24z" />
<glyph unicode="Z" horiz-adv-x="593" d="M541 0h-498q-14 0 -14 9q0 3 7 17l354 570h-59q-224 0 -247 -64q-5 -16 -17 -16q-13 0 -13 14q0 5 25 105h441q15 0 15 -8q0 -3 -19 -35l-340 -553h17q318 0 343 56q9 19 12.5 23.5t9.5 4.5q13 0 13 -18q0 -3 -5.5 -22l-13.5 -44.5t-11 -38.5z" />
<glyph unicode="[" horiz-adv-x="370" d="M102 -123v631q0 139 -8 197h177v-33h-56q-24 0 -31.5 -1.5t-7.5 -8.5v-11v-593q0 -62 3.5 -94.5t10.5 -43t19 -10.5h62v-33h-169z" />
<glyph unicode="\" horiz-adv-x="278" d="M233 -19l-266 673h78l266 -673h-78z" />
<glyph unicode="]" horiz-adv-x="370" d="M268 705v-631q0 -139 8 -197h-177v33h56h6q6 -1 10.5 -0.5t10 1t9 3t3.5 6.5v11v593q0 62 -3.5 94.5t-10.5 43t-19 10.5h-62v33h169z" />
<glyph unicode="^" d="M231 635h76l182 -373h-84l-136 285l-136 -285h-84z" />
<glyph unicode="_" horiz-adv-x="500" d="M500 -125h-500v50h500v-50z" />
<glyph unicode="`" horiz-adv-x="296" d="M197 509l-23 -22q-69 50 -149 90q29 33 42 33t66 -42t64 -59z" />
<glyph unicode="a" horiz-adv-x="463" d="M275 103v132l-18 -7q-123 -49 -123 -121q0 -23 12.5 -38t35.5 -15q48 0 93 49zM224 250l51 21v29q0 29 -1.5 43.5t-7.5 30t-20.5 21.5t-38.5 6q-39 0 -68 -20q0 -43 -18 -71.5t-50 -28.5q-14 0 -24.5 9t-10.5 23q0 55 74 92t149 37q80 0 100.5 -27t20.5 -113v-154 q0 -58 13 -77.5t57 -27.5l-39 -59q-96 0 -128 82q-102 -82 -160 -82q-43 0 -68.5 27.5t-25.5 70.5q0 16 3.5 30t13 27l17 22.5t24.5 20.5t25 17t29.5 16t27.5 12.5l29.5 12t25.5 10.5z" />
<glyph unicode="b" d="M183 342v-300q38 -25 78 -25q47 0 76 28.5t38.5 66t9.5 84.5q0 183 -113 183q-40 0 -89 -37zM183 705v-327q30 21 47.5 32t45.5 21.5t56 10.5q77 0 119.5 -63.5t42.5 -145.5q0 -111 -62 -180t-172 -69q-71 0 -141 40l-21 -45h-26q6 98 6 162v328q0 78 -3.5 118t-10 53 t-19.5 13h-42v30q120 12 180 22z" />
<glyph unicode="c" horiz-adv-x="444" d="M409 73l17 -21q-67 -68 -179 -68q-98 0 -154.5 60t-56.5 159q0 114 69 176.5t161 62.5q51 0 99.5 -28t48.5 -68q0 -16 -11.5 -25.5t-28.5 -9.5q-32 0 -53 29t-22 62q-11 7 -36 7q-62 0 -90 -54t-28 -122q0 -85 37.5 -140.5t118.5 -55.5q63 0 108 36z" />
<glyph unicode="d" horiz-adv-x="556" d="M353 88v286q-37 27 -85 27q-66 0 -94.5 -50.5t-28.5 -121.5q0 -180 117 -182q45 -1 91 41zM458 705v-526q0 -84 5.5 -115t25.5 -31h44v-30q-94 -3 -180 -19v65q-31 -23 -47 -33.5t-44 -21t-57 -10.5q-66 0 -117.5 54t-51.5 160q0 102 57 173t157 71q48 0 103 -30v57 q0 78 -3.5 118t-10 53t-19.5 13h-42v30q120 12 180 22z" />
<glyph unicode="e" horiz-adv-x="463" d="M418 83l15 -23q-82 -76 -195 -76q-96 0 -149 62t-53 159q0 99 56.5 168t152.5 69q66 0 109.5 -38t74.5 -106l-284 -75q4 -81 39 -133.5t110 -52.5q65 0 124 46zM144 254l7 2l167 46q-41 107 -93 107q-23 0 -40 -17t-25.5 -42.5t-12.5 -50.5t-3 -45z" />
<glyph unicode="f" horiz-adv-x="315" d="M203 396v-227q0 -88 5.5 -113.5t26.5 -25.5h44v-30h-235v30h36q6 0 9.5 1t6 4.5t2.5 10.5v350h-61v30h61v76q0 68 3.5 93t17.5 48q43 69 141 69q21 0 46.5 -5.5t48.5 -20.5t23 -37q0 -31 -34 -31q-25 0 -44.5 16.5t-28.5 41.5q-15 3 -16 3q-52 0 -52 -138v-115h82v-30 h-82z" />
<glyph unicode="g" horiz-adv-x="481" d="M153 302q0 -52 25 -101t72 -49q35 0 51 29.5t16 67.5q0 34 -7 66.5t-29.5 60t-57.5 27.5q-70 0 -70 -101zM399 -123q0 38 -31 51.5t-99 18.5q-59 4 -95 13q-71 -22 -71 -81q0 -43 41 -69.5t105 -26.5q32 0 64 8t59 30.5t27 55.5zM417 283q0 -72 -54.5 -118t-127.5 -46 q-34 0 -63 7q-25 -31 -25 -44q0 -10 5 -16.5t20.5 -10t31 -5.5t47.5 -4q8 -1 28.5 -2t31 -2t30.5 -3.5t31 -5t28 -8t26.5 -12t21 -16.5t17.5 -22.5t10.5 -29t4.5 -35.5q0 -66 -65 -113t-191 -47q-61 0 -104.5 13t-63 34t-27 38t-7.5 32q0 72 104 110q-51 23 -51 60 q0 8 3.5 18t8 17.5t13.5 18.5l13.5 16.5t14.5 16l12 12.5q-87 40 -87 131q0 78 55 126.5t134 48.5q24 0 72 -10t91 -10q22 0 31 11t14 11q11 0 11 -10q0 -5 -1 -15.5t-7 -25.5t-15 -15q-18 0 -56 4q35 -42 35 -99z" />
<glyph unicode="h" horiz-adv-x="556" d="M193 705v-335q97 72 157 72q121 0 121 -138v-135q0 -88 5.5 -113.5t26.5 -25.5h38v-30h-221v30h28q6 0 9.5 1t6 4.5t2.5 10.5v208q0 22 -0.5 33t-2.5 29t-6.5 26.5t-12.5 18.5t-21 14t-31 4q-50 0 -99 -46v-164q0 -88 5.5 -113.5t26.5 -25.5h35v-30h-226v30h36q6 0 9.5 1 t6 4.5t2.5 10.5v423q0 78 -3.5 118t-10 53t-19.5 13h-42v30q120 12 180 22z" />
<glyph unicode="i" horiz-adv-x="296" d="M201 442v-273q0 -88 5.5 -113.5t26.5 -25.5h44v-30h-235v30h36q6 0 9.5 1t6 4.5t2.5 10.5v204q0 87 -5 116t-29 29h-42v30q143 12 181 17zM140 529q-23 0 -39 15.5t-16 38.5t16 38.5t39 15.5t39.5 -15.5t16.5 -38.5q0 -24 -16 -39t-40 -15z" />
<glyph unicode="j" horiz-adv-x="296" d="M203 442v-527q0 -77 -52 -121t-123 -44q-20 0 -43.5 4.5t-45.5 18.5t-22 35q0 15 11.5 22.5t26.5 7.5q45 0 72 -52q4 -3 12 -3q14 0 24.5 6.5t17 21t10 28t5 37.5t2 38.5t0.5 42.5v293q0 87 -5 116t-29 29h-42v30q143 12 181 17zM142 529q-23 0 -39 15.5t-16 38.5 t16 38.5t39 15.5t39.5 -15.5t16.5 -38.5q0 -24 -16 -39t-40 -15z" />
<glyph unicode="k" d="M201 705v-489q71 49 124 101t53 70q0 9 -21 9h-49v30h190v-30h-14q-17 0 -25.5 -4.5t-22.5 -17.5l-99 -90q38 -70 78 -127.5t60 -80.5t30 -31q18 -15 44 -15v-30h-122q-18 0 -24 7q-68 70 -141 213l-61 -44q0 -98 4.5 -122t27.5 -24h44v-30h-235v30h36q6 0 9.5 1t6 4.5 t2.5 10.5v423q0 78 -3.5 118t-10 53t-19.5 13h-42v30q120 12 180 22z" />
<glyph unicode="l" horiz-adv-x="296" d="M201 705v-536q0 -88 5.5 -113.5t26.5 -25.5h44v-30h-235v30h36q6 0 9.5 1t6 4.5t2.5 10.5v423q0 78 -3.5 118t-10 53t-19.5 13h-42v30q120 12 180 22z" />
<glyph unicode="m" horiz-adv-x="815" d="M253 0h-220v30h36q6 0 9.5 1t6 4.5t2.5 10.5v204q0 87 -5 116t-29 29h-42v30q143 12 181 17v-77q48 41 81.5 59t75.5 18q87 0 105 -76q88 76 155 76q121 0 121 -138v-135q0 -88 5.5 -113.5t26.5 -25.5h38v-30h-223v30h30q6 0 9.5 1t6 4.5t2.5 10.5v208q0 22 -0.5 33 t-2.5 29t-6.5 26.5t-12.5 18.5t-21 14t-31 4q-17 0 -34.5 -8t-26.5 -14.5t-29 -23.5v-164q0 -88 5.5 -113.5t26.5 -25.5h29v-30h-214v30h30q6 0 9.5 1t6 4.5t2.5 10.5v208q0 22 -0.5 33t-2.5 29t-6.5 26.5t-12.5 18.5t-21 14t-31 4q-17 0 -34.5 -8t-26.5 -14.5t-29 -23.5 v-164q0 -88 5.5 -113.5t26.5 -25.5h29v-30z" />
<glyph unicode="n" horiz-adv-x="556" d="M193 442v-72q97 72 157 72q121 0 121 -138v-135q0 -88 5.5 -113.5t26.5 -25.5h38v-30h-221v30h28q6 0 9.5 1t6 4.5t2.5 10.5v208q0 22 -0.5 33t-2.5 29t-6.5 26.5t-12.5 18.5t-21 14t-31 4q-50 0 -99 -46v-164q0 -88 5.5 -113.5t26.5 -25.5h35v-30h-226v30h36q6 0 9.5 1 t6 4.5t2.5 10.5v204q0 87 -5 116t-29 29h-42v30q143 12 181 17z" />
<glyph unicode="o" horiz-adv-x="519" d="M271 442q97 0 154.5 -59t57.5 -159q0 -103 -67 -171.5t-168 -68.5q-97 0 -154.5 59t-57.5 159q0 103 67 171.5t168 68.5zM145 249q0 -35 5.5 -70.5t19 -74t40.5 -63t65 -24.5q99 0 99 159q0 35 -5.5 71t-19 74.5t-40.5 63t-65 24.5q-99 0 -99 -160z" />
<glyph unicode="p" horiz-adv-x="556" d="M198 442v-64q30 21 47.5 32t45.5 21.5t56 10.5q77 0 119.5 -63.5t42.5 -145.5q0 -111 -62 -180t-172 -69q-35 0 -77 24v-48q0 -114 5.5 -144t26.5 -30h53v-30h-244v30h36q6 0 9.5 1t6 4.5t2.5 10.5v448q0 87 -5 116t-29 29h-42v30q143 12 181 17zM198 342v-300 q38 -25 78 -25q47 0 76 28.5t38.5 66t9.5 84.5q0 183 -113 183q-40 0 -89 -37z" />
<glyph unicode="q" d="M439 447h26q-6 -98 -6 -162v-340q0 -84 5.5 -115t25.5 -31h44v-30q-94 -3 -180 -19v290q-6 -4 -23 -14.5t-23.5 -14t-20.5 -10.5t-23.5 -9.5t-23.5 -5t-29 -2.5q-27 0 -54 10t-53.5 33t-43.5 68.5t-17 107.5q0 106 62 172.5t166 66.5q73 0 153 -36zM354 74v314 q-34 21 -76 21q-36 0 -61.5 -16.5t-39 -44.5t-19.5 -58t-6 -64q0 -32 5 -61.5t16.5 -59t35 -47.5t57.5 -18q46 0 88 34z" />
<glyph unicode="r" horiz-adv-x="389" d="M201 442v-90l14.5 15t14 15t12 13t12.5 12t12 9.5t12.5 9l11.5 6.5t13 5.5t13.5 3t14.5 1.5q28 0 49 -21l-12 -65q-4 -26 -15 -26q-6 0 -10.5 5.5t-7 11.5t-13 11.5t-28.5 5.5q-43 0 -93 -48v-147q0 -88 5.5 -113.5t26.5 -25.5h52v-30h-243v30h36q6 0 9.5 1t6 4.5 t2.5 10.5v204q0 87 -5 116t-29 29h-42v30q143 12 181 17z" />
<glyph unicode="s" horiz-adv-x="426" d="M349 419l7 -70q0 -12 -12 -12q-9 0 -15 14q-12 27 -43 39.5t-65 12.5t-62.5 -16t-28.5 -47q0 -26 26.5 -41.5t64.5 -25t76 -22.5t64.5 -41.5t26.5 -72.5q0 -40 -20.5 -71t-53 -48t-69 -25.5t-73.5 -8.5q-69 0 -126 20l-14 78q-3 22 15 22q12 0 18 -21q8 -30 43.5 -45 t74.5 -15q43 0 79 18.5t36 57.5q0 27 -26.5 43t-64.5 25.5t-76 21.5t-64.5 40t-26.5 73q0 58 53 99t137 41q70 0 119 -23z" />
<glyph unicode="t" horiz-adv-x="333" d="M311 45l13 -24q-60 -37 -132 -37q-61 0 -84.5 27t-23.5 88v297h-35q-19 0 -19 11q0 6 69 66l70 61h20v-108h101q-1 -21 -5.5 -25.5t-16.5 -4.5h-79v-269q0 -50 11.5 -73t50.5 -23q29 0 60 14z" />
<glyph unicode="u" horiz-adv-x="556" d="M281 395v30q150 13 177 17v-294q0 -58 13 -77.5t57 -27.5l-39 -59h-13q-35 0 -69 21.5t-46 52.5l-51 -37.5t-45 -24t-54 -12.5q-38 0 -64.5 13t-39 29.5t-19.5 45t-8 44.5t-1 43v91q0 87 -5 116t-29 29h-38v30q150 13 177 17v-294q0 -29 3.5 -48t19.5 -36t45 -17 q47 0 104 44q-3 15 -3 50v109q0 87 -5 116t-29 29h-38z" />
<glyph unicode="v" horiz-adv-x="481" d="M470 426v-30h-21q-23 0 -30 -17l-172 -382q-7 -13 -15 -13q-10 0 -16 16l-121 279q-30 68 -45.5 92.5t-33.5 24.5h-24v30h225v-30h-39q-16 0 -16 -9t22 -57l86 -199q96 196 96 245q0 12 -6 16t-21 4h-38v30h169z" />
<glyph unicode="w" horiz-adv-x="741" d="M733 426v-30h-31q-14 0 -23 -21q-9 -22 -166 -374q-8 -17 -15 -17t-10 4t-10 21l-110 260l-116 -259q0 -1 -2 -6t-3.5 -7.5t-4 -6t-5 -5t-5.5 -1.5q-6 0 -9 3.5t-9 18.5l-139 326q-17 40 -26.5 52t-20.5 12h-26v30h214v-30h-40q-13 0 -13 -7q0 -6 5 -16l102 -235l79 173 l-22 51q-9 21 -17.5 27.5t-21.5 6.5h-17v30h219v-30h-48q-11 0 -11 -7q0 -1 14 -36l91 -215l76 174q19 43 19 69q0 15 -19 15h-41v30h162z" />
<glyph unicode="x" horiz-adv-x="519" d="M486 426v-30h-28q-7 0 -31 -24.5l-105 -110.5q-11 -12 -17 -18q112 -152 137.5 -182.5t42.5 -30.5h20v-30h-226v30h33q15 0 15 7q0 6 -102 144q-44 -43 -74 -84t-30 -59q0 -8 19 -8h48v-30h-178v30q28 0 36.5 3t22.5 20l135 157q-94 125 -121 155.5t-44 30.5h-22v30h233 v-30h-33q-19 0 -19 -8q0 -6 12.5 -23t74.5 -96q95 93 95 118q0 9 -17 9h-45v30h168z" />
<glyph unicode="y" horiz-adv-x="500" d="M490 426v-30h-21q-22 0 -29 -17q-13 -33 -45.5 -102.5l-95.5 -207.5l-135 -301q-62 -18 -112 -18q-14 0 -14 13q0 8 20 17q87 39 170 223l-128 276q-44 93 -58 107q-10 10 -21 10h-21v30h222v-30h-39q-16 0 -16 -9q0 -4 11 -29l43.5 -95l64.5 -144q100 237 100 257 q0 12 -6 16t-21 4h-43v30h174z" />
<glyph unicode="z" horiz-adv-x="463" d="M393 0h-353q-17 0 -17 7t19 29l271 312q-5 -1 -99 -3t-112 -7t-26 -17.5t-16 -12.5q-12 0 -12 10q0 8 31 108h335q11 0 11 -6q0 -4 -21 -28l-265 -309q174 3 216.5 7t51.5 17q9 14 16 14q12 0 12 -11t-42 -110z" />
<glyph unicode="{" horiz-adv-x="370" d="M301 705v-28q-36 1 -51.5 -25.5t-15.5 -79.5v-153q0 -56 -13.5 -85t-54.5 -42v-2q41 -12 54.5 -40.5t13.5 -85.5v-153q0 -53 15.5 -79.5t51.5 -26.5v-28q-75 0 -108 27.5t-33 111.5v161q0 50 -14.5 75t-55.5 38v2q41 13 55.5 38t14.5 75v161q0 84 33 111.5t108 27.5z" />
<glyph unicode="|" horiz-adv-x="222" d="M75 -100v805h73v-805h-73z" />
<glyph unicode="}" horiz-adv-x="370" d="M280 290q-41 -13 -55.5 -38t-14.5 -75v-161q0 -84 -33 -111.5t-108 -27.5v28q36 0 51.5 26.5t15.5 79.5v153q0 57 13.5 85.5t54.5 40.5v2q-41 13 -54.5 42t-13.5 85v153q0 53 -15.5 79.5t-51.5 25.5v28q75 0 108 -27.5t33 -111.5v-161q0 -50 14.5 -75t55.5 -38v-2z" />
<glyph unicode="~" d="M464 293l36 -70q-45 -86 -125 -86q-38 0 -116 34q-76 34 -95 34q-20 0 -37.5 -12t-27.5 -24.5t-25 -35.5l-36 70q45 86 125 86q40 0 116 -34t95 -34q20 0 37.5 12t27.5 24.5t25 35.5z" />
<glyph unicode="&#xa1;" horiz-adv-x="315" d="M149 330q-26 0 -42 15.5t-16 40.5t16 40.5t42 15.5t42 -15.5t16 -40.5t-16 -40.5t-42 -15.5zM138 257h32q4 -71 41 -465q-76 0 -95 8q-15 7 -15 50q0 106 37 407z" />
<glyph unicode="&#xa2;" d="M455 180l17 -21q-62 -64 -166 -67v-123h-31v124q-90 4 -141.5 63.5t-51.5 153.5q0 102 56 163t137 73v120h31v-117h6q51 0 99.5 -28t48.5 -68q0 -16 -11.5 -25.5t-28.5 -9.5q-32 0 -53 29t-22 62q-14 9 -36 9h-3v-369q18 -5 41 -5q63 0 108 36zM275 160v352 q-45 -14 -66.5 -65t-21.5 -107q0 -62 22 -110.5t66 -69.5z" />
<glyph unicode="&#xa3;" d="M219 365h95v-33h-93q3 -25 3 -76q0 -65 -25 -108.5t-79 -84.5l2 -2q60 30 113 30q35 0 93 -15q56 -16 78 -16q24 0 42.5 12.5t18.5 36.5q0 13 -8 19.5t-16 8.5t-8 6q0 6 9 8l7 3q20 8 30 8q16 0 35 -20.5t19 -49.5q0 -52 -41.5 -81.5t-95.5 -29.5q-40 0 -123 31 q-77 31 -119 31q-59 0 -147 -53l-17 28q78 40 102.5 94t24.5 150q0 1 -3 70h-83v33h81v36q0 123 60.5 188t142.5 65q33 0 69 -18.5t36 -48.5q0 -14 -10.5 -22t-24.5 -8q-23 0 -44 19t-27 43q-8 2 -16 2q-3 0 -7 -0.5t-13 -3.5t-17 -8.5t-17.5 -17.5t-16 -28t-11 -42.5 t-4.5 -59.5q0 -28 5 -96z" />
<glyph unicode="&#xa4;" d="M30 506l48 49l53 -52q55 45 137 45q84 0 139 -45l53 52l48 -49l-53 -53q46 -47 46 -136q0 -82 -46 -135l53 -53l-48 -49l-53 52q-55 -45 -139 -45q-82 0 -137 45l-53 -52l-48 49l53 53q-46 53 -46 135q0 89 46 136zM269 164q63 0 107 44.5t44 108.5t-44 109t-108 45 q-63 0 -106.5 -45t-43.5 -109t44 -108.5t107 -44.5z" />
<glyph unicode="&#xa5;" d="M467 223v-33h-150q0 -61 1 -91t6.5 -46t11 -18t19.5 -2h45v-33h-244v33h45q16 0 16 16v141h-145v33h145v79h-145v33h131l-94 175q-24 44 -39 65t-21 24t-16 3h-36v33h236v-33h-53q-7 0 -7 -6q0 -4 9 -20l115 -229q103 219 103 242q0 13 -22 13h-37v33h171v-33h-29 q-21 0 -35 -29l-114 -238h133v-33h-150v-79h150z" />
<glyph unicode="&#xa6;" horiz-adv-x="222" d="M75 -100v322h73v-322h-73zM75 383v322h73v-322h-73z" />
<glyph unicode="&#xa7;" horiz-adv-x="500" d="M255 388q-42 -4 -75.5 -29.5t-33.5 -65.5q0 -37 26 -57.5t76 -37.5q44 6 75.5 29t31.5 64q0 13 -2 22t-10 23.5t-30.5 27.5t-57.5 24zM261 621q-37 0 -68 -18.5t-31 -53.5q0 -30 28.5 -50t69 -33.5t80.5 -29.5t68.5 -48.5t28.5 -79.5q0 -53 -42 -86t-98 -42v-2 q28 -9 47.5 -17.5t41.5 -23.5t33.5 -36.5t11.5 -49.5q0 -66 -60 -102.5t-130 -36.5q-47 0 -82 11.5t-52 29.5t-24.5 35t-7.5 32q0 39 31 49h40q-13 -19 -13 -39q0 -40 32.5 -62.5t74.5 -22.5t75.5 24t33.5 65q0 31 -29.5 51.5t-71.5 33.5t-83.5 28.5t-71 47t-29.5 79.5 q0 53 40.5 85.5t99.5 47.5v2q-55 19 -89.5 47t-34.5 76t49 85t130 37q71 0 115.5 -29.5t44.5 -68.5q0 -29 -28 -44h-40q10 17 10 35q0 35 -31.5 54.5t-68.5 19.5z" />
<glyph unicode="&#xa8;" horiz-adv-x="296" d="M86 506q-17 0 -29.5 12.5t-12.5 29.5q0 18 12 30.5t30 12.5t30.5 -12.5t12.5 -30.5q0 -17 -12.5 -29.5t-30.5 -12.5zM210 506q-17 0 -29.5 12.5t-12.5 29.5q0 18 12 30.5t30 12.5t30.5 -12.5t12.5 -30.5q0 -17 -12.5 -29.5t-30.5 -12.5z" />
<glyph unicode="&#xa9;" horiz-adv-x="800" d="M210 314q0 91 64.5 148t147.5 57q68 0 127 -23l-4 -44q-2 -10 -9 -10q-5 0 -7 7q-1 12 -9 18q-26 22 -81 22q-64 0 -101.5 -51t-37.5 -118q0 -63 37 -111.5t97 -48.5q31 0 67 15.5t41 41.5q2 10 9 10q9 0 7 -8q-2 -11 -3 -32t-2 -27q-63 -30 -140 -30q-94 0 -148.5 46.5 t-54.5 137.5zM400 30q119 0 200.5 83.5t81.5 203.5t-81.5 203.5t-200.5 83.5t-200.5 -83.5t-81.5 -203.5t81.5 -203.5t200.5 -83.5zM400 -20q-140 0 -241 99t-101 238t101 238t241 99t241 -99t101 -238t-101 -238t-241 -99z" />
<glyph unicode="&#xaa;" horiz-adv-x="328" d="M174 543l18 7v28q0 16 -1.5 24t-10.5 15t-27 7q-23 0 -40 -11v-7q0 -19 -13 -36.5t-31 -17.5q-10 0 -17 6t-7 16q0 38 49 59t93 21q51 0 63 -18t12 -73v-92q0 -50 46 -58l-26 -40h-12q-28 0 -47.5 14t-23.5 35q-61 -49 -98 -49q-28 0 -44.5 17t-16.5 45q0 10 2.5 19.5 t9 17.5l12 14.5t17 13.5l18 11t20.5 10l19 8l19.5 7.5t16.5 6.5zM192 449v74l-8 -3q-74 -29 -74 -70q0 -29 27 -29q31 0 55 28z" />
<glyph unicode="&#xab;" d="M400 418l30 -15q-8 -101 -79 -180q71 -79 79 -180l-30 -15q-48 117 -158 195q110 78 158 195zM229 418l30 -15q-8 -101 -79 -180q71 -79 79 -180l-30 -15q-48 117 -158 195q110 78 158 195z" />
<glyph unicode="&#xac;" d="M398 92v170h-349v73h422v-243h-73z" />
<glyph unicode="&#xad;" horiz-adv-x="276" d="M40 260h111q81 0 105 4q8 3 13 3q4 0 4 -4q0 -3 -3 -9l-31 -67h-113q-93 0 -107 -6q-7 -3 -12 -3q-4 0 -4 4q0 2 1 5.5t3 7t2 4.5z" />
<glyph unicode="&#xae;" horiz-adv-x="800" d="M366 485v-154h21q34 0 59 18.5t25 55.5q0 31 -22.5 58t-66.5 27q-16 0 -16 -5zM414 144h-161v25h26q10 0 10 9v234q0 55 -4 66.5t-19 11.5h-26v25h179q70 0 99.5 -31.5t29.5 -69.5q0 -76 -88 -92l45 -67q49 -74 66 -86h16v-25h-66q-24 0 -29 5q-32 32 -98 159h-28v-61 q0 -56 3 -67t18 -11h27v-25zM682 317q0 120 -81.5 203.5t-200.5 83.5t-200.5 -83.5t-81.5 -203.5t81.5 -203.5t200.5 -83.5t200.5 83.5t81.5 203.5zM742 317q0 -139 -101 -238t-241 -99t-241 99t-101 238t101 238t241 99t241 -99t101 -238z" />
<glyph unicode="&#xaf;" horiz-adv-x="296" d="M268 574v-51h-239v51h239z" />
<glyph unicode="&#xb0;" horiz-adv-x="350" d="M175 416q40 0 65.5 27t25.5 68t-25.5 68t-65.5 27t-65.5 -27t-25.5 -68t25.5 -68t65.5 -27zM175 368q-60 0 -101.5 41.5t-41.5 101.5t41.5 101.5t101.5 41.5t101.5 -41.5t41.5 -101.5t-41.5 -101.5t-101.5 -41.5z" />
<glyph unicode="&#xb1;" d="M58 234v73h174v119h73v-119h175v-73h-175v-119h-73v119h-174zM58 0v73h422v-73h-422z" />
<glyph unicode="&#xb2;" horiz-adv-x="319" d="M17 591l-13 21q51 46 137 46q60 0 96 -30.5t36 -82.5q0 -39 -19 -73t-41 -54t-62 -49l-41 -30l2 -2h102q74 0 84 12q7 9 12 9q8 0 8 -11q0 -16 -28 -81h-285q-7 0 -7 5q0 6 55 55q38 35 61 60t43.5 65t20.5 80q0 34 -22.5 58t-61.5 24q-48 0 -77 -22z" />
<glyph unicode="&#xb3;" horiz-adv-x="319" d="M35 582l-14 23q51 53 146 53q47 0 81 -20t34 -59q0 -64 -97 -88v-2q61 -3 96.5 -28.5t35.5 -72.5q0 -50 -48.5 -90t-134.5 -40q-80 0 -125 27l10 32q46 -22 84 -22q44 0 78.5 27t34.5 66q0 38 -28 58t-75 20h-19v33q38 0 65.5 16t27.5 48q0 22 -20.5 36t-46.5 14 q-49 0 -85 -31z" />
<glyph unicode="&#xb4;" horiz-adv-x="296" d="M121 487l-23 22q11 17 64 59t66 42t42 -33q-80 -40 -149 -90z" />
<glyph unicode="&#xb5;" horiz-adv-x="556" d="M458 442v-294q0 -58 13 -77.5t57 -27.5l-39 -59h-13q-35 0 -69 21.5t-46 52.5l-51 -37.5t-45 -24t-54 -12.5q-27 0 -58 10v-45q0 -14 20.5 -55.5t20.5 -57.5q0 -22 -14 -38t-37 -16q-64 0 -64 108v269v91q0 87 -5 116t-29 29h-38v30q150 13 177 17v-294q0 -29 3.5 -48 t19.5 -36t45 -17q47 0 104 44q-3 15 -3 50v109q0 87 -5 116t-29 29h-38v30q150 13 177 17z" />
<glyph unicode="&#xb6;" horiz-adv-x="500" d="M186 -72v33h45q15 0 15 16v365q-50 -29 -98 -29q-75 0 -123 43.5t-48 117.5q0 61 44.5 111t136.5 50h325v-33h-45q-15 0 -15 -16v-489q0 -67 3.5 -94.5t10 -34.5t24.5 -7h45v-33h-149v674h-45v-674h-126zM246 601h-49q-39 0 -67.5 -12.5t-42 -28t-20.5 -39t-8 -34 t-1 -24.5q0 -50 25 -81.5t73 -31.5q40 0 90 31v220z" />
<glyph unicode="&#xb7;" horiz-adv-x="268" d="M134 269q26 0 42 -15.5t16 -40.5t-16 -40.5t-42 -15.5t-42 15.5t-16 40.5t16 40.5t42 15.5z" />
<glyph unicode="&#xb8;" horiz-adv-x="296" d="M135 0h33q0 -1 -7 -8.5l-13 -14.5t-11 -15t-5 -11q0 -4 24.5 -8.5t49 -17t24.5 -35.5q0 -31 -31.5 -47t-65.5 -16q-22 0 -44.5 7t-22.5 25q0 15 20 15q22 0 37 -25q7 -3 15 -3q18 0 34 8.5t16 24.5q0 17 -26 25t-52 13t-26 15q0 5 7 15t14 19t17.5 20.5t12.5 13.5z" />
<glyph unicode="&#xb9;" horiz-adv-x="319" d="M204 654v-283q0 -57 4.5 -69.5t21.5 -12.5h51v-27h-240v27h64q10 0 10 10v214q0 87 -12 97q-5 4 -30 4h-32v27q27 2 82 6.5z" />
<glyph unicode="&#xba;" horiz-adv-x="360" d="M175 373q-62 0 -99 36t-37 98t42.5 104.5t103.5 42.5q63 0 99.5 -37t36.5 -99q0 -63 -41.5 -104t-104.5 -41zM169 626q-18 0 -29.5 -8t-16 -23t-6 -28t-1.5 -31q0 -135 72 -135q56 0 56 85q0 140 -75 140z" />
<glyph unicode="&#xbb;" d="M107 403l30 15q48 -117 158 -195q-110 -78 -158 -195l-30 15q8 101 79 180q-71 79 -79 180zM278 403l30 15q48 -117 158 -195q-110 -78 -158 -195l-30 15q8 101 79 180q-71 79 -79 180z" />
<glyph unicode="&#xbc;" horiz-adv-x="798" d="M429 108v33q119 142 229 243h25v-216q25 0 40 2.5t19 5t7 5t6 2.5q6 0 6 -6q0 -4 -3.5 -14.5t-10 -27t-9.5 -27.5h-55v-113q-12 -3 -29.5 -9l-29.5 -10t-17 -4q-8 0 -8 11v6q9 88 6 119h-176zM605 168v124q-63 -59 -112 -124h112zM588 679h45q-236 -333 -334 -704 l-66 -20q26 122 123.5 331t231.5 393zM212 654v-283q0 -57 4.5 -69.5t21.5 -12.5h51v-27h-240v27h64q10 0 10 10v214q0 87 -12 97q-5 4 -30 4h-32v27q27 2 82 6.5z" />
<glyph unicode="&#xbd;" horiz-adv-x="798" d="M588 679h45q-236 -333 -334 -704l-66 -20q26 122 123.5 331t231.5 393zM212 654v-283q0 -57 4.5 -69.5t21.5 -12.5h51v-27h-240v27h64q10 0 10 10v214q0 87 -12 97q-5 4 -30 4h-32v27q27 2 82 6.5zM496 325l-13 21q51 46 137 46q60 0 96 -30.5t36 -82.5q0 -39 -19 -73 t-41 -54t-62 -49l-41 -30l2 -2h102q74 0 84 12q7 9 12 9q8 0 8 -11q0 -16 -28 -81h-285q-7 0 -7 5q0 6 55 55q38 35 61 60t43.5 65t20.5 80q0 34 -22.5 58t-61.5 24q-48 0 -77 -22z" />
<glyph unicode="&#xbe;" horiz-adv-x="798" d="M738 108h-55v-113q-12 -3 -29.5 -9l-29.5 -10t-17 -4q-8 0 -8 11v6q9 88 6 119h-176v33q119 142 229 243h25v-216q25 0 40 2.5t19 5t7 5t6 2.5q6 0 6 -6q0 -4 -3.5 -14.5t-10 -27t-9.5 -27.5zM605 168v124q-63 -59 -112 -124h112zM588 679h45q-236 -333 -334 -704 l-66 -20q26 122 123.5 331t231.5 393zM40 578l-14 23q51 53 146 53q47 0 81 -20t34 -59q0 -64 -97 -88v-2q61 -3 96.5 -28.5t35.5 -72.5q0 -50 -48.5 -90t-134.5 -40q-80 0 -125 27l10 32q46 -22 84 -22q44 0 78.5 27t34.5 66q0 38 -28 58t-75 20h-19v33q38 0 65.5 16 t27.5 48q0 22 -20.5 36t-46.5 14q-49 0 -85 -31z" />
<glyph unicode="&#xbf;" horiz-adv-x="407" d="M164 -38q0 -56 34 -91.5t90 -35.5q46 0 59 26q6 13 15 13q13 0 13 -10q0 -5 -27 -66q-51 -23 -105 -23q-81 0 -130 45t-49 107q0 53 26 86.5t85 76.5q4 3 13 9t13.5 9.5l10 8t8 8t2.5 6.5q0 13 -33 61q-6 10 -14 13t-8 8q0 6 26 22.5t51 27.5q47 -43 64 -113 q-11 -10 -40.5 -30.5t-49.5 -37t-37 -48.5t-17 -72zM233 330q-26 0 -42 15.5t-16 40.5t16 40.5t42 15.5t42 -15.5t16 -40.5t-16 -40.5t-42 -15.5z" />
<glyph unicode="&#xc0;" horiz-adv-x="667" d="M401 230h-213q-56 -147 -56 -175q0 -22 28 -22h57v-33h-203v33h32q19 0 26 18q13 34 248 587q68 16 80 16q10 0 10 -13q0 -5 -10 -14t-10 -20q0 -10 11.5 -47t32.5 -96l40 -111l45.5 -123.5l37.5 -102.5q23 -62 35 -78t37 -16h24v-33h-252v33h45q14 0 17 4.5t-2 19.5z M385 269l-82 238q-35 -74 -99 -238h181zM368 703l-23 -22q-69 50 -149 90q29 33 42 33t66 -42t64 -59z" />
<glyph unicode="&#xc1;" horiz-adv-x="667" d="M401 230h-213q-56 -147 -56 -175q0 -22 28 -22h57v-33h-203v33h32q19 0 26 18q13 34 248 587q68 16 80 16q10 0 10 -13q0 -5 -10 -14t-10 -20q0 -10 11.5 -47t32.5 -96l40 -111l45.5 -123.5l37.5 -102.5q23 -62 35 -78t37 -16h24v-33h-252v33h45q14 0 17 4.5t-2 19.5z M385 269l-82 238q-35 -74 -99 -238h181zM327 681l-23 22q11 17 64 59t66 42t42 -33q-80 -40 -149 -90z" />
<glyph unicode="&#xc2;" horiz-adv-x="667" d="M401 230h-213q-56 -147 -56 -175q0 -22 28 -22h57v-33h-203v33h32q19 0 26 18q13 34 248 587q68 16 80 16q10 0 10 -13q0 -5 -10 -14t-10 -20q0 -10 11.5 -47t32.5 -96l40 -111l45.5 -123.5l37.5 -102.5q23 -62 35 -78t37 -16h24v-33h-252v33h45q14 0 17 4.5t-2 19.5z M385 269l-82 238q-35 -74 -99 -238h181zM339 736q-21 -20 -54 -37t-58 -17q-7 0 -13 4t-13.5 12t-10.5 10q88 25 149 95q61 -70 149 -95q-3 -2 -10.5 -10t-13.5 -12t-13 -4q-25 0 -58 17t-54 37z" />
<glyph unicode="&#xc3;" horiz-adv-x="667" d="M401 230h-213q-56 -147 -56 -175q0 -22 28 -22h57v-33h-203v33h32q19 0 26 18q13 34 248 587q68 16 80 16q10 0 10 -13q0 -5 -10 -14t-10 -20q0 -10 11.5 -47t32.5 -96l40 -111l45.5 -123.5l37.5 -102.5q23 -62 35 -78t37 -16h24v-33h-252v33h45q14 0 17 4.5t-2 19.5z M385 269l-82 238q-35 -74 -99 -238h181zM461 784l23 -14q-6 -29 -25.5 -49.5t-48.5 -20.5q-20 0 -62 17q-38 17 -56 17q-27 0 -44 -35l-23 14q6 29 25.5 49.5t48.5 20.5q24 0 62 -17q43 -17 56 -17q27 0 44 35z" />
<glyph unicode="&#xc4;" horiz-adv-x="667" d="M401 230h-213q-56 -147 -56 -175q0 -22 28 -22h57v-33h-203v33h32q19 0 26 18q13 34 248 587q68 16 80 16q10 0 10 -13q0 -5 -10 -14t-10 -20q0 -10 11.5 -47t32.5 -96l40 -111l45.5 -123.5l37.5 -102.5q23 -62 35 -78t37 -16h24v-33h-252v33h45q14 0 17 4.5t-2 19.5z M385 269l-82 238q-35 -74 -99 -238h181zM282 700q-17 0 -29.5 12.5t-12.5 29.5q0 18 12 30.5t30 12.5t30.5 -12.5t12.5 -30.5q0 -17 -12.5 -29.5t-30.5 -12.5zM406 700q-17 0 -29.5 12.5t-12.5 29.5q0 18 12 30.5t30 12.5t30.5 -12.5t12.5 -30.5q0 -17 -12.5 -29.5 t-30.5 -12.5z" />
<glyph unicode="&#xc5;" horiz-adv-x="667" d="M401 230h-213q-56 -147 -56 -175q0 -22 28 -22h57v-33h-203v33h32q19 0 26 18q13 34 248 587q68 16 80 16q10 0 10 -13q0 -5 -10 -14t-10 -20q0 -10 11.5 -47t32.5 -96l40 -111l45.5 -123.5l37.5 -102.5q23 -62 35 -78t37 -16h24v-33h-252v33h45q14 0 17 4.5t-2 19.5z M385 269l-82 238q-35 -74 -99 -238h181zM349 665q-39 0 -65.5 26.5t-26.5 64.5q0 39 26.5 65t65.5 26t65.5 -26t26.5 -65t-26.5 -65t-65.5 -26zM349 702q23 0 39 16t16 38q0 23 -16 38.5t-39 15.5t-39 -15.5t-16 -38.5t16 -38.5t39 -15.5z" />
<glyph unicode="&#xc6;" horiz-adv-x="889" d="M250 357h166v123q0 54 -3.5 82t-8.5 34.5t-13 7.5v-2h2q-35 -53 -143 -245zM416 49v272h-187q-138 -246 -138 -274q0 -7 4 -10t8 -3.5t14 -0.5h55v-33h-207v33q36 0 47 3.5t20 18.5l65 116l251 431h-79v33h554q-8 -73 -11.5 -87.5t-10.5 -14.5q-9 0 -12 5t-4 17 q-1 9 -18 18t-57 16t-93 7h-72q-13 0 -13 -13v-219h93q52 0 76 5t29 12t5 24v35h30v-176h-30v36q0 10 -5 15t-29.5 9t-75.5 4h-93v-73q0 -179 11 -203q7 -13 27 -13h35q190 0 221 55q7 13 15 13q11 0 11 -12q0 -7 -26 -95h-470v33h45q15 0 15 16z" />
<glyph unicode="&#xc7;" horiz-adv-x="704" d="M622 619l-4.5 -52t-4.5 -26t-5 -10.5t-8 -1.5q-4 0 -6.5 2.5t-4 6.5t-4.5 16q-5 22 -50 40.5t-91 18.5q-122 0 -195 -86.5t-73 -214.5q0 -119 66.5 -204.5t180.5 -85.5q32 0 71 10t74.5 34t41.5 55q4 18 15 18q13 0 13 -11q0 -3 -1 -12t-3 -32.5t-4 -51.5 q-104 -51 -234 -51q-20 -22 -20 -30q0 -4 24.5 -8.5t49 -17t24.5 -35.5q0 -31 -31.5 -47t-65.5 -16q-22 0 -44.5 7t-22.5 25q0 15 20 15q22 0 37 -25q7 -3 15 -3q18 0 34 8.5t16 24.5q0 17 -26 25t-52 13t-26 15t35 50q-142 8 -225.5 87.5t-83.5 223.5q0 107 56 190.5 t146 127t196 43.5q80 0 170 -35z" />
<glyph unicode="&#xc8;" horiz-adv-x="593" d="M58 0v33h45q15 0 15 16v417q0 67 -3.5 94.5t-10 34.5t-24.5 7h-45v33h490q-8 -73 -11.5 -87.5t-10.5 -14.5q-9 0 -12 5t-4 17q-1 9 -18 18t-57 16t-93 7h-72q-13 0 -13 -13v-219h93q52 0 76 5t29 12t5 24v35h30v-176h-30v36q0 10 -5 15t-29.5 9t-75.5 4h-93v-73 q0 -179 11 -203q7 -13 27 -13h35q190 0 221 55q7 13 15 13q11 0 11 -12q0 -7 -26 -95h-470zM356 703l-23 -22q-69 50 -149 90q29 33 42 33t66 -42t64 -59z" />
<glyph unicode="&#xc9;" horiz-adv-x="593" d="M58 0v33h45q15 0 15 16v417q0 67 -3.5 94.5t-10 34.5t-24.5 7h-45v33h490q-8 -73 -11.5 -87.5t-10.5 -14.5q-9 0 -12 5t-4 17q-1 9 -18 18t-57 16t-93 7h-72q-13 0 -13 -13v-219h93q52 0 76 5t29 12t5 24v35h30v-176h-30v36q0 10 -5 15t-29.5 9t-75.5 4h-93v-73 q0 -179 11 -203q7 -13 27 -13h35q190 0 221 55q7 13 15 13q11 0 11 -12q0 -7 -26 -95h-470zM290 681l-23 22q11 17 64 59t66 42t42 -33q-80 -40 -149 -90z" />
<glyph unicode="&#xca;" horiz-adv-x="593" d="M58 0v33h45q15 0 15 16v417q0 67 -3.5 94.5t-10 34.5t-24.5 7h-45v33h490q-8 -73 -11.5 -87.5t-10.5 -14.5q-9 0 -12 5t-4 17q-1 9 -18 18t-57 16t-93 7h-72q-13 0 -13 -13v-219h93q52 0 76 5t29 12t5 24v35h30v-176h-30v36q0 10 -5 15t-29.5 9t-75.5 4h-93v-73 q0 -179 11 -203q7 -13 27 -13h35q190 0 221 55q7 13 15 13q11 0 11 -12q0 -7 -26 -95h-470zM312 736q-21 -20 -54 -37t-58 -17q-7 0 -13 4t-13.5 12t-10.5 10q88 25 149 95q61 -70 149 -95q-3 -2 -10.5 -10t-13.5 -12t-13 -4q-25 0 -58 17t-54 37z" />
<glyph unicode="&#xcb;" horiz-adv-x="593" d="M58 0v33h45q15 0 15 16v417q0 67 -3.5 94.5t-10 34.5t-24.5 7h-45v33h490q-8 -73 -11.5 -87.5t-10.5 -14.5q-9 0 -12 5t-4 17q-1 9 -18 18t-57 16t-93 7h-72q-13 0 -13 -13v-219h93q52 0 76 5t29 12t5 24v35h30v-176h-30v36q0 10 -5 15t-29.5 9t-75.5 4h-93v-73 q0 -179 11 -203q7 -13 27 -13h35q190 0 221 55q7 13 15 13q11 0 11 -12q0 -7 -26 -95h-470zM250 700q-17 0 -29.5 12.5t-12.5 29.5q0 18 12 30.5t30 12.5t30.5 -12.5t12.5 -30.5q0 -17 -12.5 -29.5t-30.5 -12.5zM374 700q-17 0 -29.5 12.5t-12.5 29.5q0 18 12 30.5t30 12.5 t30.5 -12.5t12.5 -30.5q0 -17 -12.5 -29.5t-30.5 -12.5z" />
<glyph unicode="&#xcc;" horiz-adv-x="352" d="M234 586v-417q0 -67 3.5 -94.5t10 -34.5t24.5 -7h45v-33h-259v33h45q15 0 15 16v417q0 67 -3.5 94.5t-10 34.5t-24.5 7h-45v33h259v-33h-45q-15 0 -15 -16zM225 703l-23 -22q-69 50 -149 90q29 33 42 33t66 -42t64 -59z" />
<glyph unicode="&#xcd;" horiz-adv-x="352" d="M234 586v-417q0 -67 3.5 -94.5t10 -34.5t24.5 -7h45v-33h-259v33h45q15 0 15 16v417q0 67 -3.5 94.5t-10 34.5t-24.5 7h-45v33h259v-33h-45q-15 0 -15 -16zM149 681l-23 22q11 17 64 59t66 42t42 -33q-80 -40 -149 -90z" />
<glyph unicode="&#xce;" horiz-adv-x="352" d="M234 586v-417q0 -67 3.5 -94.5t10 -34.5t24.5 -7h45v-33h-259v33h45q15 0 15 16v417q0 67 -3.5 94.5t-10 34.5t-24.5 7h-45v33h259v-33h-45q-15 0 -15 -16zM176 736q-21 -20 -54 -37t-58 -17q-7 0 -13 4t-13.5 12t-10.5 10q88 25 149 95q61 -70 149 -95q-3 -2 -10.5 -10 t-13.5 -12t-13 -4q-25 0 -58 17t-54 37z" />
<glyph unicode="&#xcf;" horiz-adv-x="352" d="M234 586v-417q0 -67 3.5 -94.5t10 -34.5t24.5 -7h45v-33h-259v33h45q15 0 15 16v417q0 67 -3.5 94.5t-10 34.5t-24.5 7h-45v33h259v-33h-45q-15 0 -15 -16zM104 700q-17 0 -29.5 12.5t-12.5 29.5q0 18 12 30.5t30 12.5t30.5 -12.5t12.5 -30.5q0 -17 -12.5 -29.5 t-30.5 -12.5zM228 700q-17 0 -29.5 12.5t-12.5 29.5q0 18 12 30.5t30 12.5t30.5 -12.5t12.5 -30.5q0 -17 -12.5 -29.5t-30.5 -12.5z" />
<glyph unicode="&#xd0;" horiz-adv-x="722" d="M58 0v33h45q15 0 15 16v276h-96v39h96v102q0 67 -3.5 94.5t-10 34.5t-24.5 7h-45v33h307q161 0 248 -88.5t87 -214.5q0 -43 -9.5 -86t-34.5 -88t-63 -79.5t-99.5 -56.5t-138.5 -22h-274zM234 582v-218h134v-39h-134v-70q0 -179 11 -203q7 -13 27 -13q124 -2 202 65 t78 186q0 144 -76.5 225t-189.5 81h-31q-21 0 -21 -14z" />
<glyph unicode="&#xd1;" horiz-adv-x="741" d="M198 635l399 -453v212q0 127 -7 175q-4 22 -11 27.5t-28 5.5h-40v33h187v-33h-28h-16.5t-8.5 -1.5t-5 -4t-1 -7.5v-587q0 -12 -10 -12q-7 0 -30 26l-442 502v-277q0 -127 7 -175q4 -22 11 -27.5t28 -5.5h40v-33h-187v33h28h16.5t8.5 1.5t5 4t1 7.5v455q0 44 -16.5 72.5 t-44.5 28.5h-29v33h173zM488 784l23 -14q-6 -29 -25.5 -49.5t-48.5 -20.5q-19 0 -62 17q-38 17 -56 17q-27 0 -44 -35l-23 14q6 29 25.5 49.5t48.5 20.5q24 0 62 -17q42 -17 56 -17q27 0 44 35z" />
<glyph unicode="&#xd2;" horiz-adv-x="741" d="M361 -19q-146 0 -234 87.5t-88 232.5q0 151 95 252t247 101q146 0 234 -87.5t88 -232.5q0 -151 -95 -252t-247 -101zM390 17q16 0 33 2.5t49 17t55.5 40t41.5 78.5t18 125q0 92 -23 161t-60.5 105.5t-75.5 54t-76 17.5q-16 0 -33 -2.5t-49 -17t-55.5 -40t-41.5 -78.5 t-18 -125q0 -92 23 -161t60.5 -105.5t75.5 -54t76 -17.5zM410 703l-23 -22q-69 50 -149 90q29 33 42 33t66 -42t64 -59z" />
<glyph unicode="&#xd3;" horiz-adv-x="741" d="M361 -19q-146 0 -234 87.5t-88 232.5q0 151 95 252t247 101q146 0 234 -87.5t88 -232.5q0 -151 -95 -252t-247 -101zM390 17q16 0 33 2.5t49 17t55.5 40t41.5 78.5t18 125q0 92 -23 161t-60.5 105.5t-75.5 54t-76 17.5q-16 0 -33 -2.5t-49 -17t-55.5 -40t-41.5 -78.5 t-18 -125q0 -92 23 -161t60.5 -105.5t75.5 -54t76 -17.5zM344 681l-23 22q11 17 64 59t66 42t42 -33q-80 -40 -149 -90z" />
<glyph unicode="&#xd4;" horiz-adv-x="741" d="M361 -19q-146 0 -234 87.5t-88 232.5q0 151 95 252t247 101q146 0 234 -87.5t88 -232.5q0 -151 -95 -252t-247 -101zM390 17q16 0 33 2.5t49 17t55.5 40t41.5 78.5t18 125q0 92 -23 161t-60.5 105.5t-75.5 54t-76 17.5q-16 0 -33 -2.5t-49 -17t-55.5 -40t-41.5 -78.5 t-18 -125q0 -92 23 -161t60.5 -105.5t75.5 -54t76 -17.5zM371 736q-21 -20 -54 -37t-58 -17q-7 0 -13 4t-13.5 12t-10.5 10q88 25 149 95q61 -70 149 -95q-3 -2 -10.5 -10t-13.5 -12t-13 -4q-25 0 -58 17t-54 37z" />
<glyph unicode="&#xd5;" horiz-adv-x="741" d="M361 -19q-146 0 -234 87.5t-88 232.5q0 151 95 252t247 101q146 0 234 -87.5t88 -232.5q0 -151 -95 -252t-247 -101zM390 17q16 0 33 2.5t49 17t55.5 40t41.5 78.5t18 125q0 92 -23 161t-60.5 105.5t-75.5 54t-76 17.5q-16 0 -33 -2.5t-49 -17t-55.5 -40t-41.5 -78.5 t-18 -125q0 -92 23 -161t60.5 -105.5t75.5 -54t76 -17.5zM463 784l23 -14q-6 -29 -25.5 -49.5t-48.5 -20.5q-20 0 -62 17q-38 17 -56 17q-27 0 -44 -35l-23 14q6 29 25.5 49.5t48.5 20.5q24 0 62 -17q43 -17 56 -17q27 0 44 35z" />
<glyph unicode="&#xd6;" horiz-adv-x="741" d="M361 -19q-146 0 -234 87.5t-88 232.5q0 151 95 252t247 101q146 0 234 -87.5t88 -232.5q0 -151 -95 -252t-247 -101zM390 17q16 0 33 2.5t49 17t55.5 40t41.5 78.5t18 125q0 92 -23 161t-60.5 105.5t-75.5 54t-76 17.5q-16 0 -33 -2.5t-49 -17t-55.5 -40t-41.5 -78.5 t-18 -125q0 -92 23 -161t60.5 -105.5t75.5 -54t76 -17.5zM309 700q-17 0 -29.5 12.5t-12.5 29.5q0 18 12 30.5t30 12.5t30.5 -12.5t12.5 -30.5q0 -17 -12.5 -29.5t-30.5 -12.5zM433 700q-17 0 -29.5 12.5t-12.5 29.5q0 18 12 30.5t30 12.5t30.5 -12.5t12.5 -30.5 q0 -17 -12.5 -29.5t-30.5 -12.5z" />
<glyph unicode="&#xd7;" d="M217 213l-159 159l52 52l159 -159l159 159l52 -52l-159 -159l159 -159l-52 -52l-159 159l-159 -159l-52 52z" />
<glyph unicode="&#xd8;" horiz-adv-x="741" d="M511 537l-254 -466q60 -54 133 -54q16 0 33 2.5t49 17t55.5 40t41.5 78.5t18 125q0 167 -76 257zM231 98l255 465q-60 55 -134 55q-16 0 -33 -2.5t-49 -17t-55.5 -40t-41.5 -78.5t-18 -125q0 -167 76 -257zM603 705l-50 -92q71 -39 110.5 -111t39.5 -168q0 -151 -95 -252 t-247 -101q-76 0 -139 26l-42 -77h-40l50 92q-72 39 -111.5 111t-39.5 168q0 151 95 252t247 101q77 0 140 -26l42 77h40z" />
<glyph unicode="&#xd9;" horiz-adv-x="722" d="M290 635v-33h-45q-15 0 -15 -16v-336q0 -31 1.5 -54t11 -57.5t26.5 -56.5t50.5 -38.5t79.5 -16.5q19 0 37.5 2.5t48.5 14.5t51.5 32.5t38 62.5t16.5 99v156q0 127 -7 175q-4 22 -11 27.5t-28 5.5h-40v33h187v-33h-28h-16.5t-8.5 -1.5t-5 -4t-1 -7.5v-354 q0 -66 -22.5 -116.5t-60.5 -79.5t-83 -43.5t-95 -14.5q-73 0 -125.5 18.5t-80.5 51t-40 69t-12 80.5v266q0 67 -3.5 94.5t-10 34.5t-24.5 7h-45v33h259zM410 703l-23 -22q-69 50 -149 90q29 33 42 33t66 -42t64 -59z" />
<glyph unicode="&#xda;" horiz-adv-x="722" d="M290 635v-33h-45q-15 0 -15 -16v-336q0 -31 1.5 -54t11 -57.5t26.5 -56.5t50.5 -38.5t79.5 -16.5q19 0 37.5 2.5t48.5 14.5t51.5 32.5t38 62.5t16.5 99v156q0 127 -7 175q-4 22 -11 27.5t-28 5.5h-40v33h187v-33h-28h-16.5t-8.5 -1.5t-5 -4t-1 -7.5v-354 q0 -66 -22.5 -116.5t-60.5 -79.5t-83 -43.5t-95 -14.5q-73 0 -125.5 18.5t-80.5 51t-40 69t-12 80.5v266q0 67 -3.5 94.5t-10 34.5t-24.5 7h-45v33h259zM394 681l-23 22q11 17 64 59t66 42t42 -33q-80 -40 -149 -90z" />
<glyph unicode="&#xdb;" horiz-adv-x="722" d="M290 635v-33h-45q-15 0 -15 -16v-336q0 -31 1.5 -54t11 -57.5t26.5 -56.5t50.5 -38.5t79.5 -16.5q19 0 37.5 2.5t48.5 14.5t51.5 32.5t38 62.5t16.5 99v156q0 127 -7 175q-4 22 -11 27.5t-28 5.5h-40v33h187v-33h-28h-16.5t-8.5 -1.5t-5 -4t-1 -7.5v-354 q0 -66 -22.5 -116.5t-60.5 -79.5t-83 -43.5t-95 -14.5q-73 0 -125.5 18.5t-80.5 51t-40 69t-12 80.5v266q0 67 -3.5 94.5t-10 34.5t-24.5 7h-45v33h259zM391 736q-21 -20 -54 -37t-58 -17q-7 0 -13 4t-13.5 12t-10.5 10q88 25 149 95q61 -70 149 -95q-3 -2 -10.5 -10 t-13.5 -12t-13 -4q-25 0 -58 17t-54 37z" />
<glyph unicode="&#xdc;" horiz-adv-x="722" d="M290 635v-33h-45q-15 0 -15 -16v-336q0 -31 1.5 -54t11 -57.5t26.5 -56.5t50.5 -38.5t79.5 -16.5q19 0 37.5 2.5t48.5 14.5t51.5 32.5t38 62.5t16.5 99v156q0 127 -7 175q-4 22 -11 27.5t-28 5.5h-40v33h187v-33h-28h-16.5t-8.5 -1.5t-5 -4t-1 -7.5v-354 q0 -66 -22.5 -116.5t-60.5 -79.5t-83 -43.5t-95 -14.5q-73 0 -125.5 18.5t-80.5 51t-40 69t-12 80.5v266q0 67 -3.5 94.5t-10 34.5t-24.5 7h-45v33h259zM329 700q-17 0 -29.5 12.5t-12.5 29.5q0 18 12 30.5t30 12.5t30.5 -12.5t12.5 -30.5q0 -17 -12.5 -29.5t-30.5 -12.5z M453 700q-17 0 -29.5 12.5t-12.5 29.5q0 18 12 30.5t30 12.5t30.5 -12.5t12.5 -30.5q0 -17 -12.5 -29.5t-30.5 -12.5z" />
<glyph unicode="&#xdd;" horiz-adv-x="593" d="M355 277v-108q0 -67 3.5 -94.5t10 -34.5t24.5 -7h45v-33h-259v33h45q15 0 15 16v222l-132 239q-24 44 -39 64.5t-21 24t-16 3.5h-36v33h256v-33h-53q-7 0 -7 -6q0 -2 5 -11l4 -9l139 -254q129 235 129 267q0 13 -22 13h-52v33h186v-33h-25q-16 0 -22 -5t-17 -24zM310 681 l-23 22q11 17 64 59t66 42t42 -33q-80 -40 -149 -90z" />
<glyph unicode="&#xde;" horiz-adv-x="556" d="M234 190v-21q0 -67 3.5 -94.5t10 -34.5t24.5 -7h45v-33h-259v33h45q15 0 15 16v417q0 67 -3.5 94.5t-10 34.5t-24.5 7h-45v33h259v-33h-45q-15 0 -15 -16v-61h89q64 0 110 -16.5t68.5 -44.5t32 -55.5t9.5 -56.5q0 -76 -65 -125.5t-156 -49.5q-46 0 -88 13zM234 473v-249 q24 -11 61 -11q58 0 95 34t37 92q0 23 -7.5 46.5t-24 47t-48 38.5t-73.5 15h-27q-13 0 -13 -13z" />
<glyph unicode="&#xdf;" horiz-adv-x="556" d="M173 546v-377q0 -88 5.5 -113.5t26.5 -25.5h33v-30h-224v30h36q6 0 9.5 1t6 4.5t2.5 10.5v350h-61v30h61v19v28v30t1 26.5t3.5 29l6 25.5t10 27t15.5 23q61 78 175 78q83 0 141.5 -46t58.5 -128v-14q-56 -2 -100 -27t-44 -75q0 -31 15.5 -57.5t39 -43.5l50.5 -37 l50.5 -38t39 -47.5t15.5 -64.5q0 -67 -53.5 -108.5t-122.5 -41.5q-46 0 -90 21t-44 62q0 15 9.5 23t24.5 8q27 0 44.5 -22.5t22.5 -52.5q16 -6 24 -6q35 0 61 25.5t26 61.5q0 31 -21 58t-50.5 47.5t-59 43.5t-50.5 57t-21 76q0 59 36 98.5t94 47.5q3 10 3 21q0 55 -27 90.5 t-81 35.5q-52 0 -74.5 -38.5t-22.5 -94.5z" />
<glyph unicode="&#xe0;" horiz-adv-x="463" d="M275 103v132l-18 -7q-123 -49 -123 -121q0 -23 12.5 -38t35.5 -15q48 0 93 49zM224 250l51 21v29q0 29 -1.5 43.5t-7.5 30t-20.5 21.5t-38.5 6q-39 0 -68 -20q0 -43 -18 -71.5t-50 -28.5q-14 0 -24.5 9t-10.5 23q0 55 74 92t149 37q80 0 100.5 -27t20.5 -113v-154 q0 -58 13 -77.5t57 -27.5l-39 -59q-96 0 -128 82q-102 -82 -160 -82q-43 0 -68.5 27.5t-25.5 70.5q0 16 3.5 30t13 27l17 22.5t24.5 20.5t25 17t29.5 16t27.5 12.5l29.5 12t25.5 10.5zM281 509l-23 -22q-69 50 -149 90q29 33 42 33t66 -42t64 -59z" />
<glyph unicode="&#xe1;" horiz-adv-x="463" d="M275 103v132l-18 -7q-123 -49 -123 -121q0 -23 12.5 -38t35.5 -15q48 0 93 49zM224 250l51 21v29q0 29 -1.5 43.5t-7.5 30t-20.5 21.5t-38.5 6q-39 0 -68 -20q0 -43 -18 -71.5t-50 -28.5q-14 0 -24.5 9t-10.5 23q0 55 74 92t149 37q80 0 100.5 -27t20.5 -113v-154 q0 -58 13 -77.5t57 -27.5l-39 -59q-96 0 -128 82q-102 -82 -160 -82q-43 0 -68.5 27.5t-25.5 70.5q0 16 3.5 30t13 27l17 22.5t24.5 20.5t25 17t29.5 16t27.5 12.5l29.5 12t25.5 10.5zM205 487l-23 22q11 17 64 59t66 42t42 -33q-80 -40 -149 -90z" />
<glyph unicode="&#xe2;" horiz-adv-x="463" d="M275 103v132l-18 -7q-123 -49 -123 -121q0 -23 12.5 -38t35.5 -15q48 0 93 49zM224 250l51 21v29q0 29 -1.5 43.5t-7.5 30t-20.5 21.5t-38.5 6q-39 0 -68 -20q0 -43 -18 -71.5t-50 -28.5q-14 0 -24.5 9t-10.5 23q0 55 74 92t149 37q80 0 100.5 -27t20.5 -113v-154 q0 -58 13 -77.5t57 -27.5l-39 -59q-96 0 -128 82q-102 -82 -160 -82q-43 0 -68.5 27.5t-25.5 70.5q0 16 3.5 30t13 27l17 22.5t24.5 20.5t25 17t29.5 16t27.5 12.5l29.5 12t25.5 10.5zM232 542q-21 -20 -54 -37t-58 -17q-7 0 -13 4t-13.5 12t-10.5 10q88 25 149 95 q61 -70 149 -95q-3 -2 -10.5 -10t-13.5 -12t-13 -4q-25 0 -58 17t-54 37z" />
<glyph unicode="&#xe3;" horiz-adv-x="463" d="M275 103v132l-18 -7q-123 -49 -123 -121q0 -23 12.5 -38t35.5 -15q48 0 93 49zM224 250l51 21v29q0 29 -1.5 43.5t-7.5 30t-20.5 21.5t-38.5 6q-39 0 -68 -20q0 -43 -18 -71.5t-50 -28.5q-14 0 -24.5 9t-10.5 23q0 55 74 92t149 37q80 0 100.5 -27t20.5 -113v-154 q0 -58 13 -77.5t57 -27.5l-39 -59q-96 0 -128 82q-102 -82 -160 -82q-43 0 -68.5 27.5t-25.5 70.5q0 16 3.5 30t13 27l17 22.5t24.5 20.5t25 17t29.5 16t27.5 12.5l29.5 12t25.5 10.5zM329 590l23 -14q-6 -29 -25.5 -49.5t-48.5 -20.5q-20 0 -62 17q-38 17 -56 17 q-27 0 -44 -35l-23 14q6 29 25.5 49.5t48.5 20.5q24 0 62 -17q43 -17 56 -17q27 0 44 35z" />
<glyph unicode="&#xe4;" horiz-adv-x="463" d="M275 103v132l-18 -7q-123 -49 -123 -121q0 -23 12.5 -38t35.5 -15q48 0 93 49zM224 250l51 21v29q0 29 -1.5 43.5t-7.5 30t-20.5 21.5t-38.5 6q-39 0 -68 -20q0 -43 -18 -71.5t-50 -28.5q-14 0 -24.5 9t-10.5 23q0 55 74 92t149 37q80 0 100.5 -27t20.5 -113v-154 q0 -58 13 -77.5t57 -27.5l-39 -59q-96 0 -128 82q-102 -82 -160 -82q-43 0 -68.5 27.5t-25.5 70.5q0 16 3.5 30t13 27l17 22.5t24.5 20.5t25 17t29.5 16t27.5 12.5l29.5 12t25.5 10.5zM170 506q-17 0 -29.5 12.5t-12.5 29.5q0 18 12 30.5t30 12.5t30.5 -12.5t12.5 -30.5 q0 -17 -12.5 -29.5t-30.5 -12.5zM294 506q-17 0 -29.5 12.5t-12.5 29.5q0 18 12 30.5t30 12.5t30.5 -12.5t12.5 -30.5q0 -17 -12.5 -29.5t-30.5 -12.5z" />
<glyph unicode="&#xe5;" horiz-adv-x="463" d="M275 103v132l-18 -7q-123 -49 -123 -121q0 -23 12.5 -38t35.5 -15q48 0 93 49zM224 250l51 21v29q0 29 -1.5 43.5t-7.5 30t-20.5 21.5t-38.5 6q-39 0 -68 -20q0 -43 -18 -71.5t-50 -28.5q-14 0 -24.5 9t-10.5 23q0 55 74 92t149 37q80 0 100.5 -27t20.5 -113v-154 q0 -58 13 -77.5t57 -27.5l-39 -59q-96 0 -128 82q-102 -82 -160 -82q-43 0 -68.5 27.5t-25.5 70.5q0 16 3.5 30t13 27l17 22.5t24.5 20.5t25 17t29.5 16t27.5 12.5l29.5 12t25.5 10.5zM232 491q-39 0 -65.5 26.5t-26.5 64.5q0 39 26.5 65t65.5 26t65.5 -26t26.5 -65 t-26.5 -65t-65.5 -26zM232 528q23 0 39 16t16 38q0 23 -16 38.5t-39 15.5t-39 -15.5t-16 -38.5t16 -38.5t39 -15.5z" />
<glyph unicode="&#xe6;" horiz-adv-x="685" d="M379 254l174 48q-41 107 -93 107q-23 0 -40 -17t-25.5 -42.5t-12.5 -50.5t-3 -45zM664 298l-284 -75q4 -81 39 -133.5t110 -52.5q65 0 124 46l15 -23q-82 -76 -195 -76q-55 0 -100 26.5t-70 74.5q-2 -2 -22 -19t-25.5 -21t-23 -18t-27 -18.5l-25 -12t-29 -10t-28.5 -2.5 q-43 0 -68.5 27.5t-25.5 70.5q0 16 3.5 30t13 27l17 22.5t24.5 20.5t25 17t29.5 16t27.5 12.5l29.5 12t25.5 10.5l51 21v29q0 29 -1.5 43.5t-7.5 30t-20.5 21.5t-38.5 6q-39 0 -68 -20q0 -43 -18 -71.5t-50 -28.5q-14 0 -24.5 9t-10.5 23q0 55 74 92t149 37q96 0 96 -54 q48 54 125 54q66 0 109.5 -38t74.5 -106zM275 103v132l-18 -7q-123 -49 -123 -121q0 -23 12.5 -38t35.5 -15q48 0 93 49z" />
<glyph unicode="&#xe7;" horiz-adv-x="444" d="M409 73l17 -21q-63 -65 -168 -68q-22 -26 -22 -33q0 -4 24.5 -8.5t49 -17t24.5 -35.5q0 -31 -31.5 -47t-65.5 -16q-22 0 -44.5 7t-22.5 25q0 15 20 15q22 0 37 -25q7 -3 15 -3q18 0 34 8.5t16 24.5q0 17 -26 25t-52 13t-26 15q0 11 37 53q-88 7 -138.5 66t-50.5 152 q0 114 69 176.5t161 62.5q51 0 99.5 -28t48.5 -68q0 -16 -11.5 -25.5t-28.5 -9.5q-32 0 -53 29t-22 62q-11 7 -36 7q-62 0 -90 -54t-28 -122q0 -85 37.5 -140.5t118.5 -55.5q63 0 108 36z" />
<glyph unicode="&#xe8;" horiz-adv-x="463" d="M418 83l15 -23q-82 -76 -195 -76q-96 0 -149 62t-53 159q0 99 56.5 168t152.5 69q66 0 109.5 -38t74.5 -106l-284 -75q4 -81 39 -133.5t110 -52.5q65 0 124 46zM144 254l7 2l167 46q-41 107 -93 107q-23 0 -40 -17t-25.5 -42.5t-12.5 -50.5t-3 -45zM281 509l-23 -22 q-69 50 -149 90q29 33 42 33t66 -42t64 -59z" />
<glyph unicode="&#xe9;" horiz-adv-x="463" d="M418 83l15 -23q-82 -76 -195 -76q-96 0 -149 62t-53 159q0 99 56.5 168t152.5 69q66 0 109.5 -38t74.5 -106l-284 -75q4 -81 39 -133.5t110 -52.5q65 0 124 46zM144 254l7 2l167 46q-41 107 -93 107q-23 0 -40 -17t-25.5 -42.5t-12.5 -50.5t-3 -45zM205 487l-23 22 q11 17 64 59t66 42t42 -33q-80 -40 -149 -90z" />
<glyph unicode="&#xea;" horiz-adv-x="463" d="M418 83l15 -23q-82 -76 -195 -76q-96 0 -149 62t-53 159q0 99 56.5 168t152.5 69q66 0 109.5 -38t74.5 -106l-284 -75q4 -81 39 -133.5t110 -52.5q65 0 124 46zM144 254l7 2l167 46q-41 107 -93 107q-23 0 -40 -17t-25.5 -42.5t-12.5 -50.5t-3 -45zM242 542 q-21 -20 -54 -37t-58 -17q-7 0 -13 4t-13.5 12t-10.5 10q88 25 149 95q61 -70 149 -95q-3 -2 -10.5 -10t-13.5 -12t-13 -4q-25 0 -58 17t-54 37z" />
<glyph unicode="&#xeb;" horiz-adv-x="463" d="M418 83l15 -23q-82 -76 -195 -76q-96 0 -149 62t-53 159q0 99 56.5 168t152.5 69q66 0 109.5 -38t74.5 -106l-284 -75q4 -81 39 -133.5t110 -52.5q65 0 124 46zM144 254l7 2l167 46q-41 107 -93 107q-23 0 -40 -17t-25.5 -42.5t-12.5 -50.5t-3 -45zM170 506 q-17 0 -29.5 12.5t-12.5 29.5q0 18 12 30.5t30 12.5t30.5 -12.5t12.5 -30.5q0 -17 -12.5 -29.5t-30.5 -12.5zM294 506q-17 0 -29.5 12.5t-12.5 29.5q0 18 12 30.5t30 12.5t30.5 -12.5t12.5 -30.5q0 -17 -12.5 -29.5t-30.5 -12.5z" />
<glyph unicode="&#xec;" horiz-adv-x="296" d="M201 442v-273q0 -88 5.5 -113.5t26.5 -25.5h44v-30h-235v30h36q6 0 9.5 1t6 4.5t2.5 10.5v204q0 87 -5 116t-29 29h-42v30q143 12 181 17zM187 509l-23 -22q-69 50 -149 90q29 33 42 33t66 -42t64 -59z" />
<glyph unicode="&#xed;" horiz-adv-x="296" d="M201 442v-273q0 -88 5.5 -113.5t26.5 -25.5h44v-30h-235v30h36q6 0 9.5 1t6 4.5t2.5 10.5v204q0 87 -5 116t-29 29h-42v30q143 12 181 17zM121 487l-23 22q11 17 64 59t66 42t42 -33q-80 -40 -149 -90z" />
<glyph unicode="&#xee;" horiz-adv-x="296" d="M201 442v-273q0 -88 5.5 -113.5t26.5 -25.5h44v-30h-235v30h36q6 0 9.5 1t6 4.5t2.5 10.5v204q0 87 -5 116t-29 29h-42v30q143 12 181 17zM118 542q-21 -20 -54 -37t-58 -17q-7 0 -13 4t-13.5 12t-10.5 10q88 25 149 95q61 -70 149 -95q-3 -2 -10.5 -10t-13.5 -12t-13 -4 q-25 0 -58 17t-54 37z" />
<glyph unicode="&#xef;" horiz-adv-x="296" d="M201 442v-273q0 -88 5.5 -113.5t26.5 -25.5h44v-30h-235v30h36q6 0 9.5 1t6 4.5t2.5 10.5v204q0 87 -5 116t-29 29h-42v30q143 12 181 17zM66 506q-17 0 -29.5 12.5t-12.5 29.5q0 18 12 30.5t30 12.5t30.5 -12.5t12.5 -30.5q0 -17 -12.5 -29.5t-30.5 -12.5zM190 506 q-17 0 -29.5 12.5t-12.5 29.5q0 18 12 30.5t30 12.5t30.5 -12.5t12.5 -30.5q0 -17 -12.5 -29.5t-30.5 -12.5z" />
<glyph unicode="&#xf0;" horiz-adv-x="519" d="M134 520l114 75q-52 50 -125 86l47 31q80 -25 141 -75l103 68l30 -21l-106 -70q53 -50 88 -117.5t46 -115.5t11 -85q0 -136 -61 -224t-174 -88q-97 0 -154.5 59t-57.5 159q0 103 67 171.5t168 68.5q48 0 86 -28q-20 89 -84 157l-109 -72zM145 249q0 -35 5.5 -70.5t19 -74 t40.5 -63t65 -24.5q10 0 21.5 5t26 19.5t25.5 37t18.5 62.5t7.5 91q0 83 -36.5 130t-93.5 47q-99 0 -99 -160z" />
<glyph unicode="&#xf1;" horiz-adv-x="556" d="M193 442v-72q97 72 157 72q121 0 121 -138v-135q0 -88 5.5 -113.5t26.5 -25.5h38v-30h-221v30h28q6 0 9.5 1t6 4.5t2.5 10.5v208q0 22 -0.5 33t-2.5 29t-6.5 26.5t-12.5 18.5t-21 14t-31 4q-50 0 -99 -46v-164q0 -88 5.5 -113.5t26.5 -25.5h35v-30h-226v30h36q6 0 9.5 1 t6 4.5t2.5 10.5v204q0 87 -5 116t-29 29h-42v30q143 12 181 17zM375 590l23 -14q-6 -29 -25.5 -49.5t-48.5 -20.5q-20 0 -62 17q-38 17 -56 17q-27 0 -44 -35l-23 14q6 29 25.5 49.5t48.5 20.5q24 0 62 -17q43 -17 56 -17q27 0 44 35z" />
<glyph unicode="&#xf2;" horiz-adv-x="519" d="M271 442q97 0 154.5 -59t57.5 -159q0 -103 -67 -171.5t-168 -68.5q-97 0 -154.5 59t-57.5 159q0 103 67 171.5t168 68.5zM145 249q0 -35 5.5 -70.5t19 -74t40.5 -63t65 -24.5q99 0 99 159q0 35 -5.5 71t-19 74.5t-40.5 63t-65 24.5q-99 0 -99 -160zM289 509l-23 -22 q-69 50 -149 90q29 33 42 33t66 -42t64 -59z" />
<glyph unicode="&#xf3;" horiz-adv-x="519" d="M271 442q97 0 154.5 -59t57.5 -159q0 -103 -67 -171.5t-168 -68.5q-97 0 -154.5 59t-57.5 159q0 103 67 171.5t168 68.5zM145 249q0 -35 5.5 -70.5t19 -74t40.5 -63t65 -24.5q99 0 99 159q0 35 -5.5 71t-19 74.5t-40.5 63t-65 24.5q-99 0 -99 -160zM233 487l-23 22 q11 17 64 59t66 42t42 -33q-80 -40 -149 -90z" />
<glyph unicode="&#xf4;" horiz-adv-x="519" d="M271 442q97 0 154.5 -59t57.5 -159q0 -103 -67 -171.5t-168 -68.5q-97 0 -154.5 59t-57.5 159q0 103 67 171.5t168 68.5zM145 249q0 -35 5.5 -70.5t19 -74t40.5 -63t65 -24.5q99 0 99 159q0 35 -5.5 71t-19 74.5t-40.5 63t-65 24.5q-99 0 -99 -160zM260 542 q-21 -20 -54 -37t-58 -17q-7 0 -13 4t-13.5 12t-10.5 10q88 25 149 95q61 -70 149 -95q-3 -2 -10.5 -10t-13.5 -12t-13 -4q-25 0 -58 17t-54 37z" />
<glyph unicode="&#xf5;" horiz-adv-x="519" d="M271 442q97 0 154.5 -59t57.5 -159q0 -103 -67 -171.5t-168 -68.5q-97 0 -154.5 59t-57.5 159q0 103 67 171.5t168 68.5zM145 249q0 -35 5.5 -70.5t19 -74t40.5 -63t65 -24.5q99 0 99 159q0 35 -5.5 71t-19 74.5t-40.5 63t-65 24.5q-99 0 -99 -160zM367 590l23 -14 q-6 -29 -25.5 -49.5t-48.5 -20.5q-20 0 -62 17q-38 17 -56 17q-27 0 -44 -35l-23 14q6 29 25.5 49.5t48.5 20.5q24 0 62 -17q43 -17 56 -17q27 0 44 35z" />
<glyph unicode="&#xf6;" horiz-adv-x="519" d="M271 442q97 0 154.5 -59t57.5 -159q0 -103 -67 -171.5t-168 -68.5q-97 0 -154.5 59t-57.5 159q0 103 67 171.5t168 68.5zM145 249q0 -35 5.5 -70.5t19 -74t40.5 -63t65 -24.5q99 0 99 159q0 35 -5.5 71t-19 74.5t-40.5 63t-65 24.5q-99 0 -99 -160zM198 506 q-17 0 -29.5 12.5t-12.5 29.5q0 18 12 30.5t30 12.5t30.5 -12.5t12.5 -30.5q0 -17 -12.5 -29.5t-30.5 -12.5zM322 506q-17 0 -29.5 12.5t-12.5 29.5q0 18 12 30.5t30 12.5t30.5 -12.5t12.5 -30.5q0 -17 -12.5 -29.5t-30.5 -12.5z" />
<glyph unicode="&#xf7;" d="M480 177h-422v73h422v-73zM270 312q-26 0 -42 15.5t-16 40.5t16 40.5t42 15.5t42 -15.5t16 -40.5t-16 -40.5t-42 -15.5zM270 115q26 0 42 -15.5t16 -40.5t-16 -40.5t-42 -15.5t-42 15.5t-16 40.5t16 40.5t42 15.5z" />
<glyph unicode="&#xf8;" horiz-adv-x="519" d="M346 329l-157 -263q34 -49 86 -49q99 0 99 159q0 91 -28 153zM172 97l157 263q-34 49 -85 49q-99 0 -99 -160q0 -89 27 -152zM435 477l-41 -68q89 -57 89 -185q0 -103 -67 -171.5t-168 -68.5q-54 0 -96 20l-33 -55h-35l41 69q-89 56 -89 184q0 103 67 171.5t168 68.5 q52 0 96 -19l33 54h35z" />
<glyph unicode="&#xf9;" horiz-adv-x="556" d="M281 395v30q150 13 177 17v-294q0 -58 13 -77.5t57 -27.5l-39 -59h-13q-35 0 -69 21.5t-46 52.5l-51 -37.5t-45 -24t-54 -12.5q-38 0 -64.5 13t-39 29.5t-19.5 45t-8 44.5t-1 43v91q0 87 -5 116t-29 29h-38v30q150 13 177 17v-294q0 -29 3.5 -48t19.5 -36t45 -17 q47 0 104 44q-3 15 -3 50v109q0 87 -5 116t-29 29h-38zM312 509l-23 -22q-69 50 -149 90q29 33 42 33t66 -42t64 -59z" />
<glyph unicode="&#xfa;" horiz-adv-x="556" d="M281 395v30q150 13 177 17v-294q0 -58 13 -77.5t57 -27.5l-39 -59h-13q-35 0 -69 21.5t-46 52.5l-51 -37.5t-45 -24t-54 -12.5q-38 0 -64.5 13t-39 29.5t-19.5 45t-8 44.5t-1 43v91q0 87 -5 116t-29 29h-38v30q150 13 177 17v-294q0 -29 3.5 -48t19.5 -36t45 -17 q47 0 104 44q-3 15 -3 50v109q0 87 -5 116t-29 29h-38zM251 487l-23 22q11 17 64 59t66 42t42 -33q-80 -40 -149 -90z" />
<glyph unicode="&#xfb;" horiz-adv-x="556" d="M281 395v30q150 13 177 17v-294q0 -58 13 -77.5t57 -27.5l-39 -59h-13q-35 0 -69 21.5t-46 52.5l-51 -37.5t-45 -24t-54 -12.5q-38 0 -64.5 13t-39 29.5t-19.5 45t-8 44.5t-1 43v91q0 87 -5 116t-29 29h-38v30q150 13 177 17v-294q0 -29 3.5 -48t19.5 -36t45 -17 q47 0 104 44q-3 15 -3 50v109q0 87 -5 116t-29 29h-38zM258 542q-21 -20 -54 -37t-58 -17q-7 0 -13 4t-13.5 12t-10.5 10q88 25 149 95q61 -70 149 -95q-3 -2 -10.5 -10t-13.5 -12t-13 -4q-25 0 -58 17t-54 37z" />
<glyph unicode="&#xfc;" horiz-adv-x="556" d="M281 395v30q150 13 177 17v-294q0 -58 13 -77.5t57 -27.5l-39 -59h-13q-35 0 -69 21.5t-46 52.5l-51 -37.5t-45 -24t-54 -12.5q-38 0 -64.5 13t-39 29.5t-19.5 45t-8 44.5t-1 43v91q0 87 -5 116t-29 29h-38v30q150 13 177 17v-294q0 -29 3.5 -48t19.5 -36t45 -17 q47 0 104 44q-3 15 -3 50v109q0 87 -5 116t-29 29h-38zM216 506q-17 0 -29.5 12.5t-12.5 29.5q0 18 12 30.5t30 12.5t30.5 -12.5t12.5 -30.5q0 -17 -12.5 -29.5t-30.5 -12.5zM340 506q-17 0 -29.5 12.5t-12.5 29.5q0 18 12 30.5t30 12.5t30.5 -12.5t12.5 -30.5 q0 -17 -12.5 -29.5t-30.5 -12.5z" />
<glyph unicode="&#xfd;" horiz-adv-x="500" d="M490 426v-30h-21q-22 0 -29 -17q-13 -33 -45.5 -102.5l-95.5 -207.5l-135 -301q-62 -18 -112 -18q-14 0 -14 13q0 8 20 17q87 39 170 223l-128 276q-44 93 -58 107q-10 10 -21 10h-21v30h222v-30h-39q-16 0 -16 -9q0 -4 11 -29l43.5 -95l64.5 -144q100 237 100 257 q0 12 -6 16t-21 4h-43v30h174zM233 487l-23 22q11 17 64 59t66 42t42 -33q-80 -40 -149 -90z" />
<glyph unicode="&#xfe;" horiz-adv-x="556" d="M198 705v-327q30 21 47.5 32t45.5 21.5t56 10.5q77 0 119.5 -63.5t42.5 -145.5q0 -111 -62 -180t-172 -69q-35 0 -77 24v-48q0 -114 5.5 -144t26.5 -30h53v-30h-244v30h36q6 0 9.5 1t6 4.5t2.5 10.5v667q0 78 -3.5 118t-10 53t-19.5 13h-42v30q120 12 180 22zM198 342 v-300q38 -25 78 -25q47 0 76 28.5t38.5 66t9.5 84.5q0 183 -113 183q-40 0 -89 -37z" />
<glyph unicode="&#xff;" horiz-adv-x="500" d="M490 426v-30h-21q-22 0 -29 -17q-13 -33 -45.5 -102.5l-95.5 -207.5l-135 -301q-62 -18 -112 -18q-14 0 -14 13q0 8 20 17q87 39 170 223l-128 276q-44 93 -58 107q-10 10 -21 10h-21v30h222v-30h-39q-16 0 -16 -9q0 -4 11 -29l43.5 -95l64.5 -144q100 237 100 257 q0 12 -6 16t-21 4h-43v30h174zM208 506q-17 0 -29.5 12.5t-12.5 29.5q0 18 12 30.5t30 12.5t30.5 -12.5t12.5 -30.5q0 -17 -12.5 -29.5t-30.5 -12.5zM332 506q-17 0 -29.5 12.5t-12.5 29.5q0 18 12 30.5t30 12.5t30.5 -12.5t12.5 -30.5q0 -17 -12.5 -29.5t-30.5 -12.5z" />
<glyph unicode="&#x152;" horiz-adv-x="1000" d="M924 0h-422q-8 0 -25 -1.5t-20 -1.5q-34 -2 -55 -2q-77 0 -137 20t-96 51t-59.5 72t-32 78.5t-8.5 75.5q0 150 114.5 246.5t317.5 96.5h420l-10 -81q-5 -19 -14 -21q-12 0 -14 17q-1 10 -7.5 16.5t-13 9t-18.5 5.5q-56 15 -160 15h-41q-13 0 -13 -13v-219h93q52 0 76 5 t29 12t5 24v35h30v-176h-30v36q0 10 -5 15t-29.5 9t-75.5 4h-93v-73q0 -179 11 -203q7 -13 27 -13h35q190 0 221 55q7 13 15 13q11 0 11 -12q0 -7 -26 -95zM514 67v380q0 83 -6 113.5t-21 30.5h-33q-115 0 -192 -72.5t-77 -194.5q0 -35 6.5 -71t24.5 -76t45 -70.5 t73.5 -50.5t104.5 -20q75 0 75 22v9z" />
<glyph unicode="&#x153;" horiz-adv-x="778" d="M238 409q-99 0 -99 -160q0 -35 5.5 -70.5t19 -74t40.5 -63t65 -24.5q99 0 99 159q0 35 -5.5 71t-19 74.5t-40.5 63t-65 24.5zM761 298l-284 -75q4 -81 39 -133.5t110 -52.5q65 0 124 46l15 -23q-82 -76 -195 -76q-105 0 -156 73q-67 -73 -172 -73q-97 0 -154.5 59 t-57.5 159q0 103 67 171.5t168 68.5q104 0 162 -67q57 67 150 67q66 0 109.5 -38t74.5 -106zM476 254l7 2l167 46q-41 107 -93 107q-23 0 -40 -17t-25.5 -42.5t-12.5 -50.5t-3 -45z" />
<glyph unicode="&#x178;" horiz-adv-x="593" d="M355 277v-108q0 -67 3.5 -94.5t10 -34.5t24.5 -7h45v-33h-259v33h45q15 0 15 16v222l-132 239q-24 44 -39 64.5t-21 24t-16 3.5h-36v33h256v-33h-53q-7 0 -7 -6q0 -2 5 -11l4 -9l139 -254q129 235 129 267q0 13 -22 13h-52v33h186v-33h-25q-16 0 -22 -5t-17 -24zM255 700 q-17 0 -29.5 12.5t-12.5 29.5q0 18 12 30.5t30 12.5t30.5 -12.5t12.5 -30.5q0 -17 -12.5 -29.5t-30.5 -12.5zM379 700q-17 0 -29.5 12.5t-12.5 29.5q0 18 12 30.5t30 12.5t30.5 -12.5t12.5 -30.5q0 -17 -12.5 -29.5t-30.5 -12.5z" />
<glyph unicode="&#x2c6;" horiz-adv-x="296" d="M148 542q-21 -20 -54 -37t-58 -17q-7 0 -13 4t-13.5 12t-10.5 10q88 25 149 95q61 -70 149 -95q-3 -2 -10.5 -10t-13.5 -12t-13 -4q-25 0 -58 17t-54 37z" />
<glyph unicode="&#x2dc;" horiz-adv-x="296" d="M255 590l23 -14q-6 -29 -25.5 -49.5t-48.5 -20.5q-20 0 -62 17q-38 17 -56 17q-27 0 -44 -35l-23 14q6 29 25.5 49.5t48.5 20.5q24 0 62 -17q43 -17 56 -17q27 0 44 35z" />
<glyph unicode="&#x2000;" horiz-adv-x="423" />
<glyph unicode="&#x2001;" horiz-adv-x="847" />
<glyph unicode="&#x2002;" horiz-adv-x="423" />
<glyph unicode="&#x2003;" horiz-adv-x="847" />
<glyph unicode="&#x2004;" horiz-adv-x="282" />
<glyph unicode="&#x2005;" horiz-adv-x="211" />
<glyph unicode="&#x2006;" horiz-adv-x="141" />
<glyph unicode="&#x2007;" horiz-adv-x="141" />
<glyph unicode="&#x2008;" horiz-adv-x="105" />
<glyph unicode="&#x2009;" horiz-adv-x="169" />
<glyph unicode="&#x200a;" horiz-adv-x="47" />
<glyph unicode="&#x2010;" horiz-adv-x="276" d="M40 260h111q81 0 105 4q8 3 13 3q4 0 4 -4q0 -3 -3 -9l-31 -67h-113q-93 0 -107 -6q-7 -3 -12 -3q-4 0 -4 4q0 2 1 5.5t3 7t2 4.5z" />
<glyph unicode="&#x2011;" horiz-adv-x="276" d="M40 260h111q81 0 105 4q8 3 13 3q4 0 4 -4q0 -3 -3 -9l-31 -67h-113q-93 0 -107 -6q-7 -3 -12 -3q-4 0 -4 4q0 2 1 5.5t3 7t2 4.5z" />
<glyph unicode="&#x2013;" horiz-adv-x="500" d="M0 187v73h500v-73h-500z" />
<glyph unicode="&#x2014;" horiz-adv-x="1000" d="M0 187v73h1000v-73h-1000z" />
<glyph unicode="&#x2018;" horiz-adv-x="204" d="M125 654l17 -21q-65 -51 -65 -105q0 -11 5.5 -21.5t13.5 -10.5q3 0 12 2.5t13 2.5q21 0 34.5 -14t13.5 -34q0 -23 -14.5 -37t-37.5 -14q-38 0 -59.5 34t-21.5 74q0 43 25 81.5t64 62.5z" />
<glyph unicode="&#x2019;" horiz-adv-x="204" d="M79 402l-17 21q65 51 65 105q0 11 -5.5 21.5t-13.5 10.5q-3 0 -12 -2.5t-13 -2.5q-21 0 -34.5 14t-13.5 34q0 23 14.5 37t37.5 14q38 0 59.5 -34t21.5 -74q0 -43 -25 -81.5t-64 -62.5z" />
<glyph unicode="&#x201a;" horiz-adv-x="204" d="M79 -166l-17 21q65 51 65 105q0 11 -5.5 21.5t-13.5 10.5q-2 0 -12 -2q-6 -3 -13 -3q-21 0 -34.5 14t-13.5 34q0 23 14.5 37t37.5 14q38 0 59.5 -34t21.5 -74q0 -43 -25 -81.5t-64 -62.5z" />
<glyph unicode="&#x201c;" horiz-adv-x="444" d="M345 654l17 -21q-65 -51 -65 -105q0 -11 5.5 -21.5t13.5 -10.5q3 0 12 2.5t13 2.5q21 0 34.5 -14t13.5 -34q0 -23 -14.5 -37t-37.5 -14q-38 0 -59.5 34t-21.5 74q0 43 25 81.5t64 62.5zM145 654l17 -21q-65 -51 -65 -105q0 -11 5.5 -21.5t13.5 -10.5q3 0 12 2.5t13 2.5 q21 0 34.5 -14t13.5 -34q0 -23 -14.5 -37t-37.5 -14q-38 0 -59.5 34t-21.5 74q0 43 25 81.5t64 62.5z" />
<glyph unicode="&#x201d;" horiz-adv-x="444" d="M100 402l-17 21q65 51 65 105q0 11 -5.5 21.5t-13.5 10.5q-3 0 -12 -2.5t-13 -2.5q-21 0 -34.5 14t-13.5 34q0 23 14.5 37t37.5 14q38 0 59.5 -34t21.5 -74q0 -43 -25 -81.5t-64 -62.5zM300 402l-17 21q65 51 65 105q0 11 -5.5 21.5t-13.5 10.5q-3 0 -12 -2.5t-13 -2.5 q-21 0 -34.5 14t-13.5 34q0 23 14.5 37t37.5 14q38 0 59.5 -34t21.5 -74q0 -43 -25 -81.5t-64 -62.5z" />
<glyph unicode="&#x201e;" horiz-adv-x="444" d="M100 -166l-17 21q65 51 65 105q0 11 -5.5 21.5t-13.5 10.5q-2 0 -12 -2q-6 -3 -13 -3q-21 0 -34.5 14t-13.5 34q0 23 14.5 37t37.5 14q38 0 59.5 -34t21.5 -74q0 -43 -25 -81.5t-64 -62.5zM300 -166l-17 21q65 51 65 105q0 11 -5.5 21.5t-13.5 10.5q-2 0 -12 -2 q-6 -3 -13 -3q-21 0 -34.5 14t-13.5 34q0 23 14.5 37t37.5 14q38 0 59.5 -34t21.5 -74q0 -43 -25 -81.5t-64 -62.5z" />
<glyph unicode="&#x2022;" horiz-adv-x="500" d="M409 317q0 -67 -46.5 -113t-112.5 -46t-111.5 46t-46.5 113q0 65 46 111.5t112 46.5t112.5 -46.5t46.5 -111.5z" />
<glyph unicode="&#x2026;" horiz-adv-x="1000" d="M167 -13q-26 0 -42 15.5t-16 40.5t16 40.5t42 15.5t42 -15.5t16 -40.5t-16 -40.5t-42 -15.5zM500 -13q-26 0 -42 15.5t-16 40.5t16 40.5t42 15.5t42 -15.5t16 -40.5t-16 -40.5t-42 -15.5zM833 -13q-26 0 -42 15.5t-16 40.5t16 40.5t42 15.5t42 -15.5t16 -40.5t-16 -40.5 t-42 -15.5z" />
<glyph unicode="&#x202f;" horiz-adv-x="169" />
<glyph unicode="&#x2039;" horiz-adv-x="352" d="M228 418l30 -15q-8 -101 -79 -180q71 -79 79 -180l-30 -15q-48 117 -158 195q110 78 158 195z" />
<glyph unicode="&#x203a;" horiz-adv-x="352" d="M94 403l30 15q48 -117 158 -195q-110 -78 -158 -195l-30 15q8 101 79 180q-71 79 -79 180z" />
<glyph unicode="&#x205f;" horiz-adv-x="211" />
<glyph unicode="&#x20ac;" d="M520 51q-68 -70 -173 -70q-109 0 -171 75t-70 202h-66l7 35h58q0 31 5 68h-70l7 35h71q28 114 104.5 186t167.5 72q66 0 123 -38l-5 -63q-1 -10 -1.5 -13.5t-3.5 -7.5t-9 -4q-2 0 -4 0.5t-3 1.5t-2 3t-1.5 3.5t-1 4t-1.5 4.5q-3 11 -10 21q-8 15 -35 31t-57 16 q-76 0 -116 -54.5t-50 -162.5h228l-7 -35h-223q-1 -25 -1 -68h213l-7 -35h-204q13 -140 74 -200q36 -34 82 -34q68 0 136 48z" />
<glyph unicode="&#x2122;" horiz-adv-x="1000" d="M268 606v-241q0 -56 3 -67t18 -11h47v-25h-212v25h49q10 0 10 9v310q-107 0 -125 -31q-6 -11 -12 -11q-8 0 -8 7q1 10 20 64h335q19 -54 20 -64q0 -7 -8 -7q-6 0 -12 11q-18 31 -125 31zM433 635h145l122 -252l118 252h129v-25h-29q-10 0 -10 -10v-235q0 -56 3 -67 t18 -11h33v-25h-178v25h29q7 0 8.5 3t1.5 16v270h-2l-140 -300q-3 -10 -8 -10q-4 0 -6 7l-4 9l-140 283h-1v-160q0 -46 0.5 -66.5t3.5 -34t7 -15.5t14 -2h31v-25h-126v25h28q11 0 11 7v242q0 19 -1 29.5t-4.5 22.5t-12 17t-22.5 5h-18v25z" />
</font>
</defs>
</svg>
